<?xml version="1.0" encoding="UTF-8" standalone="no"?>
<svg
   xmlns:dc="http://purl.org/dc/elements/1.1/"
   xmlns:cc="http://creativecommons.org/ns#"
   xmlns:rdf="http://www.w3.org/1999/02/22-rdf-syntax-ns#"
   xmlns:svg="http://www.w3.org/2000/svg"
   xmlns="http://www.w3.org/2000/svg"
   xmlns:sodipodi="http://sodipodi.sourceforge.net/DTD/sodipodi-0.dtd"
   xmlns:inkscape="http://www.inkscape.org/namespaces/inkscape"
   viewBox="0 0 105 285"
   id="sprite"
   version="1.1"
   sodipodi:docname="sprite.svg"
   width="105"
   height="285"
   inkscape:version="0.91 r">
  <metadata
     id="metadata27">
    <rdf:RDF>
      <cc:Work
         rdf:about="">
        <dc:format>image/svg+xml</dc:format>
        <dc:type
           rdf:resource="http://purl.org/dc/dcmitype/StillImage" />
      </cc:Work>
    </rdf:RDF>
  </metadata>
  <defs
     id="defs4667" />
  <sodipodi:namedview
     pagecolor="#ffffff"
     bordercolor="#666666"
     borderopacity="1"
     objecttolerance="10"
     gridtolerance="10"
     guidetolerance="10"
     inkscape:pageopacity="0"
     inkscape:pageshadow="2"
     inkscape:window-width="1920"
     inkscape:window-height="1014"
     id="namedview4665"
     showgrid="false"
     inkscape:document-units="ft"
     units="px"
     inkscape:zoom="2.1861385"
     inkscape:cx="-82.645359"
     inkscape:cy="119.90538"
     inkscape:window-x="0"
     inkscape:window-y="27"
     inkscape:window-maximized="1"
     inkscape:current-layer="sprite" />
  <g
     id="marca"
     transform="matrix(0.01797082,0,0,0.01797082,-397.52467,-17.266406)">
    <g
       id="_1831105054512">
      <path
         style="fill:#303036;fill-rule:nonzero"
         inkscape:connector-curvature="0"
         class="fil0"
         d="m 22490,4515 0,-3310 1467,0 c 296,0 520,30 673,89 153,59 276,164 368,314 91,151 137,317 137,499 0,235 -76,433 -228,594 -152,161 -386,263 -704,307 117,55 204,111 264,165 128,117 249,264 363,440 l 572,902 -547,0 -438,-689 c -127,-199 -232,-351 -315,-457 -83,-105 -157,-179 -222,-221 -65,-42 -132,-71 -200,-88 -49,-10 -130,-15 -244,-15 l -507,0 0,1470 -439,0 z m 439,-1849 941,0 c 200,0 356,-21 468,-63 113,-41 198,-107 256,-199 58,-90 88,-189 88,-296 0,-157 -57,-286 -170,-387 -113,-101 -292,-151 -536,-151 l -1047,0 0,1096 z"
         id="path917" />
      <path
         style="fill:#303036;fill-rule:nonzero"
         inkscape:connector-curvature="0"
         class="fil0"
         d="m 27766,4548 0,-3310 -1467,0 c -295,0 -520,30 -673,89 -153,59 -276,164 -368,315 -91,150 -137,316 -137,498 0,235 77,433 228,594 152,161 386,263 704,307 -116,55 -204,111 -264,165 -128,117 -249,264 -363,440 l -572,902 547,0 438,-689 c 127,-199 232,-351 315,-457 83,-105 157,-179 223,-221 64,-42 131,-71 199,-88 49,-10 130,-15 244,-15 l 507,0 0,1470 439,0 z m -439,-1849 -940,0 c -201,0 -356,-21 -469,-63 -112,-41 -198,-107 -256,-199 -58,-90 -88,-189 -88,-296 0,-157 57,-286 170,-387 113,-101 292,-151 536,-151 l 1047,0 0,1096 z"
         id="path919" />
      <g
         id="g921">
        <path
           style="fill:#303036;fill-rule:nonzero"
           inkscape:connector-curvature="0"
           class="fil0"
           d="m 27767,4520 0,3310 -1467,0 c -295,0 -519,-30 -673,-89 -153,-59 -276,-164 -367,-314 -92,-151 -137,-317 -137,-499 0,-235 76,-433 228,-594 152,-161 386,-263 703,-307 -116,-55 -204,-111 -264,-165 -128,-117 -249,-264 -362,-440 l -573,-902 547,0 438,689 c 127,199 233,351 315,457 83,105 157,179 223,221 65,42 132,71 199,88 50,10 131,15 244,15 l 507,0 0,-1470 439,0 z m -439,1849 -940,0 c -200,0 -356,21 -469,63 -112,41 -198,107 -255,199 -59,90 -88,189 -88,296 0,157 56,286 169,387 114,101 292,151 537,151 l 1046,0 0,-1096 z"
           id="path923" />
      </g>
      <g
         id="g925">
        <path
           style="fill:#303036;fill-rule:nonzero"
           inkscape:connector-curvature="0"
           class="fil0"
           d="m 22491,4500 0,3310 1467,0 c 295,0 519,-30 673,-89 153,-60 276,-165 367,-315 92,-150 137,-317 137,-498 0,-235 -76,-433 -228,-595 -151,-161 -386,-262 -703,-306 116,-56 204,-111 264,-165 128,-117 249,-264 362,-441 l 573,-901 -547,0 -438,688 c -127,200 -233,352 -315,457 -83,106 -157,179 -223,222 -65,41 -132,70 -199,87 -50,10 -131,16 -244,16 l -507,0 0,-1470 -439,0 z m 439,1849 940,0 c 201,0 356,21 469,62 112,41 198,107 255,199 59,91 88,190 88,297 0,156 -56,286 -169,387 -113,101 -292,151 -536,151 l -1047,0 0,-1096 z"
           id="path927" />
      </g>
    </g>
  </g>
  <g
     id="logo-marca "
     transform="matrix(0.02252831,0,0,0.02252831,-294.54396,-106.49886)">
    <path
       style="fill:#4c4d4f;fill-rule:nonzero"
       inkscape:connector-curvature="0"
       class="fil2"
       d="m 13806.531,10690.282 77.377,-2.394 c 0,0 -13.561,-18.347 -26.324,-38.29 l -65.412,-110.879 c 39.885,-13.561 72.59,-47.862 72.59,-92.533 0,-69.4 -50.254,-112.475 -138,-112.475 l -109.285,0 c 0,0 3.191,25.526 3.191,51.052 l 0,303.125 71.792,0 c 0,0 -2.393,-23.932 -2.393,-47.064 l 0,-78.175 42.278,0 74.186,127.633 z m -116.464,-173.899 0,-136.406 29.515,0 c 48.66,0 74.185,24.729 74.185,63.018 0,43.076 -24.729,73.388 -84.555,73.388 l -19.145,0 z m 348.594,130.822 c -39.087,0 -55.84,-36.694 -55.84,-90.139 0,-51.053 18.348,-82.163 53.446,-82.163 42.278,0 55.041,35.896 55.041,93.33 0,50.255 -18.346,78.972 -52.647,78.972 z m -7.977,45.47 c 79.77,0 129.226,-53.446 129.226,-139.598 0,-74.984 -43.075,-123.643 -115.666,-123.643 -80.566,0 -129.226,53.446 -129.226,140.395 0,74.185 43.075,122.846 115.666,122.846 z m 292.754,0 c 34.301,0 56.636,-12.765 67.006,-26.326 l 1.596,23.933 66.209,-2.394 c 0,0 -3.192,-26.325 -3.192,-52.649 l 0,-329.448 -70.197,2.394 c 0,0 3.192,23.132 3.192,51.85 l 0,86.151 c -9.573,-7.977 -24.729,-16.752 -56.637,-16.752 -64.613,0 -121.249,48.659 -121.249,141.99 0,70.197 44.671,121.251 113.272,121.251 z m 17.55,-47.863 c -44.671,0 -61.424,-37.491 -61.424,-85.353 0,-52.649 22.336,-84.556 62.221,-84.556 23.133,0 38.289,9.572 46.267,20.74 l 0,129.227 c -7.179,9.572 -23.932,19.942 -47.064,19.942 z m 303.124,2.393 c -38.29,0 -55.041,-36.694 -55.041,-90.139 0,-51.053 17.549,-82.163 52.647,-82.163 43.077,0 55.839,35.896 55.839,93.33 0,50.255 -18.347,78.972 -53.445,78.972 z m -7.977,45.47 c 80.567,0 129.226,-53.446 129.226,-139.598 0,-74.984 -43.075,-123.643 -115.665,-123.643 -79.769,0 -129.227,53.446 -129.227,140.395 0,74.185 43.075,122.846 115.666,122.846 z m 194.637,-4.787 70.197,0 c 0,0 -2.393,-23.932 -2.393,-47.064 l 0,-335.83 -70.995,2.393 c 0,0 3.191,26.324 3.191,52.648 l 0,327.853 z m 157.945,0 70.197,0 c 0,0 -2.393,-23.932 -2.393,-47.064 l 0,-160.337 74.186,1.595 2.393,-47.064 -76.579,0 0,-35.896 c 0,-29.515 10.371,-46.266 32.706,-46.266 20.739,0 31.907,9.571 64.612,11.965 l 9.573,-51.85 c -27.122,-1.596 -43.873,-9.573 -77.376,-9.573 -63.019,0 -96.521,39.087 -96.521,92.533 l 0,39.087 -28.718,0 0,43.873 27.92,0 0,208.997 z m 296.743,-40.683 c -38.29,0 -55.041,-36.694 -55.041,-90.139 0,-51.053 17.549,-82.163 52.647,-82.163 43.076,0 55.839,35.896 55.839,93.33 0,50.255 -18.347,78.972 -53.445,78.972 z m -7.977,45.47 c 80.566,0 129.227,-53.446 129.227,-139.598 0,-74.984 -43.076,-123.643 -115.666,-123.643 -79.77,0 -129.227,53.446 -129.227,140.395 0,74.185 43.075,122.846 115.666,122.846 z m 322.268,-4.787 72.592,0 c 0,0 -2.393,-23.932 -2.393,-47.064 l 0,-78.175 33.503,0 c 84.556,0 136.405,-55.839 136.405,-123.642 0,-54.244 -46.266,-105.296 -133.215,-105.296 l -110.082,0 c 0,0 3.19,25.526 3.19,51.052 l 0,303.125 z m 70.199,-172.303 0,-135.608 29.514,0 c 46.267,0 69.399,26.324 69.399,61.423 0,44.671 -22.335,74.185 -73.388,74.185 l -25.525,0 z m 339.02,177.09 c 55.839,0 86.151,-16.753 86.151,-16.753 l 0,-47.064 c 0,0 -33.504,13.561 -75.781,13.561 -46.267,0 -78.174,-28.717 -79.77,-74.186 l 165.124,0 c 9.572,-74.983 -22.336,-138.799 -106.892,-138.799 -72.59,0 -126.834,50.255 -126.834,135.608 0,80.569 54.244,127.633 138.002,127.633 z m -66.208,-167.517 c 3.987,-29.515 24.728,-51.053 53.445,-51.053 25.526,0 39.087,13.561 40.683,49.458 l -94.128,1.595 z m 227.342,162.73 70.198,0 c 0,0 -2.393,-23.932 -2.393,-47.064 l 0,-208.997 -70.995,3.191 c 0,0 3.19,26.324 3.19,51.85 l 0,201.02 z m 30.313,-301.529 c 24.729,0 41.48,-14.359 41.48,-38.29 0,-21.538 -15.156,-34.301 -37.492,-34.301 -23.93,0 -41.479,12.763 -41.479,35.099 0,22.335 16.751,37.492 37.491,37.492 z m 272.014,303.923 78.973,-2.394 c 0,0 -15.954,-19.942 -29.515,-38.29 l -70.197,-92.532 29.514,-39.087 c 33.503,-44.671 56.637,-82.961 56.637,-82.961 l -58.232,0 c 0,0 -7.977,13.561 -38.29,60.625 l -15.954,23.931 -56.636,-87.747 -79.77,3.191 c 0,0 15.955,17.549 31.909,41.48 l 62.22,89.342 -38.29,47.862 c -27.92,35.098 -55.04,74.186 -55.04,74.186 l 64.612,0 c 0,0 13.561,-24.729 43.076,-68.601 l 11.966,-17.551 63.017,88.546 z m 224.951,-43.077 c -39.088,0 -55.839,-36.694 -55.839,-90.139 0,-51.053 18.347,-82.163 53.446,-82.163 42.278,0 55.04,35.896 55.04,93.33 0,50.255 -18.347,78.972 -52.647,78.972 z m -7.978,45.47 c 79.771,0 129.227,-53.446 129.227,-139.598 0,-74.984 -43.075,-123.643 -115.666,-123.643 -80.566,0 -129.226,53.446 -129.226,140.395 0,74.185 43.075,122.846 115.665,122.846 z m 298.339,0 c 28.717,0 52.648,-10.371 52.648,-10.371 l 0,-44.671 c 0,0 -21.538,7.978 -43.075,7.978 -28.717,0 -40.683,-16.753 -40.683,-48.661 l 0,-116.463 82.163,0.798 1.595,-46.267 -83.758,0 0,-59.03 -30.312,0 -35.897,59.03 -28.716,5.584 0,38.289 30.311,0 c 0,0 -2.393,22.336 -2.393,41.48 l 0,89.342 c 0,58.233 33.504,82.962 98.117,82.962 z m 220.961,-45.47 c -38.288,0 -55.041,-36.694 -55.041,-90.139 0,-51.053 17.55,-82.163 52.648,-82.163 43.076,0 55.839,35.896 55.839,93.33 0,50.255 -18.346,78.972 -53.446,78.972 z m -7.976,45.47 c 80.568,0 129.227,-53.446 129.227,-139.598 0,-74.984 -43.076,-123.643 -115.666,-123.643 -79.77,0 -129.227,53.446 -129.227,140.395 0,74.185 43.076,122.846 115.666,122.846 z"
       id="path933" />
  </g>
  <g
     id="github"
     style="fill:#ffffff"
     transform="matrix(0.08437183,0,0,0.08437183,5.757735,141.88395)">
    <path
       inkscape:connector-curvature="0"
       d="m 158.173,352.599 c -3.049,0.568 -4.381,1.999 -3.999,4.281 0.38,2.283 2.093,3.046 5.138,2.283 3.049,-0.76 4.38,-2.095 3.997,-3.997 -0.378,-2.092 -2.091,-2.95 -5.136,-2.567 z m -16.275,2.286 c -3.046,0 -4.568,1.041 -4.568,3.139 0,2.474 1.619,3.518 4.853,3.138 3.046,0 4.57,-1.047 4.57,-3.138 0,-2.471 -1.619,-3.522 -4.855,-3.139 z m -22.269,-0.863 c -0.76,2.095 0.478,3.519 3.711,4.284 2.855,1.137 4.664,0.568 5.424,-1.714 0.572,-2.091 -0.666,-3.61 -3.711,-4.568 -2.856,-0.759 -4.663,-0.102 -5.424,1.998 z"
       id="path4709"
       style="fill:#ffffff" />
    <path
       inkscape:connector-curvature="0"
       d="M 414.41,24.123 C 398.326,8.042 378.964,0 356.309,0 L 82.225,0 C 59.577,0 40.208,8.042 24.123,24.123 8.042,40.207 0,59.576 0,82.225 l 0,274.088 c 0,22.65 8.042,42.017 24.123,58.098 16.084,16.084 35.454,24.126 58.102,24.126 l 63.953,0 c 4.184,0 7.327,-0.144 9.42,-0.424 2.092,-0.288 4.184,-1.526 6.279,-3.717 2.096,-2.187 3.14,-5.376 3.14,-9.562 0,-0.568 -0.05,-7.046 -0.144,-19.417 -0.097,-12.375 -0.144,-22.176 -0.144,-29.41 l -6.567,1.143 c -4.187,0.76 -9.469,1.095 -15.846,0.999 -6.374,-0.096 -12.99,-0.76 -19.841,-1.998 -6.855,-1.239 -13.229,-4.093 -19.13,-8.562 -5.898,-4.477 -10.085,-10.328 -12.56,-17.559 l -2.856,-6.571 c -1.903,-4.373 -4.899,-9.229 -8.992,-14.554 -4.093,-5.332 -8.232,-8.949 -12.419,-10.852 l -1.999,-1.428 c -1.331,-0.951 -2.568,-2.098 -3.711,-3.429 -1.141,-1.335 -1.997,-2.669 -2.568,-3.997 -0.571,-1.335 -0.097,-2.43 1.427,-3.289 1.524,-0.855 4.281,-1.279 8.28,-1.279 l 5.708,0.855 c 3.808,0.76 8.516,3.042 14.134,6.851 5.614,3.806 10.229,8.754 13.846,14.843 4.38,7.806 9.657,13.75 15.846,17.843 6.184,4.097 12.419,6.143 18.699,6.143 6.28,0 11.704,-0.476 16.274,-1.424 4.565,-0.954 8.848,-2.385 12.847,-4.288 1.713,-12.751 6.377,-22.559 13.988,-29.41 -10.848,-1.143 -20.602,-2.854 -29.265,-5.14 -8.658,-2.286 -17.605,-5.995 -26.835,-11.136 -9.234,-5.14 -16.894,-11.512 -22.985,-19.13 -6.09,-7.618 -11.088,-17.61 -14.987,-29.978 -3.901,-12.375 -5.852,-26.652 -5.852,-42.829 0,-23.029 7.521,-42.637 22.557,-58.814 -7.044,-17.32 -6.379,-36.732 1.997,-58.242 5.52,-1.714 13.706,-0.428 24.554,3.855 10.85,4.286 18.794,7.951 23.84,10.992 5.046,3.042 9.089,5.614 12.135,7.71 17.705,-4.949 35.976,-7.423 54.818,-7.423 18.841,0 37.115,2.474 54.821,7.423 l 10.849,-6.852 c 7.426,-4.57 16.18,-8.757 26.269,-12.562 10.088,-3.806 17.795,-4.854 23.127,-3.14 8.562,21.51 9.328,40.922 2.279,58.241 15.036,16.179 22.559,35.786 22.559,58.815 0,16.18 -1.951,30.505 -5.852,42.969 -3.898,12.467 -8.939,22.463 -15.13,29.981 -6.184,7.519 -13.894,13.843 -23.124,18.986 -9.232,5.137 -18.178,8.853 -26.84,11.132 -8.661,2.286 -18.414,4.004 -29.263,5.147 9.891,8.562 14.839,22.072 14.839,40.538 l 0,68.238 c 0,3.237 0.472,5.852 1.424,7.851 0.958,1.998 2.478,3.374 4.571,4.141 2.102,0.76 3.949,1.235 5.571,1.424 1.622,0.191 3.949,0.287 6.995,0.287 l 63.953,0 c 22.648,0 42.018,-8.042 58.095,-24.126 16.084,-16.084 24.126,-35.454 24.126,-58.102 l 0,-274.075 C 438.533,59.576 430.491,40.204 414.41,24.123 Z"
       id="path4711"
       style="fill:#ffffff" />
    <path
       inkscape:connector-curvature="0"
       d="m 86.793,319.195 c -1.331,0.948 -1.141,2.471 0.572,4.565 1.906,1.902 3.427,2.189 4.57,0.855 1.331,-0.948 1.141,-2.471 -0.575,-4.569 -1.902,-1.71 -3.424,-1.997 -4.567,-0.851 z m -9.419,-7.138 c -0.57,1.335 0.096,2.478 1.999,3.426 1.521,0.955 2.762,0.767 3.711,-0.568 0.57,-1.335 -0.096,-2.478 -1.999,-3.433 -1.903,-0.572 -3.14,-0.38 -3.711,0.575 z m 18.272,18.274 c -1.715,0.948 -1.715,2.666 0,5.137 1.713,2.478 3.328,3.142 4.853,1.998 1.714,-1.334 1.714,-3.142 0,-5.427 -1.521,-2.468 -3.14,-3.046 -4.853,-1.708 z m 9.995,12.843 c -1.714,1.526 -1.336,3.327 1.142,5.428 2.281,2.279 4.185,2.566 5.708,0.849 1.524,-1.519 1.143,-3.326 -1.142,-5.42 -2.281,-2.28 -4.185,-2.568 -5.708,-0.857 z"
       id="path4713"
       style="fill:#ffffff" />
  </g>
  <g
     transform="matrix(0.07231831,0,0,0.07231831,59.058667,142.64506)"
     id="envelope"
     style="fill:#ffffff">
    <path
       inkscape:connector-curvature="0"
       d="m 49.106,178.729 c 6.472,4.567 25.981,18.131 58.528,40.685 32.548,22.554 57.482,39.92 74.803,52.099 1.903,1.335 5.946,4.237 12.131,8.71 6.186,4.476 11.326,8.093 15.416,10.852 4.093,2.758 9.041,5.852 14.849,9.277 5.806,3.422 11.279,5.996 16.418,7.7 5.14,1.718 9.898,2.569 14.275,2.569 l 0.575,0 c 4.377,0 9.137,-0.852 14.277,-2.569 5.137,-1.704 10.615,-4.281 16.416,-7.7 5.804,-3.429 10.752,-6.52 14.845,-9.277 4.093,-2.759 9.229,-6.376 15.417,-10.852 6.184,-4.477 10.232,-7.375 12.135,-8.71 17.508,-12.179 62.051,-43.11 133.615,-92.79 13.894,-9.703 25.502,-21.411 34.827,-35.116 9.332,-13.699 13.993,-28.07 13.993,-43.105 0,-12.564 -4.523,-23.319 -13.565,-32.264 C 489.02,59.291 478.312,54.82 465.944,54.82 l -420.265,0 C 31.024,54.82 19.746,59.768 11.847,69.664 3.949,79.562 0,91.934 0,106.779 c 0,11.991 5.236,24.985 15.703,38.974 10.466,13.99 21.604,24.983 33.403,32.976 z"
       id="path4685"
       style="fill:#ffffff" />
    <path
       inkscape:connector-curvature="0"
       d="m 483.072,209.275 c -62.424,42.251 -109.824,75.087 -142.177,98.501 -10.849,7.991 -19.65,14.229 -26.409,18.699 -6.759,4.473 -15.748,9.041 -26.98,13.702 -11.228,4.668 -21.692,6.995 -31.401,6.995 l -0.578,0 c -9.707,0 -20.177,-2.327 -31.405,-6.995 -11.228,-4.661 -20.223,-9.229 -26.98,-13.702 -6.755,-4.47 -15.559,-10.708 -26.407,-18.699 C 145.038,288.934 97.74,256.096 28.839,209.275 17.987,202.047 8.375,193.762 0,184.437 l 0,226.685 c 0,12.57 4.471,23.319 13.418,32.265 8.945,8.949 19.701,13.422 32.264,13.422 l 420.266,0 c 12.56,0 23.315,-4.473 32.261,-13.422 8.949,-8.949 13.418,-19.694 13.418,-32.265 l 0,-226.685 c -8.186,9.132 -17.7,17.417 -28.555,24.838 z"
       id="path4687"
       style="fill:#ffffff" />
  </g>
  <path
     inkscape:connector-curvature="0"
     d="m 38.154028,185.17911 -29.4310763,0 a 3.7824217,3.7824217 0 0 0 -3.782422,3.78242 l 0,29.43108 c 0,2.09114 1.695357,3.78242 3.782422,3.78242 l 29.4310763,0 a 3.7824217,3.7824217 0 0 0 3.786502,-3.78242 l 0,-29.43108 a 3.7824217,3.7824217 0 0 0 -3.786502,-3.78242 z m -0.644685,8.14628 c 0,0 -5.477779,-1.99934 -5.477779,2.06871 l 0,3.07245 5.34313,0 -0.473313,5.07587 -4.869817,0 0,17.29836 -6.544772,0 0,-17.29836 -3.207102,0 0,-5.07587 3.207102,0 0,-5.33905 c 0,0 -0.06732,-4.12313 5.310487,-5.31049 3.774261,-0.83646 7.444475,0.36927 7.444475,0.36927 l -0.732411,5.13911 z"
     id="facebook"
     style="fill:#ffffff" />
  <path
     inkscape:connector-curvature="0"
     d="m 87.715087,186.36258 -23.125048,0 c -3.831822,0 -6.937476,3.10565 -6.937476,6.93748 l 0,23.12504 c 0,3.83183 3.105654,6.93748 6.937476,6.93748 l 23.125048,0 c 3.831822,0 6.937476,-3.10573 6.937476,-6.93748 l 0,-23.12504 c 7.6e-5,-3.83183 -3.105654,-6.93748 -6.937476,-6.93748 z m -2.358718,14.34674 0.01384,0.5897 c 0,6.02174 -4.581041,12.95929 -12.959292,12.95929 -2.571487,0 -4.964968,-0.75386 -6.981445,-2.0466 0.356162,0.0416 0.71917,0.0647 1.086895,0.0647 2.134462,0 4.097765,-0.72845 5.656373,-1.94946 -1.993351,-0.037 -3.674585,-1.35512 -4.255002,-3.16347 a 4.7527319,4.7527319 0 0 0 0.857923,0.0787 c 0.416257,0 0.818594,-0.0532 1.200164,-0.15724 -2.083571,-0.4209 -3.653742,-2.25929 -3.653742,-4.46541 l 0,-0.0578 c 0.615106,0.34225 1.315791,0.54573 2.062727,0.57122 -1.221007,-0.81632 -2.025757,-2.21076 -2.025757,-3.79021 0,-0.8348 0.224332,-1.61643 0.615106,-2.28935 2.245449,2.75649 5.6032,4.56948 9.388772,4.75913 -0.07866,-0.33304 -0.117909,-0.6822 -0.117909,-1.03829 0,-2.51367 2.039602,-4.55335 4.555633,-4.55335 1.308869,0 2.492906,0.55265 3.325345,1.43834 a 9.2235465,9.2235465 0 0 0 2.892961,-1.10538 c -0.339959,1.06377 -1.061412,1.95638 -2.002632,2.52059 a 9.1308926,9.1308926 0 0 0 2.615456,-0.71688 c -0.610466,0.91109 -1.385168,1.71356 -2.275421,2.35179 z"
     id="twitter"
     style="fill:#ffffff" />
  <path
     inkscape:connector-curvature="0"
     d="m 41.153048,234.73708 c -1.35647,-1.35679 -2.99077,-2.03532 -4.90164,-2.03532 l -23.12549,0 c -1.91087,0 -3.5451695,0.67853 -4.9022295,2.03532 -1.35679,1.35706 -2.03532,2.99127 -2.03532,4.90223 l 0,23.12523 c 0,1.91079 0.67853,3.54518 2.03532,4.90223 1.35706,1.35705 2.9913605,2.03558 4.9022295,2.03558 l 23.12523,0 c 1.91088,0 3.54518,-0.67853 4.90164,-2.03558 1.35705,-1.35705 2.03558,-2.99135 2.03558,-4.90223 l 0,-23.12523 c -8e-5,-1.91096 -0.67861,-3.54543 -2.03532,-4.90223 z m -23.69121,28.94274 -5.56455,0 0,-16.71771 5.56455,0 0,16.71771 z m -0.50556,-19.81284 c -0.57804,0.55408 -1.34094,0.83116 -2.28853,0.83116 l -0.0243,0 c -0.91527,0 -1.65775,-0.27708 -2.22803,-0.83116 -0.57036,-0.55408 -0.85537,-1.24053 -0.85537,-2.05954 0,-0.83504 0.29328,-1.52571 0.87925,-2.07186 0.58639,-0.54597 1.34507,-0.81909 2.27637,-0.81909 0.9314,0 1.67818,0.27312 2.24036,0.81909 0.562,0.54615 0.85115,1.23682 0.86709,2.07186 -8e-5,0.81867 -0.2888,1.50513 -0.86684,2.05954 z m 20.52343,19.81284 -5.56456,0 0,-8.93677 c 0,-2.52097 -0.93114,-3.78184 -2.79409,-3.78184 -0.70653,0 -1.30103,0.19668 -1.78263,0.59019 -0.48219,0.39326 -0.84339,0.87106 -1.08393,1.43358 -0.11264,0.28872 -0.16866,0.73826 -0.16866,1.34836 l 0,9.3464 -5.56456,0 c 0.0482,-10.085 0.0482,-15.65782 0,-16.7178 l 5.56456,0 0,2.36025 c 1.16999,-1.82929 2.83138,-2.74583 4.98651,-2.74583 1.92708,0 3.47701,0.63448 4.64928,1.90294 1.17236,1.26872 1.75841,3.13985 1.75841,5.6124 l 0,9.58812 -3.3e-4,0 z"
     id="linkendin"
     style="fill:#ffffff" />
  <g
     id="whatsapp"
     transform="matrix(0.41111111,0,0,0.41111111,56.946092,232.77344)"
     style="fill:#ffffff">
    <path
       inkscape:connector-curvature="0"
       id="WhatsApp"
       d="m 90,43.841 c 0,24.213 -19.779,43.841 -44.182,43.841 -7.747,0 -15.025,-1.98 -21.357,-5.455 L 0,90 7.975,66.478 C 3.952,59.872 1.635,52.124 1.635,43.841 1.635,19.628 21.416,0 45.818,0 70.223,0 90,19.628 90,43.841 Z M 45.818,6.982 c -20.484,0 -37.146,16.535 -37.146,36.859 0,8.065 2.629,15.534 7.076,21.61 L 11.107,79.14 25.382,74.603 C 31.247,78.454 38.273,80.7 45.819,80.7 66.3,80.7 82.965,64.167 82.965,43.843 82.965,23.519 66.301,6.982 45.818,6.982 Z m 22.311,46.956 c -0.273,-0.447 -0.994,-0.717 -2.076,-1.254 -1.084,-0.537 -6.41,-3.138 -7.4,-3.495 -0.993,-0.358 -1.717,-0.538 -2.438,0.537 -0.721,1.076 -2.797,3.495 -3.43,4.212 -0.632,0.719 -1.263,0.809 -2.347,0.271 -1.082,-0.537 -4.571,-1.673 -8.708,-5.333 -3.219,-2.848 -5.393,-6.364 -6.025,-7.441 -0.631,-1.075 -0.066,-1.656 0.475,-2.191 0.488,-0.482 1.084,-1.255 1.625,-1.882 0.543,-0.628 0.723,-1.075 1.082,-1.793 0.363,-0.717 0.182,-1.344 -0.09,-1.883 -0.27,-0.537 -2.438,-5.825 -3.34,-7.977 -0.902,-2.15 -1.803,-1.792 -2.436,-1.792 -0.631,0 -1.354,-0.09 -2.076,-0.09 -0.722,0 -1.896,0.269 -2.889,1.344 -0.992,1.076 -3.789,3.676 -3.789,8.963 0,5.288 3.879,10.397 4.422,11.113 0.541,0.716 7.49,11.92 18.5,16.223 11.011,4.301 11.011,2.866 12.997,2.686 1.984,-0.179 6.406,-2.599 7.312,-5.107 0.9,-2.512 0.9,-4.663 0.631,-5.111 z"
       style="fill:#ffffff" />
  </g>
</svg>
