<svg xmlns="http://www.w3.org/2000/svg">
<defs>
<font
       id="FontID1"
       horiz-adv-x="666"
       font-variant="normal"
       font-style="normal"
       font-weight="400"
       horiz-origin-x="0"
       horiz-origin-y="0"
       vert-origin-x="45"
       vert-origin-y="90"
       vert-adv-y="90"
       style="font-style:normal;font-variant:normal;font-weight:400"><font-face
         font-family="Arial"
         id="font-face7"><font-face-src><font-face-name
             name="Arial" /></font-face-src></font-face><missing-glyph
         id="missing-glyph9"><path
           d="M0 0z"
           id="path11" /></missing-glyph><glyph
         unicode="ÿ"
         horiz-adv-x="500"
         d="M62.0011 -199.499l-10.0018 81.3324c19.3336,-5.16788 36.0003,-7.83249 50.3341,-7.83249 19.6675,0 35.3325,3.33245 46.9994,9.83152 11.8328,6.50131 21.5007,15.6672 29.0015,27.3342 5.49955,8.83425 14.4996,30.6666 26.8322,65.6675 1.66735,4.83172 4.16613,11.9986 7.83249,21.4985l-197 520.667 94.0011 0 108.333 -299.667c14.168,-37.8313 26.6663,-77.8319 37.8335,-119.832 10.1677,39.4986 22.1663,78.4997 36.1662,116.833l110.668 302.666 87.8337 0 -196.166 -528c-21.1668,-56.8332 -37.6677,-95.8343 -49.5005,-117.333 -15.6672,-28.8334 -33.6674,-50.0002 -53.8347,-63.5004 -20.3331,-13.5001 -44.4984,-20.1673 -72.4982,-20.1673 -17.0007,0 -36.0003,3.50053 -56.8332,10.5016zm59.9998 782.499l0 100 91.9999 0 0 -100 -91.9999 0zm181.998 0l0 100 91.9999 0 0 -100 -91.9999 0z"
         id="glyph13" /><glyph
         unicode="î"
         horiz-adv-x="277"
         d="M96.9997 0l0 519 87.9996 0 0 -519 -87.9996 0zm49.0007 666l-54.5003 -82.9998 -100 0 104.5 137 92.9994 0 111.502 -137 -100 0 -54.5003 82.9998z"
         id="glyph15" /><glyph
         unicode="Ý"
         horiz-adv-x="666"
         d="M278.832 0l0 303.334 -276 412.666 114 0 141.5 -216.665c26.3324,-40.1687 50.8339,-80.3352 73.166,-120.502 21.8346,37.4996 48.3329,79.5015 79.1676,126.167l138.665 211 110.502 0 -286.001 -412.666 0 -303.334 -95.0006 0zm-7.83249 760.001l64.0001 137 115.999 0 -106.999 -137 -73.0002 0z"
         id="glyph17" /><glyph
         unicode="Ì"
         horiz-adv-x="277"
         d="M92.9994 0l0 716 95.0006 0 0 -716 -95.0006 0zm122.001 760.001l-71.0012 0 -112.999 137 117.998 0 66.0014 -137z"
         id="glyph19" /><glyph
         unicode="»"
         horiz-adv-x="556"
         d="M386 257.5l-129 222.501 72.0007 0 157.999 -222.501 -156.999 -222.499 -72.0007 0 128 222.499zm-189 0l-129.999 222.501 73.9997 0 153.999 -222.501 -153.999 -222.499 -73.9997 0 129.999 222.499z"
         id="glyph21" /><glyph
         unicode="ª"
         horiz-adv-x="370"
         d="M266.334 407.5c-39.6667,-28.9993 -81.3347,-43.5012 -124.834,-43.5012 -36.834,0 -65.8333,10.0018 -87.334,30.001 -21.5007,20.1673 -32.1659,45.8341 -32.1659,77.1663 0,15.6672 2.66686,29.3332 7.83249,41.0001 5.16788,11.8328 13.0004,22.1663 23.168,31.3322 10.3313,9.16816 23.4997,16.5009 39.8325,22.0005 11.4989,3.66637 27.5,7.00106 48.3329,10.3335l71.8326 10.6674c23.502,4.66588 39.167,7.83249 47.0017,9.83376 -0.333918,22.8319 -2.66686,37.9994 -6.83298,45.8319 -4.16837,7.83474 -12.1667,14.6677 -23.6678,20.3331 -11.6669,5.66763 -27.0003,8.50033 -46.3339,8.50033 -25.6668,0 -45.0004,-5.33372 -57.6669,-15.8331 -12.6665,-10.6652 -20.4989,-25.6668 -23.4997,-45.1663l-66.9986 17.0007c3.83221,28.8334 18.166,52.8329 42.9992,72.1665 24.6673,19.1655 59.9998,28.8334 106,28.8334 53.3327,0 91.1662,-10.1677 113.332,-30.5008 21.8346,-20.667 32.6679,-50.9997 32.6679,-90.6664l0 -120.168 -0.499756 -30.4985c0,-44.8346 6.83298,-75.5012 20.4989,-92.168l-71.9984 0c-7.00106,13.0004 -11.0013,27.5 -11.6669,43.5012zm-7.33498 131.667c-17.1665,-4.50004 -48.3329,-10.3335 -93.4991,-17.5004 -29.1674,-4.66588 -48.167,-10.9991 -56.8332,-19.1655 -9.16592,-8.33449 -13.666,-18.8338 -13.666,-31.1686 0,-13.332 5.49955,-24.6651 16.4987,-34.1649 11.0013,-9.49984 26.6663,-14.168 46.6678,-14.168 23.6656,0 44.3326,6.33323 61.833,18.9997 17.5004,12.6665 29.1674,28.3337 35.0008,46.8336 2.33294,6.66714 3.66637,23.3339 3.99805,50.3341z"
         id="glyph23" /><glyph
         unicode=""
         horiz-adv-x="750"
         d="M124.999 0l0 624.999 500 0 0 -624.999 -500 0zm16.0011 15.9989l468 0 0 593.002 -468 0 0 -593.002z"
         id="glyph25" /><glyph
         unicode=""
         horiz-adv-x="750"
         d="M124.999 0l0 624.999 500 0 0 -624.999 -500 0zm16.0011 15.9989l468 0 0 593.002 -468 0 0 -593.002z"
         id="glyph27" /><glyph
         unicode="w"
         horiz-adv-x="722"
         d="M159.332 0l-156.831 519 91.9999 0 82.8317 -299.499 29.3332 -111.499c1.16759,5.49955 10.1677,41.166 26.8344,106.999l82.1661 303.999 90.1667 0 78.1681 -301.333 25.4987 -98.8329 29.833 100.166 89.6669 299.999 85.5008 0 -162.833 -519 -91.0004 0 -82.3342 310.501 -20.8329 88.8333 -105 -399.334 -93.1675 0z"
         id="glyph29" /><glyph
         unicode="f"
         horiz-adv-x="277"
         d="M87.0001 0l0 450.999 -78 0 0 68.0004 78 0 0 55c0,34.8327 3.00078,60.6677 9.16592,77.5002 8.50033,22.6661 23.168,41.166 44.5007,55.3339 21.1668,14.1657 50.9997,21.1668 89.333,21.1668 24.8332,0 52.1673,-3.00078 82.1661,-8.83425l-13.1662 -77.0005c-18.3318,3.16661 -35.5006,4.83396 -51.8334,4.83396 -26.6663,0 -45.5002,-5.66763 -56.6651,-17.0007 -11.0013,-11.333 -16.5009,-32.4998 -16.5009,-63.4981l0 -47.5014 101 0 0 -68.0004 -100 0 0 -450.999 -87.9996 0z"
         id="glyph31" /><glyph
         unicode="U"
         horiz-adv-x="722"
         d="M546 716l95.0006 0 0 -413.5c0,-72.0007 -8.16641,-129.168 -24.3334,-171.499 -16.3328,-42.1677 -45.6683,-76.6666 -87.9996,-103.167 -42.5016,-26.5005 -98.0014,-39.8348 -167.001,-39.8348 -66.8328,0 -121.667,11.5011 -164.166,34.6669 -42.6675,23.168 -73.0002,56.5015 -91.1662,100.334 -18.166,43.8328 -27.3342,103.667 -27.3342,179.5l0 413.5 95.0006 0 0 -413.334c0,-62.1669 5.83347,-108.167 17.3323,-137.5 11.5011,-29.499 31.1686,-52.3332 59.3342,-68.1662 27.9998,-15.9989 62.3328,-23.9995 102.833,-23.9995 69.3338,0 118.834,15.8331 148.333,47.3334 29.5013,31.6661 44.1668,92.3338 44.1668,182.332l0 413.334z"
         id="glyph33" /><glyph
         unicode="D"
         horiz-adv-x="722"
         d="M77.0005 0l0 716 246.666 0c55.6656,0 98.1673,-3.33245 127.5,-10.1654 41.0001,-9.50208 75.9987,-26.6686 105,-51.3337 37.8313,-32.0001 65.9991,-72.6663 84.6649,-122.335 18.8338,-49.6663 28.1678,-106.5 28.1678,-170.332 0,-54.3344 -6.33323,-102.501 -18.9997,-144.501 -12.6665,-41.9997 -29.0015,-76.8324 -48.8349,-104.332 -19.9992,-27.5 -41.6657,-49.1666 -65.3335,-64.8338 -23.4997,-15.8331 -51.9992,-27.8339 -85.3327,-36.0003 -33.4993,-8.16641 -71.8326,-12.1667 -115.166,-12.1667l-258.333 0zm94.9984 83.9993l152.668 0c47.1675,0 84.1674,4.3342 111,13.1685 26.8344,8.83201 48.167,21.1645 64.1682,37.1657 22.3321,22.5002 39.8325,52.8329 52.3332,90.8323 12.4984,38.0016 18.8316,84.0015 18.8316,138.168 0,74.9992 -12.3325,132.666 -36.8318,173.001 -24.5015,40.3323 -54.3344,67.3326 -89.5011,80.9985 -25.3329,9.83376 -66.165,14.6677 -122.498,14.6677l-150.169 0 0 -548.001z"
         id="glyph35" /><glyph
         unicode="3"
         horiz-adv-x="556"
         d="M41.9997 189.999l87.9996 12.0009c10.1677,-50.0002 27.1683,-86.0006 51.3337,-108.001 24.1676,-21.9982 53.8347,-32.9996 89.0013,-32.9996 41.6657,0 76.8324,14.3338 105.166,43.0014 28.3337,28.6654 42.4994,64.1659 42.4994,106.5 0,40.3323 -13.1662,73.6658 -39.6667,100 -26.3324,26.1666 -59.834,39.3328 -100.666,39.3328 -16.6667,0 -37.3338,-3.33245 -62.1669,-9.83376l9.83376 77.0005c5.83347,-0.667835 10.6652,-0.999511 14.1657,-0.999511 37.6677,0 71.3328,9.83376 101.5,29.3332 30.001,19.4994 45.0004,49.5005 45.0004,89.9986 0,32.1681 -10.9991,58.8345 -32.8337,80.0013 -21.8324,21.1668 -50.0002,31.6661 -84.4991,31.6661 -34.333,0 -62.8325,-10.8333 -85.6666,-32.4998 -22.8341,-21.6665 -37.4996,-54.1663 -44.0009,-97.4994l-87.9996 15.9989c10.8333,59.0003 35.1667,104.834 73.3341,137.334 37.9994,32.4998 85.4986,48.6668 142.166,48.6668 39.0011,0 74.9992,-8.33449 107.833,-25.1671 32.9996,-16.6667 58.1666,-39.5009 75.5012,-68.3343 17.5004,-28.9993 26.1666,-59.6659 26.1666,-92.1657 0,-30.8325 -8.33449,-58.8345 -24.8332,-84.1674 -16.6667,-25.3329 -41.3341,-45.5002 -73.8339,-60.4996 42.3336,-9.66568 75.1673,-29.9988 98.667,-60.8335 23.3339,-30.6666 34.9986,-69.3338 34.9986,-115.5 0,-62.5008 -22.8319,-115.668 -68.3321,-159.167 -45.666,-43.5012 -103.333,-65.1677 -173.001,-65.1677 -62.8325,0 -115,18.8338 -156.5,56.3335 -41.6657,37.5018 -65.3335,86.0006 -71.167,145.666z"
         id="glyph37" /><glyph
         unicode="&quot;"
         horiz-adv-x="354"
         d="M70.3333 463l-24.3334 136.001 0 116.999 100 0 0 -116.999 -22.0005 -136.001 -53.6666 0zm161.5 0l-23.8336 136.001 0 116.999 100 0 0 -116.999 -23.4997 -136.001 -52.6671 0z"
         id="glyph39" /><glyph
         unicode="ü"
         horiz-adv-x="556"
         d="M404.999 0l0 77.1663c-40.3323,-58.8322 -94.9984,-88.1654 -164.166,-88.1654 -30.4985,0 -59.0003,5.83347 -85.4986,17.4982 -26.5005,11.835 -46.168,26.5005 -59.0003,44.1668 -12.8345,17.8343 -21.8346,39.5009 -27.0003,65.1677 -3.50053,17.3323 -5.33372,44.6665 -5.33372,82.0003l0 321.166 87.9996 0 0 -287.167c0,-45.8319 1.83318,-76.8324 5.33372,-92.6655 5.49955,-23.168 17.1665,-41.1682 35.1667,-54.3344 17.8343,-13.1662 39.8325,-19.8334 66.1672,-19.8334 26.3324,0 50.9997,6.66714 73.9997,20.1673 23,13.5001 39.3328,32.0001 49.0007,55.1659 9.49984,23.168 14.3316,57.0013 14.3316,101.168l0 277.499 88.0018 0 0 -519 -79.0017 0zm-270 583l0 100 91.9999 0 0 -100 -91.9999 0zm182.001 0l0 100 91.9999 0 0 -100 -91.9999 0z"
         id="glyph41" /><glyph
         unicode="ë"
         horiz-adv-x="556"
         d="M420.001 168.001l90.9981 -12.0009c-14.1657,-52.8329 -40.6662,-93.9989 -79.3334,-123.166 -38.665,-29.1674 -87.9996,-43.8328 -148.165,-43.8328 -75.6671,0 -135.667,23.3316 -179.999,69.9994 -44.3348,46.4997 -66.5011,111.999 -66.5011,196.166 0,87.0001 22.3344,154.667 67.1667,202.666 44.8323,48.167 102.999,72.1688 174.5,72.1688 69.1657,0 125.667,-23.502 169.5,-70.6673 43.8328,-47.1675 65.8333,-113.501 65.8333,-199.001 0,-5.16564 -0.165838,-12.9981 -0.499756,-23.3316l-386.499 0c3.33245,-56.8332 19.3336,-100.5 48.3329,-130.667 28.8334,-30.1669 64.9996,-45.3343 108.167,-45.3343 32.1659,0 59.6659,8.50033 82.332,25.501 22.8341,17.0007 40.8343,44.1668 54.1686,81.5005zm-288 140.998l289 0c-3.83445,43.667 -14.9994,76.3349 -33.1676,98.1673 -27.8339,33.8332 -64.1659,50.8339 -108.667,50.8339 -40.3323,0 -74.1655,-13.5001 -101.666,-40.5004 -27.3342,-27.0003 -42.5016,-63.1664 -45.5002,-108.501zm13.9999 274.001l0 100 91.9999 0 0 -100 -91.9999 0zm182.001 0l0 100 91.9999 0 0 -100 -91.9999 0z"
         id="glyph43" /><glyph
         unicode="Ú"
         horiz-adv-x="722"
         d="M546 716l95.0006 0 0 -413.5c0,-72.0007 -8.16641,-129.168 -24.3334,-171.499 -16.3328,-42.1677 -45.6683,-76.6666 -87.9996,-103.167 -42.5016,-26.5005 -98.0014,-39.8348 -167.001,-39.8348 -66.8328,0 -121.667,11.5011 -164.166,34.6669 -42.6675,23.168 -73.0002,56.5015 -91.1662,100.334 -18.166,43.8328 -27.3342,103.667 -27.3342,179.5l0 413.5 95.0006 0 0 -413.334c0,-62.1669 5.83347,-108.167 17.3323,-137.5 11.5011,-29.499 31.1686,-52.3332 59.3342,-68.1662 27.9998,-15.9989 62.3328,-23.9995 102.833,-23.9995 69.3338,0 118.834,15.8331 148.333,47.3334 29.5013,31.6661 44.1668,92.3338 44.1668,182.332l0 413.334zm-266 44.0009l64.0001 137 115.999 0 -106.999 -137 -73.0002 0z"
         id="glyph45" /><glyph
         unicode="É"
         horiz-adv-x="666"
         d="M78.9995 0l0 716 517.001 0 0 -83.9993 -422 0 0 -220 395 0 0 -83.9993 -395 0 0 -244.002 439.001 0 0 -83.9993 -534.001 0zm195.001 760.001l64.0001 137 115.999 0 -106.999 -137 -73.0002 0z"
         id="glyph47" /><glyph
         unicode="¸"
         horiz-adv-x="333"
         d="M105.666 -74.9992l25.3352 85.9983 64.9996 0 -16.167 -51.9992c27.8339,-3.33245 48.8326,-11.8328 63.0006,-25.6668 14.1657,-13.666 21.1668,-28.9993 21.1668,-45.8341 0,-24.3312 -11.835,-45.8319 -35.5006,-64.4999 -23.4997,-18.6658 -59.1661,-27.9998 -106.668,-27.9998 -26.8322,0 -50.5,0 -70.8331,0l4.9998 62.0011c21.1668,-0.667835 36.5001,-0.999511 46.4997,-0.999511 30.8347,0 52.6671,4.16613 65.1677,12.6665 9.49984,6.49907 14.3338,14.3316 14.3338,23.8336 0,5.83347 -1.83318,10.9991 -5.66763,15.4992 -3.66637,4.50004 -10.4994,8.50033 -20.4989,11.6669 -10.1677,3.16661 -26.8344,4.9998 -50.1683,5.33372z"
         id="glyph49" /><glyph
         unicode="§"
         horiz-adv-x="556"
         d="M69.9994 -33.9991l87.9996 12.9981c9.16816,-42.3313 23.8336,-72.1665 43.8351,-89.333 19.8334,-17.1665 47.1653,-25.6668 81.4983,-25.6668 33.5016,0 59.5001,8.50033 78.3339,25.501 18.8338,16.8326 28.3337,36.834 28.3337,59.6659 0,16.5009 -5.83347,31.8342 -17.6663,45.8341 -20.1673,24.4992 -75.6671,64.4999 -166.333,119.834 -48.3329,29.6671 -82.0003,52.8329 -101,69.4997 -19.1678,16.8326 -34.8327,36.6659 -46.8336,59.332 -12.1667,22.8341 -18.166,46.6678 -18.166,71.3351 0,31.3322 9.83376,59.6659 29.3332,84.9988 19.6653,25.501 46.4997,43.1672 80.8327,53.3327 -23.1658,22.0005 -39.5009,42.3336 -49.0007,61.0016 -9.49984,18.8338 -14.1657,38.6672 -14.1657,59.6659 0,41.668 16.3328,77.6661 48.8326,108.167 32.4998,30.5008 75.5012,45.8341 129.168,45.8341 60.8335,0 108.333,-14.4996 142.5,-43.3331 34.1672,-28.8334 54.6661,-70.8353 61.4991,-125.667l-91.0004 -9.00009c-6.83298,39.5009 -18.8316,67.1667 -35.8323,82.6659 -17.1665,15.5014 -40.1665,23.3339 -69.1657,23.3339 -29.8352,0 -54.0005,-8.00057 -72.5004,-24.1676 -18.3341,-15.9989 -27.5,-33.8332 -27.5,-53.3327 0,-16.8326 5.83347,-32.334 17.6663,-46.6655 18.3341,-22.0005 68.1662,-57.835 149.499,-107.333 51.1678,-31.3345 85.6689,-54.1686 103.667,-68.8341 23,-19.6675 40.0006,-39.8325 50.8339,-60.6677 10.8333,-20.8329 16.3328,-43.4989 16.3328,-67.8323 0,-36.834 -11.8328,-68.3343 -35.4983,-94.3328 -13.6682,-15.0016 -38.6672,-30.1669 -75.0015,-45.3343 26.0007,-19.9992 45.5002,-41.3341 58.3347,-64.0001 12.8323,-22.8341 19.1655,-47.3334 19.1655,-73.3341 0,-28.6654 -8.16641,-55.6656 -24.4992,-81.3324 -16.3328,-25.4987 -39.6667,-45.0004 -70.3333,-58.5006 -30.6666,-13.5001 -63.8343,-20.3331 -99.3326,-20.3331 -62.335,0 -111.835,15.5014 -148.333,46.4997 -36.5001,31.1664 -58.3347,74.3336 -65.5016,129.502zm286.667 153.665c24.1676,12.3348 41.9997,26.8344 53.8324,43.1672 11.6669,16.5009 17.5004,32.4998 17.5004,48.167 0,18.4999 -8.33225,38.1674 -25.1671,58.6664 -16.9984,20.5012 -53.6666,48.0012 -109.832,82.5 -44.6665,27.3342 -78,49.8344 -100,67.3326 -26.3324,-14.8313 -45.0004,-29.833 -56.1676,-44.8323 -11.1649,-14.9994 -16.8326,-31.6661 -16.8326,-49.8344 0,-20.4989 7.50082,-39.9984 22.3344,-58.6664 14.9994,-18.4999 48.6668,-43.3331 101.166,-74.1655 43.8328,-25.8327 81.5005,-49.8344 113.167,-72.3346z"
         id="glyph51" /><glyph
         unicode=""
         horiz-adv-x="750"
         d="M124.999 0l0 624.999 500 0 0 -624.999 -500 0zm16.0011 15.9989l468 0 0 593.002 -468 0 0 -593.002z"
         id="glyph53" /><glyph
         unicode=""
         horiz-adv-x="750"
         d="M124.999 0l0 624.999 500 0 0 -624.999 -500 0zm16.0011 15.9989l468 0 0 593.002 -468 0 0 -593.002z"
         id="glyph55" /><glyph
         unicode="t"
         horiz-adv-x="277"
         d="M257 78.4997l12.0009 -77.6661c-24.6673,-5.16788 -46.8336,-7.83474 -66.1672,-7.83474 -31.8342,0 -56.4993,5.00204 -74.1678,15.1675 -17.4982,10.1677 -29.833,23.3339 -36.9999,39.8325 -7.1669,16.5009 -10.6652,51.1678 -10.6652,104.001l0 299 -65.0019 0 0 68.0004 65.0019 0 0 128.334 87.9996 52.8329 0 -181.167 87.9996 0 0 -68.0004 -87.9996 0 0 -303.999c0,-25.1671 1.49927,-41.3341 4.66588,-48.501 3.00078,-7.16466 8.00057,-12.8323 14.9994,-17.1665 7.00106,-4.16613 17.0007,-6.33323 30.001,-6.33323 9.66568,0 22.5002,1.16759 38.3333,3.50053z"
         id="glyph57" /><glyph
         unicode="c"
         horiz-adv-x="500"
         d="M404.999 189.999l86.0006 -11.9986c-9.49984,-59.1661 -33.4993,-105.334 -72.3324,-138.833 -38.8353,-33.4993 -86.6684,-50.1661 -143.168,-50.1661 -70.8331,0 -127.832,23.1658 -170.834,69.4997 -43.1672,46.3339 -64.6657,112.667 -64.6657,198.999 0,55.9995 9.33176,104.834 27.8317,146.834 18.4999,41.8338 46.6678,73.3319 84.6671,94.167 37.8335,20.9987 78.9995,31.5003 123.668,31.5003 56.1654,0 102.333,-14.168 138,-42.6675 35.8323,-28.4995 58.8322,-68.9999 68.8318,-121.333l-84.9988 -13.0004c-8.16641,34.8327 -22.5002,60.9993 -43.3331,78.6656 -20.667,17.5004 -45.6683,26.3347 -75.0015,26.3347 -44.3326,0 -80.3329,-15.8331 -108.167,-47.5014 -27.6658,-31.832 -41.4999,-81.8322 -41.4999,-150.498 0,-69.6677 13.3343,-120.168 40.0006,-151.668 26.8344,-31.5003 61.6672,-47.3334 104.5,-47.3334 34.6669,0 63.5004,10.5016 86.5003,31.6684 23.1658,20.9987 37.8335,53.4985 43.9987,97.3313z"
         id="glyph59" /><glyph
         unicode="R"
         horiz-adv-x="722"
         d="M78.9995 0l0 716 317.334 0c63.8343,0 112.333,-6.49907 145.501,-19.3336 33.1654,-12.8323 59.6659,-35.5006 79.4993,-68.0004 19.8334,-32.4998 29.6671,-68.5002 29.6671,-107.833 0,-50.8339 -16.5009,-93.6672 -49.3324,-128.5 -32.8337,-34.8327 -83.5018,-56.8332 -152.168,-66.333 25.1671,-12.0009 44.1668,-23.9995 57.1671,-35.6664 27.6658,-25.3329 53.8324,-57.1671 78.3339,-95.3323l123.832 -195.001 -118.332 0 -94.6667 148.999c-27.5,43.1672 -50.3341,76.001 -68.1662,98.8351 -18.0002,22.8319 -34.0013,38.665 -48.167,47.8331 -13.9999,9.00009 -28.4995,15.3333 -43.1672,18.9997 -10.6674,2.1671 -28.1656,3.33245 -52.6671,3.33245l-109.666 0 0 -317.999 -95.0006 0zm95.0006 400l203.333 0c43.3331,0 77.0005,4.50004 101.334,13.5001 24.3334,8.83425 42.8333,23.168 55.3317,43.0014 12.6687,19.6653 19.0019,40.9979 19.0019,64.1659 0,33.8332 -12.1667,61.833 -36.6682,83.6654 -24.4992,21.8346 -63.1664,32.6679 -115.999,32.6679l-226.333 0 0 -237.001z"
         id="glyph61" /><glyph
         unicode="A"
         horiz-adv-x="666"
         d="M-1.49927 0l274.666 716 104.167 0 291.499 -716 -107.833 0 -82.8317 216.999 -301.501 0 -77.6661 -216.999 -100.5 0zm206 294l244 0 -74.6675 198.499c-22.5002,60.3337 -39.4986,110.168 -51.3337,149.501 -9.83376,-46.6678 -23,-92.4996 -39.4986,-137.834l-78.4997 -210.166z"
         id="glyph63" /><glyph
         unicode="0"
         horiz-adv-x="556"
         d="M41.9997 353.334c0,84.4991 8.66617,152.833 26.0007,204.499 17.5004,51.8334 43.3331,91.6682 77.6661,119.5 34.1672,27.8339 77.3344,41.668 129.334,41.668 38.3333,0 72.0007,-7.66666 101.166,-23.168 29.0015,-15.4992 53.001,-37.8335 71.6668,-66.9986 18.668,-29.0015 33.3335,-64.4999 44.0009,-106.334 10.8333,-41.8338 16.167,-98.3331 16.167,-169.166 0,-84.0015 -8.66617,-152 -25.8349,-203.667 -17.1665,-51.8334 -42.9992,-91.666 -77.3322,-119.666 -34.1672,-28.002 -77.5002,-42.0019 -129.833,-42.0019 -68.8341,0 -123,24.5015 -162.333,73.668 -47.1675,59.9998 -70.6673,157.165 -70.6673,291.667zm90.0009 -0.333918c0,-117.833 13.666,-196.166 41.166,-234.834 27.5,-38.833 61.4991,-58.1666 101.834,-58.1666 40.3323,0 74.3336,19.4994 101.834,58.3325 27.5,39.0011 41.166,117.167 41.166,234.668 0,117.833 -13.666,196.166 -41.166,234.834 -27.3342,38.833 -61.6672,58.1666 -102.833,58.1666 -40.3345,0 -72.6663,-17.1665 -96.8338,-51.3337 -30.1669,-43.5012 -45.1663,-124.166 -45.1663,-241.667z"
         id="glyph65" /><glyph
         unicode="ù"
         horiz-adv-x="556"
         d="M404.999 0l0 77.1663c-40.3323,-58.8322 -94.9984,-88.1654 -164.166,-88.1654 -30.4985,0 -59.0003,5.83347 -85.4986,17.4982 -26.5005,11.835 -46.168,26.5005 -59.0003,44.1668 -12.8345,17.8343 -21.8346,39.5009 -27.0003,65.1677 -3.50053,17.3323 -5.33372,44.6665 -5.33372,82.0003l0 321.166 87.9996 0 0 -287.167c0,-45.8319 1.83318,-76.8324 5.33372,-92.6655 5.49955,-23.168 17.1665,-41.1682 35.1667,-54.3344 17.8343,-13.1662 39.8325,-19.8334 66.1672,-19.8334 26.3324,0 50.9997,6.66714 73.9997,20.1673 23,13.5001 39.3328,32.0001 49.0007,55.1659 9.49984,23.168 14.3316,57.0013 14.3316,101.168l0 277.499 88.0018 0 0 -519 -79.0017 0zm-74.9992 583l-71.0012 0 -112.999 137 118.001 0 65.9991 -137z"
         id="glyph67" /><glyph
         unicode="è"
         horiz-adv-x="556"
         d="M420.001 168.001l90.9981 -12.0009c-14.1657,-52.8329 -40.6662,-93.9989 -79.3334,-123.166 -38.665,-29.1674 -87.9996,-43.8328 -148.165,-43.8328 -75.6671,0 -135.667,23.3316 -179.999,69.9994 -44.3348,46.4997 -66.5011,111.999 -66.5011,196.166 0,87.0001 22.3344,154.667 67.1667,202.666 44.8323,48.167 102.999,72.1688 174.5,72.1688 69.1657,0 125.667,-23.502 169.5,-70.6673 43.8328,-47.1675 65.8333,-113.501 65.8333,-199.001 0,-5.16564 -0.165838,-12.9981 -0.499756,-23.3316l-386.499 0c3.33245,-56.8332 19.3336,-100.5 48.3329,-130.667 28.8334,-30.1669 64.9996,-45.3343 108.167,-45.3343 32.1659,0 59.6659,8.50033 82.332,25.501 22.8341,17.0007 40.8343,44.1668 54.1686,81.5005zm-288 140.998l289 0c-3.83445,43.667 -14.9994,76.3349 -33.1676,98.1673 -27.8339,33.8332 -64.1659,50.8339 -108.667,50.8339 -40.3323,0 -74.1655,-13.5001 -101.666,-40.5004 -27.3342,-27.0003 -42.5016,-63.1664 -45.5002,-108.501zm217.999 274.001l-70.9989 0 -113.001 137 118.001 0 65.9991 -137z"
         id="glyph69" /><glyph
         unicode="×"
         horiz-adv-x="583"
         d="M78.6656 199.667l153.835 153.833 -153.333 153.333 59.5001 59.5001 153.333 -153.167 152.833 152.833 58.6664 -59.1661 -152.499 -152.833 153.333 -153.333 -59.5001 -59.5001 -153.333 153.333 -153.835 -153.833 -59.0003 59.0003z"
         id="glyph71" /><glyph
         unicode="Æ"
         horiz-adv-x="1000"
         d="M0.499756 0l344.166 716 588.334 0 0 -83.9993 -360.998 0 0 -221 335.999 0 0 -84.0015 -335.999 0 0 -243 373.999 0 0 -83.9993 -468.999 0 0 207 -274.5 0 -99.5007 -207 -102.499 0zm242.334 290.999l234.166 0 0 341.001 -70.1675 0 -163.998 -341.001z"
         id="glyph73" /><glyph
         unicode="µ"
         horiz-adv-x="576"
         d="M496.999 519l0 -519 -78 0 0 63.0006c-16.9984,-26.1666 -33.8332,-44.1668 -50.3319,-53.8347 -22.8341,-13.5001 -49.5005,-20.165 -79.8332,-20.165 -27.1683,0 -50.9997,5.33147 -72.0007,16.1647 -15.6672,8.16865 -32.8337,24.1676 -51.8334,48.3351l0 -252.5 -87.9996 0 0 717.999 87.9996 0 0 -219.166c0,-79.4993 4.16613,-131.001 12.6665,-154.667 8.50033,-23.4997 22.3344,-41.9997 41.3341,-55.6656 19.1655,-13.6682 41.0001,-20.5012 65.8333,-20.5012 25.9985,0 49.3324,7.1669 69.9994,21.5007 20.4989,14.1657 35.0008,32.6656 43.5012,55.1659 8.49809,22.6661 12.6665,73.4999 12.6665,152.668l0 220.666 85.9983 0z"
         id="glyph75" /><glyph
         unicode="¤"
         horiz-adv-x="556"
         d="M104.001 469.333l-68.0004 66.4989 56.3335 58.1666 67.8323 -67.9982c34.5011,23.3316 73.0002,34.9986 115.668,34.9986 42.8333,0 81.5005,-11.6669 115.665,-34.9986l67.8346 67.9982 56.6651 -58.1666 -67.9982 -66.4989c23.3316,-35.8323 34.9986,-74.1678 34.9986,-114.834 0,-41.0001 -11.6669,-79.4993 -34.9986,-115.334l67.9982 -66.4989 -56.6651 -58.6664 -67.8346 68.9999c-34.1649,-23.9995 -72.8321,-36.0003 -115.665,-36.0003 -42.6675,0 -81.1666,12.0009 -115.668,36.0003l-67.8323 -68.9999 -56.3335 58.6664 68.0004 66.4989c-23.3339,35.8345 -35.0008,74.3336 -35.0008,115.334 0,40.6662 11.6669,79.0017 35.0008,114.834zm44.9982 -115c0,-35.3325 12.3348,-65.3335 37.1679,-90.1667 24.6673,-24.8332 54.5003,-37.1679 89.333,-37.1679 34.8327,0 64.6657,12.3348 89.333,37.1679 24.8332,24.8332 37.1679,54.8342 37.1679,90.1667 0,34.8327 -12.3348,64.6657 -36.834,89.4989 -24.6673,24.8354 -54.5003,37.1679 -89.6669,37.1679 -34.8327,0 -64.6657,-12.3325 -89.333,-37.1679 -24.8332,-24.8332 -37.1679,-54.6661 -37.1679,-89.4989z"
         id="glyph77" /><glyph
         unicode=""
         horiz-adv-x="750"
         d="M124.999 0l0 624.999 500 0 0 -624.999 -500 0zm16.0011 15.9989l468 0 0 593.002 -468 0 0 -593.002z"
         id="glyph79" /><glyph
         unicode=""
         horiz-adv-x="750"
         d="M124.999 0l0 624.999 500 0 0 -624.999 -500 0zm16.0011 15.9989l468 0 0 593.002 -468 0 0 -593.002z"
         id="glyph81" /><glyph
         unicode="q"
         horiz-adv-x="556"
         d="M396.499 -198.999l0 254.665c-13.666,-19.1655 -32.8315,-34.9986 -57.333,-47.665 -24.4992,-12.6665 -50.6658,-18.9997 -78.3317,-18.9997 -61.5013,0 -114.334,24.4992 -158.835,73.6658 -44.3326,49.0007 -66.4989,116.333 -66.4989,201.666 0,52.0015 9.00009,98.667 27.0003,140.001 18.166,41.166 44.3326,72.5004 78.6656,93.6672 34.333,21.3326 72.0007,32.0001 113.001,32.0001 64.1659,0 114.5,-26.8344 151.332,-80.6668l0 69.6655 79.0017 0 0 -717.999 -88.0018 0zm-271 459.999c0,-66.667 13.9999,-116.667 42.0019,-150.001 27.9998,-33.3335 61.4991,-50.0002 100.666,-50.0002 37.4996,0 69.6655,15.8331 96.8338,47.5014 26.998,31.832 40.4981,79.999 40.4981,144.667 0,68.9999 -14.3316,120.833 -42.8333,155.666 -28.4995,34.8327 -61.833,52.1673 -100.332,52.1673 -38.1674,0 -70.5014,-16.167 -96.9997,-48.501 -26.5005,-32.334 -39.8348,-82.834 -39.8348,-151.5z"
         id="glyph83" /><glyph
         unicode="`"
         horiz-adv-x="333"
         d="M225.999 583l-70.9989 0 -113.001 137 118.001 0 65.9991 -137z"
         id="glyph85" /><glyph
         unicode="O"
         horiz-adv-x="777"
         d="M47.999 348.5c0,118.666 32.0001,211.666 95.8343,278.832 63.8343,67.1667 146.166,100.668 247.166,100.668 66.1672,0 125.667,-15.8331 178.834,-47.3334 52.9988,-31.5003 93.4991,-75.5012 121.333,-132.001 27.8339,-56.3335 41.8338,-120.334 41.8338,-191.834 0,-72.4982 -14.6677,-137.5 -44.0009,-194.665 -29.3332,-57.333 -70.8331,-100.668 -124.5,-130.001 -53.8324,-29.499 -111.833,-44.1668 -174,-44.1668 -67.5006,0 -127.666,16.3351 -180.833,48.8349 -53.001,32.4998 -93.3333,76.8324 -120.667,133.166 -27.3319,56.1676 -41.0001,115.668 -41.0001,178.5zm98.0014 -1.66735c0,-86.1664 23.1658,-153.999 69.4997,-203.499 46.3339,-49.5005 104.5,-74.3336 174.5,-74.3336 71.3328,0 129.833,24.999 175.999,74.9992 45.9999,50.0002 68.9999,121.001 68.9999,213.001 0,58.1666 -9.83152,109.001 -29.499,152.334 -19.6675,43.3331 -48.501,76.9982 -86.3322,100.832 -38.0016,23.8336 -80.501,35.8345 -127.669,35.8345 -66.9986,0 -124.666,-23 -172.998,-68.9999 -48.3351,-45.9999 -72.5004,-122.666 -72.5004,-230.168z"
         id="glyph87" /><glyph
         unicode="&gt;"
         horiz-adv-x="583"
         d="M528 312.999l-472 -202.999 0 87.9996 373.002 155.5 -373.002 153.501 0 87.9996 472 -200.001 0 -82.0003z"
         id="glyph89" /><glyph
         unicode="-"
         horiz-adv-x="333"
         d="M31.0005 215l0 87.9996 271.999 0 0 -87.9996 -271.999 0z"
         id="glyph91" /><glyph
         unicode="ö"
         horiz-adv-x="556"
         d="M32.9996 259.501c0,95.8321 26.6663,166.833 80.1671,212.999 44.5007,38.3333 99.0009,57.501 163.167,57.501 71.167,0 129.499,-23.3339 174.834,-70.0017 45.1663,-46.4997 67.8323,-111 67.8323,-193.166 0,-66.667 -9.9996,-119 -29.9988,-157.168 -20.0014,-38.1652 -49.1666,-67.8323 -87.4998,-88.9991 -38.1674,-21.1668 -80.0013,-31.6661 -125.168,-31.6661 -72.6663,0 -131.333,23.1658 -176.167,69.6655 -44.8323,46.4997 -67.1667,113.501 -67.1667,200.835zm90.0009 -0.168079c0,-66.333 14.4996,-115.999 43.4989,-148.833 29.1674,-32.9996 65.6675,-49.5005 109.834,-49.5005 43.667,0 79.999,16.5009 109.166,49.6663 28.9993,33.1676 43.5012,83.6676 43.5012,151.5 0,64.0001 -14.6677,112.501 -43.8351,145.335 -29.1651,32.9996 -65.4994,49.5005 -108.832,49.5005 -44.1668,0 -80.6668,-16.3351 -109.834,-49.1666 -28.9993,-32.8337 -43.4989,-82.3342 -43.4989,-148.501zm24.999 323.667l0 100 91.9999 0 0 -100 -91.9999 0zm182.001 0l0 100 91.9999 0 0 -100 -91.9999 0z"
         id="glyph93" /><glyph
         unicode="å"
         horiz-adv-x="556"
         d="M404.999 64.9996c-32.6656,-27.8339 -64.1659,-47.3334 -94.3328,-58.8322 -30.1669,-11.5011 -62.5008,-17.1665 -97.1655,-17.1665 -57.0013,0 -100.834,13.8318 -131.501,41.6657 -30.6666,27.6658 -45.9999,63.1664 -45.9999,106.334 0,25.3329 5.83347,48.4987 17.3323,69.4997 11.6669,21.0009 26.8344,37.6677 45.5002,50.3341 18.8338,12.6665 39.8348,22.3321 63.3345,28.8334 17.3323,4.50004 43.4989,8.83201 78.3317,13.1662 71.0012,8.33225 123.5,18.4999 157.002,30.1669 0.331676,11.9986 0.499756,19.6653 0.499756,22.8319 0,35.6664 -8.33449,60.8335 -25.0012,75.5012 -22.5002,19.8334 -55.9995,29.6671 -100.332,29.6671 -41.4999,0 -72.1665,-7.33498 -91.834,-21.8346 -19.8334,-14.4996 -34.333,-40.1665 -43.8328,-77.1663l-86.0006 12.0009c7.83249,36.8318 20.667,66.667 38.6672,89.333 18.0002,22.6661 43.9987,40.0006 78,52.3332 33.8332,12.1667 73.3341,18.3341 118.001,18.3341 44.3326,0 80.4988,-5.16788 108.333,-15.6672 27.6658,-10.4994 48.167,-23.4997 61.1674,-39.3328 12.9981,-15.8353 22.1663,-35.8345 27.5,-60.0021 2.8327,-14.9994 4.33196,-41.9997 4.33196,-80.8327l0 -116.667c0,-81.4983 1.83318,-133 5.49955,-154.832 3.50053,-21.8324 10.8333,-42.6675 21.5007,-62.6667l-91.9999 0c-8.83425,18.4999 -14.4996,40.1665 -17.0007,64.9996zm-6.99882 195.001c-32.0001,-13.0004 -80.0013,-24.0017 -144.001,-33.0018 -36.332,-5.16564 -61.9988,-10.9991 -76.9982,-17.4982 -15.0016,-6.50131 -26.5005,-16.0011 -34.6669,-28.3337 -8.16641,-12.5006 -12.3348,-26.3347 -12.3348,-41.668 0,-23.1658 8.83425,-42.6652 26.6663,-58.1666 17.8343,-15.4992 43.8351,-23.3316 78,-23.3316 33.8355,0 64.0001,7.33274 90.5006,22.1663 26.3347,14.6655 45.8341,34.8327 58.1666,60.3337 9.49984,19.8334 14.168,48.9985 14.168,87.4998l0.499756 32.0001zm-200.501 414.499c0,23.8336 8.66617,44.3326 26.0007,61.6672 17.3323,17.1665 37.8335,25.8327 61.4991,25.8327 23.9995,0 44.5007,-8.66617 61.833,-26.1666 17.1665,-17.5004 25.6668,-38.4991 25.6668,-63.3323 0,-25.1671 -8.50033,-46.3339 -25.6668,-63.5004 -17.3323,-17.3346 -37.6654,-26.0007 -61.3332,-26.0007 -24.3334,0 -45.0004,8.66617 -62.1669,26.1666 -17.1665,17.5004 -25.8327,39.167 -25.8327,65.3335zm36.9999 -0.499756c0,-15.3333 5.16788,-27.9998 15.3333,-38.4991 10.1677,-10.3335 22.3344,-15.5014 36.1662,-15.5014 13.9999,0 26.0007,5.16788 36.1684,15.5014 10.1654,10.4994 15.3333,23 15.3333,37.4996 0,14.6655 -5.00204,27.0003 -15.0016,37.4996 -10.1654,10.3335 -22.1663,15.4992 -36.5001,15.4992 -13.8318,0 -25.9985,-5.16564 -36.1662,-15.3333 -10.1654,-10.1654 -15.3333,-22.5002 -15.3333,-36.6659z"
         id="glyph95" /><glyph
         unicode="Ô"
         horiz-adv-x="777"
         d="M47.999 348.5c0,118.666 32.0001,211.666 95.8343,278.832 63.8343,67.1667 146.166,100.668 247.166,100.668 66.1672,0 125.667,-15.8331 178.834,-47.3334 52.9988,-31.5003 93.4991,-75.5012 121.333,-132.001 27.8339,-56.3335 41.8338,-120.334 41.8338,-191.834 0,-72.4982 -14.6677,-137.5 -44.0009,-194.665 -29.3332,-57.333 -70.8331,-100.668 -124.5,-130.001 -53.8324,-29.499 -111.833,-44.1668 -174,-44.1668 -67.5006,0 -127.666,16.3351 -180.833,48.8349 -53.001,32.4998 -93.3333,76.8324 -120.667,133.166 -27.3319,56.1676 -41.0001,115.668 -41.0001,178.5zm98.0014 -1.66735c0,-86.1664 23.1658,-153.999 69.4997,-203.499 46.3339,-49.5005 104.5,-74.3336 174.5,-74.3336 71.3328,0 129.833,24.999 175.999,74.9992 45.9999,50.0002 68.9999,121.001 68.9999,213.001 0,58.1666 -9.83152,109.001 -29.499,152.334 -19.6675,43.3331 -48.501,76.9982 -86.3322,100.832 -38.0016,23.8336 -80.501,35.8345 -127.669,35.8345 -66.9986,0 -124.666,-23 -172.998,-68.9999 -48.3351,-45.9999 -72.5004,-122.666 -72.5004,-230.168zm244 496.168l-54.5003 -82.9998 -100 0 104.5 137 92.9994 0 111.502 -137 -100 0 -54.5003 82.9998z"
         id="glyph97" /><glyph
         unicode="Ã"
         horiz-adv-x="666"
         d="M-1.49927 0l274.666 716 104.167 0 291.499 -716 -107.833 0 -82.8317 216.999 -301.501 0 -77.6661 -216.999 -100.5 0zm206 294l244 0 -74.6675 198.499c-22.5002,60.3337 -39.4986,110.168 -51.3337,149.501 -9.83376,-46.6678 -23,-92.4996 -39.4986,-137.834l-78.4997 -210.166zm-41.4999 464.999c-0.333918,33.5016 8.99784,60.1679 27.8317,80.1671 18.4999,19.8334 42.3336,29.833 71.3328,29.833 20.1673,0 47.6673,-8.49809 82.3342,-25.6646 19.1678,-9.50208 34.5011,-14.3338 45.8341,-14.3338 10.4994,0 18.4999,2.8327 23.9995,8.50033 5.49955,5.49955 9.334,16.8326 11.6669,33.4993l63.0006 0c-1.00175,-36.9999 -10.3335,-64.6679 -27.9998,-83.1679 -17.6685,-18.4999 -40.0006,-27.8317 -67.3348,-27.8317 -20.3331,0 -47.3334,9.16592 -80.6668,27.3319 -21.8324,11.835 -37.8335,17.6663 -47.999,17.6663 -11.0013,0 -20.0014,-3.83221 -26.6663,-11.6647 -7.1669,-7.66666 -10.6674,-19.1678 -10.3335,-34.3352l-64.9996 0z"
         id="glyph99" /><glyph
         unicode="²"
         horiz-adv-x="333"
         d="M12.0009 358c1.99902,18.4999 9.66568,37.1657 23,55.6679 20.4989,27.9998 54.3322,58.9981 101.332,92.9994 46.8336,33.9991 74.8334,55.8337 83.5018,65.6652 12.1667,13.3343 18.166,27.0003 18.166,41.0001 0,15.6672 -5.66763,28.5018 -17.0007,38.5014 -11.333,10.1654 -27.9998,15.1652 -50.1661,15.1652 -21.3326,0 -37.3338,-3.83221 -47.8331,-11.4989 -10.4994,-7.66666 -19.1678,-22.5002 -26.0007,-44.5007l-73.9997 8.00057c9.334,36.3343 25.6668,63.0006 48.8326,80.1671 23.3339,17.1665 56.6674,25.8327 100,25.8327 49.0007,0 85.0011,-9.66568 107.833,-28.9993 22.8341,-19.1678 34.333,-42.8333 34.333,-70.6673 0,-27.3342 -9.49984,-53.3327 -28.6654,-78 -14.4996,-18.166 -47.6673,-46.1658 -99.3326,-83.8335 -27.0003,-19.8334 -45.9999,-35.6664 -57.3352,-47.4992l186.335 0 0 -58.0008 -303 0z"
         id="glyph101" /><glyph
         unicode="¡"
         horiz-adv-x="333"
         d="M218.333 519l0 -100 -101 0 0 100 101 0zm-23 -178l27.0003 -379.167 0 -158.833 -109.001 0 0 158.833 25.0012 379.167 56.999 0z"
         id="glyph103" /><glyph
         unicode=""
         horiz-adv-x="750"
         d="M124.999 0l0 624.999 500 0 0 -624.999 -500 0zm16.0011 15.9989l468 0 0 593.002 -468 0 0 -593.002z"
         id="glyph105" /><glyph
         unicode=""
         horiz-adv-x="750"
         d="M124.999 0l0 624.999 500 0 0 -624.999 -500 0zm16.0011 15.9989l468 0 0 593.002 -468 0 0 -593.002z"
         id="glyph107" /><glyph
         unicode="n"
         horiz-adv-x="556"
         d="M65.9991 0l0 519 79.0017 0 0 -73.6658c37.9994,56.4993 92.9994,84.6671 164.832,84.6671 31.3345,0 59.9998,-5.66763 86.1664,-16.8348 26.1666,-11.1672 45.8341,-25.9985 58.8345,-44.1668 13.0004,-18.166 22.1663,-39.8325 27.3319,-64.8338 3.16661,-16.3328 4.83396,-44.8323 4.83396,-85.4986l0 -318.667 -87.9996 0 0 315.332c0,35.8345 -3.33245,62.6667 -10.1677,80.3352 -6.83298,17.6663 -18.9997,31.832 -36.332,42.4994 -17.3346,10.4994 -37.8335,15.8331 -61.1674,15.8331 -37.3338,0 -69.4997,-11.8328 -96.6658,-35.6664 -27.1661,-23.6678 -40.6662,-68.8341 -40.6662,-135.167l0 -283.167 -88.0018 0z"
         id="glyph109" /><glyph
         unicode="]"
         horiz-adv-x="277"
         d="M212.999 -198.999l-193.999 0 0 73.0002 106 0 0 768.999 -106 0 0 73.0002 193.999 0 0 -914.999z"
         id="glyph111" /><glyph
         unicode="L"
         horiz-adv-x="556"
         d="M73.0002 0l0 716 95.0006 0 0 -632.001 351.998 0 0 -83.9993 -446.999 0z"
         id="glyph113" /><glyph
         unicode=";"
         horiz-adv-x="277"
         d="M88.9991 418.999l0 100 100 0 0 -100 -100 0zm0 -418.999l0 100 100 0 0 -100c0,-36.834 -6.49907,-66.667 -19.6653,-89.333 -13.0004,-22.6661 -33.8332,-40.3345 -62.335,-52.6671l-23.9995 37.6677c18.6658,8.16641 32.334,20.165 41.0001,35.9981 8.83425,15.8353 13.834,38.6672 14.8336,68.3343l-49.8344 0z"
         id="glyph115" /><glyph
         unicode="*"
         horiz-adv-x="389"
         d="M31.0005 585.001l22.3321 68.9999c51.6676,-18.1682 89.0013,-33.8332 112.501,-47.1675 -6.16739,58.6664 -9.49984,99.1668 -9.83376,121.167l70.9989 0c-0.999511,-32.1681 -4.66588,-72.3346 -11.333,-120.667 33.5016,16.8326 71.8348,32.4998 115,46.6678l22.3344 -68.9999c-41.166,-13.6682 -81.5005,-22.8341 -121.167,-27.3342 19.8334,-17.1665 47.6673,-48.0012 83.6676,-92.168l-58.3347 -41.4999c-18.8316,25.6668 -41.166,60.6677 -66.8328,104.834 -24.1653,-45.8341 -45.3321,-80.8327 -63.5004,-104.834l-57.333 41.4999c37.4996,46.5019 64.4999,77.1686 80.6668,92.168 -41.8338,8.16641 -81.5005,17.3323 -119.166,27.3342z"
         id="glyph117" /><glyph
         unicode="ó"
         horiz-adv-x="556"
         d="M32.9996 259.501c0,95.8321 26.6663,166.833 80.1671,212.999 44.5007,38.3333 99.0009,57.501 163.167,57.501 71.167,0 129.499,-23.3339 174.834,-70.0017 45.1663,-46.4997 67.8323,-111 67.8323,-193.166 0,-66.667 -9.9996,-119 -29.9988,-157.168 -20.0014,-38.1652 -49.1666,-67.8323 -87.4998,-88.9991 -38.1674,-21.1668 -80.0013,-31.6661 -125.168,-31.6661 -72.6663,0 -131.333,23.1658 -176.167,69.6655 -44.8323,46.4997 -67.1667,113.501 -67.1667,200.835zm90.0009 -0.168079c0,-66.333 14.4996,-115.999 43.4989,-148.833 29.1674,-32.9996 65.6675,-49.5005 109.834,-49.5005 43.667,0 79.999,16.5009 109.166,49.6663 28.9993,33.1676 43.5012,83.6676 43.5012,151.5 0,64.0001 -14.6677,112.501 -43.8351,145.335 -29.1651,32.9996 -65.4994,49.5005 -108.832,49.5005 -44.1668,0 -80.6668,-16.3351 -109.834,-49.1666 -28.9993,-32.8337 -43.4989,-82.3342 -43.4989,-148.501zm79.999 323.667l64.0001 137 115.999 0 -106.999 -137 -73.0002 0z"
         id="glyph119" /><glyph
         unicode="â"
         horiz-adv-x="556"
         d="M404.999 64.9996c-32.6656,-27.8339 -64.1659,-47.3334 -94.3328,-58.8322 -30.1669,-11.5011 -62.5008,-17.1665 -97.1655,-17.1665 -57.0013,0 -100.834,13.8318 -131.501,41.6657 -30.6666,27.6658 -45.9999,63.1664 -45.9999,106.334 0,25.3329 5.83347,48.4987 17.3323,69.4997 11.6669,21.0009 26.8344,37.6677 45.5002,50.3341 18.8338,12.6665 39.8348,22.3321 63.3345,28.8334 17.3323,4.50004 43.4989,8.83201 78.3317,13.1662 71.0012,8.33225 123.5,18.4999 157.002,30.1669 0.331676,11.9986 0.499756,19.6653 0.499756,22.8319 0,35.6664 -8.33449,60.8335 -25.0012,75.5012 -22.5002,19.8334 -55.9995,29.6671 -100.332,29.6671 -41.4999,0 -72.1665,-7.33498 -91.834,-21.8346 -19.8334,-14.4996 -34.333,-40.1665 -43.8328,-77.1663l-86.0006 12.0009c7.83249,36.8318 20.667,66.667 38.6672,89.333 18.0002,22.6661 43.9987,40.0006 78,52.3332 33.8332,12.1667 73.3341,18.3341 118.001,18.3341 44.3326,0 80.4988,-5.16788 108.333,-15.6672 27.6658,-10.4994 48.167,-23.4997 61.1674,-39.3328 12.9981,-15.8353 22.1663,-35.8345 27.5,-60.0021 2.8327,-14.9994 4.33196,-41.9997 4.33196,-80.8327l0 -116.667c0,-81.4983 1.83318,-133 5.49955,-154.832 3.50053,-21.8324 10.8333,-42.6675 21.5007,-62.6667l-91.9999 0c-8.83425,18.4999 -14.4996,40.1665 -17.0007,64.9996zm-6.99882 195.001c-32.0001,-13.0004 -80.0013,-24.0017 -144.001,-33.0018 -36.332,-5.16564 -61.9988,-10.9991 -76.9982,-17.4982 -15.0016,-6.50131 -26.5005,-16.0011 -34.6669,-28.3337 -8.16641,-12.5006 -12.3348,-26.3347 -12.3348,-41.668 0,-23.1658 8.83425,-42.6652 26.6663,-58.1666 17.8343,-15.4992 43.8351,-23.3316 78,-23.3316 33.8355,0 64.0001,7.33274 90.5006,22.1663 26.3347,14.6655 45.8341,34.8327 58.1666,60.3337 9.49984,19.8334 14.168,48.9985 14.168,87.4998l0.499756 32.0001zm-122.001 405.999l-54.5003 -82.9998 -100 0 104.5 137 93.0016 0 111.499 -137 -100 0 -54.5003 82.9998z"
         id="glyph121" /><glyph
         unicode="Ñ"
         horiz-adv-x="722"
         d="M76.001 0l0 716 97.3313 0 375.668 -561.999 0 561.999 91.0004 0 0 -716 -97.3336 0 -375.668 562.001 0 -562.001 -90.9981 0zm133 758.999c-0.333918,33.5016 9.00009,60.1679 27.8317,80.1671 18.4999,19.8334 42.3336,29.833 71.3351,29.833 20.165,0 47.665,-8.49809 82.332,-25.6646 19.1678,-9.50208 34.5011,-14.3338 45.8341,-14.3338 10.4994,0 18.4999,2.8327 23.9995,8.50033 5.49955,5.49955 9.334,16.8326 11.6669,33.4993l63.0006 0c-1.00175,-36.9999 -10.3335,-64.6679 -27.9998,-83.1679 -17.6685,-18.4999 -40.0006,-27.8317 -67.3348,-27.8317 -20.3331,0 -47.3334,9.16592 -80.6668,27.3319 -21.8324,11.835 -37.8335,17.6663 -47.999,17.6663 -11.0013,0 -20.0014,-3.83221 -26.6663,-11.6647 -7.1669,-7.66666 -10.6674,-19.1678 -10.3335,-34.3352l-64.9996 0z"
         id="glyph123" /><glyph
         unicode="À"
         horiz-adv-x="666"
         d="M-1.49927 0l274.666 716 104.167 0 291.499 -716 -107.833 0 -82.8317 216.999 -301.501 0 -77.6661 -216.999 -100.5 0zm206 294l244 0 -74.6675 198.499c-22.5002,60.3337 -39.4986,110.168 -51.3337,149.501 -9.83376,-46.6678 -23,-92.4996 -39.4986,-137.834l-78.4997 -210.166zm189.499 466.001l-71.0012 0 -112.999 137 118.001 0 65.9991 -137z"
         id="glyph125" /><glyph
         unicode="¯"
         horiz-adv-x="552"
         d="M-14.9994 765.001l0 63.0006 582 0 0 -63.0006 -582 0z"
         id="glyph127" /><glyph
         unicode=""
         horiz-adv-x="750"
         d="M124.999 0l0 624.999 500 0 0 -624.999 -500 0zm16.0011 15.9989l468 0 0 593.002 -468 0 0 -593.002z"
         id="glyph129" /><glyph
         unicode=""
         horiz-adv-x="750"
         d="M124.999 0l0 624.999 500 0 0 -624.999 -500 0zm16.0011 15.9989l468 0 0 593.002 -468 0 0 -593.002z"
         id="glyph131" /><glyph
         unicode="|"
         horiz-adv-x="259"
         d="M91.9999 -210l0 938.001 77.0005 0 0 -938.001 -77.0005 0z"
         id="glyph133" /><glyph
         unicode="k"
         horiz-adv-x="500"
         d="M66.333 0l0 716 87.9996 0 0 -407.832 208.001 210.832 113.666 0 -198 -192.834 217.999 -326.166 -108.333 0 -172.333 265.166 -61.0016 -59.332 0 -205.834 -87.9996 0z"
         id="glyph135" /><glyph
         unicode="Z"
         horiz-adv-x="610"
         d="M19.9992 0l0 87.4998 366.668 459c26.3324,32.334 50.9997,60.8335 74.4995,85.5008l-399.166 0 0 83.9993 511.999 0 0 -83.9993 -402.167 -496.668 -42.9992 -51.3337 457.167 0 0 -83.9993 -566.001 0z"
         id="glyph137" /><glyph
         unicode="I"
         horiz-adv-x="277"
         d="M92.9994 0l0 716 95.0006 0 0 -716 -95.0006 0z"
         id="glyph139" /><glyph
         unicode="8"
         horiz-adv-x="556"
         d="M177.501 388.167c-36.5001,13.3343 -63.5004,32.4998 -81.1666,57.1671 -17.5004,24.8332 -26.3347,54.5003 -26.3347,88.9991 0,52.1673 18.668,95.8343 55.9995,131.333 37.5018,35.5006 87.1682,53.3349 149.335,53.3349 62.3328,0 112.667,-18.1682 150.666,-54.5003 37.9994,-36.3343 56.999,-80.501 56.999,-132.666 0,-33.1676 -8.66617,-62.1669 -25.9985,-86.6684 -17.3346,-24.6651 -43.667,-43.6648 -79.1676,-56.999 43.8328,-14.3338 77.0005,-37.3338 99.8324,-69.3338 22.8341,-31.832 34.3352,-69.8336 34.3352,-114.166 0,-61.1674 -21.6665,-112.501 -64.8338,-154.167 -43.3331,-41.6657 -100.166,-62.5008 -170.668,-62.5008 -70.4992,0 -127.332,20.8351 -170.665,62.6667 -43.1672,41.8338 -64.8338,94.0011 -64.8338,156.5 0,46.5019 11.8328,85.5008 35.5006,116.835 23.6656,31.5003 57.333,52.8329 101,64.1659zm-17.5004 149.333c0,-33.9991 10.8333,-61.6672 32.334,-83.1656 21.6665,-21.5007 49.998,-32.334 85.1647,-32.334 34.1672,0 61.8352,10.6674 83.3337,32.0001 21.5007,21.3326 32.1681,47.4992 32.1681,78.4997 0,32.334 -11.0013,59.5001 -33.1676,81.5005 -22.0005,22.0005 -49.8321,32.9996 -83.3337,32.9996 -33.8332,0 -61.6649,-10.8333 -83.6654,-32.334 -21.8346,-21.4985 -32.8337,-47.1653 -32.8337,-77.1663zm-28.9993 -331c0,-25.1671 5.83123,-49.3324 17.4982,-72.8344 11.6669,-23.3316 29.3332,-41.4999 53.001,-54.3322 23.4997,-12.8345 48.8326,-19.3336 75.6671,-19.3336 42.3336,0 77.0005,13.5001 104.167,40.5004 27.1661,27.0003 40.6662,61.3332 40.6662,102.999 0,42.3336 -13.9999,77.3344 -41.8338,105 -27.9998,27.6681 -63.3323,41.4999 -105.834,41.4999 -41.6657,0 -75.8329,-13.666 -102.833,-41.0001 -26.998,-27.3319 -40.4981,-61.4991 -40.4981,-102.499z"
         id="glyph141" /><glyph
         unicode="'"
         horiz-adv-x="191"
         d="M67.5006 463l-22.5002 133.5 0 119.5 100 0 0 -119.5 -23.502 -133.5 -53.9983 0z"
         id="glyph143" /><glyph
         unicode="ð"
         horiz-adv-x="556"
         d="M151 716l106.166 0c22.6683,-18.4999 42.8333,-34.8327 60.3337,-49.0007l105.5 49.0007 21.8346 -49.8321 -84.8352 -39.5009c104.001,-119.666 156,-243.5 156,-371 0,-82.3342 -22.6661,-147.5 -67.8323,-195.167 -45.1663,-47.6673 -102.667,-71.4987 -172.667,-71.4987 -82.834,0 -147.665,31.4981 -194.167,94.3328 -30.1669,41.3341 -45.3321,97.6653 -45.3321,169.5 0,84.6671 20.9987,149.998 63.1664,196.001 41.9997,46.1658 94.6667,69.1657 157.999,69.1657 19.0019,0 35.5006,-2.00126 49.8344,-5.83347 14.4996,-3.83445 32.334,-11.5011 53.8324,-22.8341 -11.6669,24.0017 -21.9982,42.6675 -30.8325,55.8337 -8.66617,13.3343 -21.8324,29.833 -39.0011,49.3346l-134.165 -62.5008 -21.5007 50.3341 115.999 53.8324c-33.1654,26.5005 -66.6647,53.001 -100.332,79.8332zm275 -457.001c0,62.1669 -14.8336,109.668 -44.3326,142.668 -29.5013,32.8337 -65.8333,49.3324 -108.835,49.3324 -42.4994,0 -77.5002,-16.4987 -105.166,-49.3324 -27.8339,-32.9996 -41.668,-83.3337 -41.668,-151 0,-62.8325 14.3338,-110.166 42.8333,-142 28.5018,-31.8342 64.1682,-47.6673 107.002,-47.6673 41.6657,0 77.1663,16.8348 106.334,50.3341 29.1651,33.4993 43.8328,82.6659 43.8328,147.665z"
         id="glyph145" /><glyph
         unicode="ß"
         horiz-adv-x="610"
         d="M74.9992 0l0 487.833c0,59.5001 7.33498,105.334 21.8346,137.334 14.6655,32.1659 38.833,57.333 73.0002,75.499 33.9991,18.166 72.3324,27.3342 114.832,27.3342 56.6674,0 101,-13.9999 132.668,-42.1677 31.832,-28.1656 47.665,-60.6654 47.665,-97.6653 0,-16.6667 -2.99853,-33.6674 -8.83201,-51.1678 -5.83347,-17.5004 -16.167,-39.5009 -31.0005,-65.6675 -14.9994,-26.1666 -24.3334,-44.3326 -28.3337,-54.498 -3.83221,-10.3335 -5.83347,-19.3336 -5.83347,-27.1683 0,-10.3335 3.66637,-20.667 10.8333,-30.6666 6.83298,-10.4994 26.3347,-26.1666 58.8345,-47.3334 44.1668,-28.9993 73.4999,-52.1651 88.1654,-69.6655 20.8351,-25.0012 31.1664,-54.6661 31.1664,-88.6674 0,-45.1663 -16.6667,-83.8335 -50.1661,-115.999 -33.3335,-32.1681 -76.1668,-48.3329 -128.332,-48.3329 -41.0001,0 -77.1686,10.9991 -108.001,32.8315 -31.0005,22.0005 -54.1663,50.1683 -69.4997,84.5013l75.9987 35.1667c16.167,-30.3327 32.334,-51.1678 48.6668,-63.0006 16.3351,-11.6669 33.5016,-17.5004 51.3337,-17.5004 24.8332,0 45.9999,8.50033 63.6662,25.3329 17.5004,17.0007 26.3347,36.834 26.3347,59.6681 0.333918,18.166 -4.83396,33.8332 -15.1675,46.8336 -6.66714,8.50033 -24.8332,23 -54.1663,43.3331 -54.1663,36.6659 -87.4998,64.1659 -100.166,82.6659 -13.0004,18.668 -19.4994,37.6677 -19.4994,57.1671 0,12.6665 2.16486,25.501 6.49907,38.4991 4.50004,13.1685 14.9994,33.8332 31.6661,62.5008 16.6667,28.6676 27.6681,50.1661 32.8337,64.334 5.16788,14.3316 8.16641,27.0003 9.00009,38.1652 0,20.1673 -9.00009,37.8335 -26.8322,53.3349 -17.8343,15.4992 -41.668,23.1658 -71.3351,23.1658 -35.1667,0 -63.832,-10.6674 -86.1664,-32.1659 -22.5002,-21.5007 -33.6652,-68.0004 -33.6652,-139.667l0 -484.167 -88.0018 0z"
         id="glyph147" /><glyph
         unicode="Î"
         horiz-adv-x="277"
         d="M92.9994 0l0 716 95.0006 0 0 -716 -95.0006 0zm47.0017 843.001l-54.5003 -82.9998 -100 0 104.5 137 92.9994 0 111.499 -137 -100 0 -54.498 82.9998z"
         id="glyph149" /><glyph
         unicode="½"
         horiz-adv-x="834"
         d="M111.333 -27.9998l537.665 756 76.6688 0 -537.668 -756 -76.6666 0zm50.6658 386l0 271.166c-33.1654,-26.3324 -69.4997,-44.8323 -108.998,-55.1659l0 59.9998c20.165,6.50131 42.4994,18.3341 67.1667,35.5006 24.6651,17.1665 44.6665,35.6664 59.9998,55.4998l52.8329 0 0 -367 -71.0012 0zm351.001 -372.999c1.99902,18.3318 9.83376,36.6659 23.6656,55.3317 20.5012,28.3337 54.1663,59.3342 100.834,93.3333 46.8336,33.8355 74.6675,55.8337 83.4995,66.0014 12.0009,13.332 18.0002,27.0003 18.0002,41.0001 0,15.6672 -5.66539,28.4995 -16.8326,38.4991 -11.1672,9.83376 -27.8339,14.8336 -50.3341,14.8336 -21.3326,0 -37.3338,-3.66637 -47.8331,-11.1672 -10.4994,-7.49858 -19.1655,-21.8324 -26.0007,-42.8333l-73.9997 7.1669c9.334,36.0003 25.8349,62.5008 49.1666,79.5015 23.3339,16.8326 56.6674,25.3329 99.6665,25.3329 49.0007,0 85.0011,-9.66792 107.835,-29.0015 22.8319,-19.1655 34.333,-42.8333 34.333,-70.4992 0,-27.5 -9.49984,-53.5008 -28.6676,-78 -14.4996,-18.3341 -47.6673,-46.4997 -99.1668,-84.4991 -27.1661,-19.8334 -46.3339,-35.5006 -57.6669,-47.0017l186.501 0 0 -57.9986 -303 0z"
         id="glyph151" /><glyph
         unicode="¬"
         horiz-adv-x="583"
         d="M528 207l-82.9998 0 0 214.001 -389 0 0 82.0003 472 0 0 -296.001z"
         id="glyph153" /><glyph
         unicode=""
         horiz-adv-x="750"
         d="M124.999 0l0 624.999 500 0 0 -624.999 -500 0zm16.0011 15.9989l468 0 0 593.002 -468 0 0 -593.002z"
         id="glyph155" /><glyph
         unicode=""
         horiz-adv-x="750"
         d="M124.999 0l0 624.999 500 0 0 -624.999 -500 0zm16.0011 15.9989l468 0 0 593.002 -468 0 0 -593.002z"
         id="glyph157" /><glyph
         unicode="y"
         horiz-adv-x="500"
         d="M62.0011 -199.499l-10.0018 81.3324c19.3336,-5.16788 36.0003,-7.83249 50.3341,-7.83249 19.6675,0 35.3325,3.33245 46.9994,9.83152 11.8328,6.50131 21.5007,15.6672 29.0015,27.3342 5.49955,8.83425 14.4996,30.6666 26.8322,65.6675 1.66735,4.83172 4.16613,11.9986 7.83249,21.4985l-197 520.667 94.0011 0 108.333 -299.667c14.168,-37.8313 26.6663,-77.8319 37.8335,-119.832 10.1677,39.4986 22.1663,78.4997 36.1662,116.833l110.668 302.666 87.8337 0 -196.166 -528c-21.1668,-56.8332 -37.6677,-95.8343 -49.5005,-117.333 -15.6672,-28.8334 -33.6674,-50.0002 -53.8347,-63.5004 -20.3331,-13.5001 -44.4984,-20.1673 -72.4982,-20.1673 -17.0007,0 -36.0003,3.50053 -56.8332,10.5016z"
         id="glyph159" /><glyph
         unicode="h"
         horiz-adv-x="556"
         d="M65.9991 0l0 716 88.0018 0 0 -257.666c40.8321,47.8331 92.3316,71.6668 154.667,71.6668 38.1652,0 71.3328,-7.50082 99.6665,-22.6683 28.1656,-15.1652 48.3329,-36.0003 60.4996,-62.6667 12.1667,-26.6663 18.166,-65.4994 18.166,-116.165l0 -328.501 -87.9996 0 0 328.167c0,43.8328 -9.49984,75.8329 -28.3337,95.8321 -18.9997,20.0014 -45.666,30.001 -80.3329,30.001 -25.8327,0 -50.1661,-6.66714 -73.0002,-20.1673 -22.8341,-13.5001 -38.9989,-31.832 -48.8326,-55 -9.66792,-23 -14.4996,-54.8319 -14.4996,-95.5004l0 -283.332 -88.0018 0z"
         id="glyph161" /><glyph
         unicode="W"
         horiz-adv-x="943"
         d="M200.501 0l-188.5 716 98.3331 0 107.333 -469.499c11.6669,-49.1666 22.0005,-98.0014 30.8325,-146.334 18.8338,76.3326 29.833,120.334 32.9996,132.001l135.335 483.833 114.166 0 102.665 -362.5c25.1671,-90.0009 43.8351,-174.5 55.8337,-253.334 9.49984,45.1663 21.6665,96.9997 36.5001,155.5l111.833 460.333 95.1665 0 -195.998 -716 -92.168 0 -150.167 545.5c-12.6665,45.666 -20.3331,73.6658 -23.1658,83.9993 -8.16641,-32.6656 -15.5014,-60.6654 -21.8346,-83.8335l-150.167 -545.666 -98.9987 0z"
         id="glyph163" /><glyph
         unicode="F"
         horiz-adv-x="610"
         d="M82.0003 0l0 716 482.999 0 0 -83.9993 -387.999 0 0 -223.001 335.999 0 0 -83.9993 -335.999 0 0 -325 -95.0006 0z"
         id="glyph165" /><glyph
         unicode="5"
         horiz-adv-x="556"
         d="M41.9997 188l91.9999 7.00106c6.83298,-44.8346 22.6661,-78.502 47.3334,-101.168 24.6673,-22.5002 54.8342,-33.8332 90.3348,-33.8332 42.8333,0 78.6656,16.0011 107.833,47.8331 28.9993,32.0001 43.4989,74.3336 43.4989,127.001 0,50.1661 -13.8318,89.6669 -41.6657,118.666 -27.8339,28.9993 -64.6679,43.5012 -110.5,43.5012 -28.5018,0 -54.0005,-6.50131 -76.6666,-19.5017 -22.5002,-13.0004 -40.1665,-29.833 -53.1668,-50.5l-82.9998 12.0009 68.9999 367.999 354.999 0 0 -83.9993 -284.834 0 -38.1652 -193.168c42.8333,30.1669 87.8315,45.1685 134.833,45.1685 62.3328,0 115,-21.6688 157.833,-65.0019 42.8333,-43.3331 64.3318,-98.9987 64.3318,-166.999 0,-64.8338 -18.8316,-120.833 -56.4993,-168.001 -45.8319,-57.9986 -108.499,-87.0001 -187.832,-87.0001 -65.0019,0 -118.001,18.3341 -159.167,54.8342 -41.1682,36.5001 -64.6679,84.833 -70.5014,145.167z"
         id="glyph167" /><glyph
         unicode="$"
         horiz-adv-x="556"
         d="M248.999 -102.999l0 87.9996c-43.8328,5.49955 -79.4993,15.3333 -106.999,29.499 -27.5,14.168 -51.1678,37.1679 -71.167,68.666 -19.9992,31.6684 -31.5003,70.1675 -34.8327,115.834l87.9996 17.0007c6.83298,-47.4992 18.8338,-82.3342 36.1662,-104.5 24.6673,-31.3322 54.3344,-48.8326 88.8333,-52.499l0 276.165c-36.1662,9.334 -73.0002,24.6673 -110.666,45.8341 -27.9998,15.4992 -49.5005,37.1657 -64.6679,64.8338 -15.1652,27.8339 -22.6661,59.1661 -22.6661,94.3328 0,62.5008 22.1663,113.167 66.333,152 29.5013,26.0007 73.4999,41.9997 131.667,47.8331l0 41.9997 52.0015 0 0 -41.9997c50.8317,-4.83172 91.1662,-19.9992 120.999,-45.1663 38.1674,-32.0001 61.1674,-75.9987 68.9999,-131.832l-90.0009 -13.9999c-5.16564,34.8327 -15.9989,61.6649 -32.4998,80.1649 -16.3328,18.668 -38.833,30.8347 -67.4984,36.834l0 -253.334c44.1668,-11.333 73.3319,-20.165 87.6657,-26.3324 27.3342,-12.0009 49.5005,-26.6663 66.667,-44.0009 17.3323,-17.1665 30.5008,-37.6654 39.8325,-61.4991 9.16816,-23.6678 13.834,-49.5005 13.834,-77.1663 0,-60.8335 -19.3336,-111.502 -58.0008,-152.334 -38.665,-40.6662 -88.6652,-62.3328 -149.998,-65.3335l0 -88.9991 -52.0015 0zm0 769.998c-33.9991,-5.16564 -60.9993,-18.8316 -80.4988,-41.166 -19.6675,-22.1663 -29.5013,-48.3329 -29.5013,-78.6656 0,-30.001 8.33449,-55.1681 25.0012,-75.3331 16.6667,-20.1673 45.0004,-35.5006 84.9988,-45.8341l0 240.999zm52.0015 -607.999c34.1649,4.16613 62.3328,18.9997 84.6649,44.5007 22.1685,25.3329 33.3335,56.8332 33.3335,94.1647 0,32.0001 -7.83249,57.501 -23.6656,77.0005 -15.8331,19.3336 -47.3334,35.0008 -94.3328,47.1675l0 -262.833z"
         id="glyph169" /><glyph
         unicode="þ"
         horiz-adv-x="556"
         d="M65.9991 -198.999l0 914.999 88.0018 0 0 -252.5c23.6656,24.999 44.4984,41.6657 62.4986,49.8344 23.3339,11.1649 50.0002,16.6667 80.0013,16.6667 44.1668,0 83.1656,-11.3353 116.999,-34.1672 33.8332,-22.6683 59.3342,-54.8342 76.6666,-96.1682 17.1665,-41.4999 25.8327,-86.832 25.8327,-136.332 0,-53.1668 -9.49984,-101 -28.4995,-143.165 -18.9997,-42.3336 -46.6655,-74.6675 -82.9998,-97.3336 -36.1662,-22.5002 -74.1655,-33.8332 -113.832,-33.8332 -27.0003,0 -52.1673,5.33147 -75.1673,15.9989 -17.6663,8.50033 -37.9994,24.8332 -61.4991,49.1666l0 -253.165 -88.0018 0zm79.6673 455.333c0,-66.5011 13.5001,-115.668 40.5004,-147.502 27.0003,-31.832 59.6659,-47.8331 97.9992,-47.8331 39.0011,0 72.3346,16.5009 100.166,49.5005 27.8339,32.9996 41.668,83.9993 41.668,153.167 0,65.9991 -13.5001,115.334 -40.6662,148.165 -27.1683,32.8337 -59.6681,49.1688 -97.3336,49.1688 -37.3338,0 -70.3333,-17.5004 -99.1668,-52.3354 -28.8334,-34.9986 -43.1672,-85.6666 -43.1672,-152.331z"
         id="glyph171" /><glyph
         unicode="í"
         horiz-adv-x="277"
         d="M96.9997 0l0 519 87.9996 0 0 -519 -87.9996 0zm-28.9993 583l64.0001 137 115.999 0 -106.999 -137 -73.0002 0z"
         id="glyph173" /><glyph
         unicode="Ü"
         horiz-adv-x="722"
         d="M546 716l95.0006 0 0 -413.5c0,-72.0007 -8.16641,-129.168 -24.3334,-171.499 -16.3328,-42.1677 -45.6683,-76.6666 -87.9996,-103.167 -42.5016,-26.5005 -98.0014,-39.8348 -167.001,-39.8348 -66.8328,0 -121.667,11.5011 -164.166,34.6669 -42.6675,23.168 -73.0002,56.5015 -91.1662,100.334 -18.166,43.8328 -27.3342,103.667 -27.3342,179.5l0 413.5 95.0006 0 0 -413.334c0,-62.1669 5.83347,-108.167 17.3323,-137.5 11.5011,-29.499 31.1686,-52.3332 59.3342,-68.1662 27.9998,-15.9989 62.3328,-23.9995 102.833,-23.9995 69.3338,0 118.834,15.8331 148.333,47.3334 29.5013,31.6661 44.1668,92.3338 44.1668,182.332l0 413.334zm-324.001 44.0009l0 99.9982 91.9999 0 0 -99.9982 -91.9999 0zm182.001 0l0 99.9982 91.9999 0 0 -99.9982 -91.9999 0z"
         id="glyph175" /><glyph
         unicode="Ë"
         horiz-adv-x="666"
         d="M78.9995 0l0 716 517.001 0 0 -83.9993 -422 0 0 -220 395 0 0 -83.9993 -395 0 0 -244.002 439.001 0 0 -83.9993 -534.001 0zm135.001 760.001l0 99.9982 91.9999 0 0 -99.9982 -91.9999 0zm181.998 0l0 99.9982 91.9999 0 0 -99.9982 -91.9999 0z"
         id="glyph177" /><glyph
         unicode="º"
         horiz-adv-x="365"
         d="M182.5 728.001c47.3334,0 85.8325,-16.3351 115.665,-48.8349 29.8352,-32.6656 44.8346,-77.498 44.8346,-134.833 0,-57.1649 -14.9994,-101.834 -45.0004,-134.499 -30.001,-32.4998 -68.3343,-48.8326 -115,-48.8326 -47.3334,0 -86.0006,15.9989 -115.999,47.8331 -30.001,32.0001 -45.0004,76.4985 -45.0004,133.5 0,58.6664 14.9994,104.167 44.8323,136.832 29.833,32.4998 68.3343,48.8349 115.668,48.8349zm0 -64.0001c-26.5005,0 -48.0012,-9.334 -64.1682,-27.9998 -16.1647,-18.668 -24.3334,-49.1666 -24.3334,-91.5001 0,-41.3341 8.33449,-71.5009 24.8354,-90.6664 16.4987,-19.1678 37.8313,-28.8334 63.6662,-28.8334 26.1666,0 47.4992,9.66568 63.832,28.8334 16.5009,19.1655 24.6673,50.1661 24.6673,93.1652 0,40.0006 -8.33225,69.4997 -24.8332,88.5016 -16.5009,18.9997 -37.8335,28.4995 -63.6662,28.4995z"
         id="glyph179" /><glyph
         unicode="©"
         horiz-adv-x="736"
         d="M369.833 728.001c61.833,0 122.167,-15.8331 181.167,-47.6673 58.8345,-31.6661 104.834,-77.1663 137.666,-136.167 32.8337,-59.1661 49.3346,-120.833 49.3346,-184.833 0,-63.5004 -16.167,-124.668 -48.6668,-183.166 -32.334,-58.6664 -77.6661,-104.167 -136.167,-136.501 -58.5006,-32.4998 -119.666,-48.6668 -183.334,-48.6668 -63.832,0 -124.999,16.167 -183.5,48.6668 -58.4983,32.334 -103.998,77.8342 -136.498,136.501 -32.5021,58.4983 -48.8349,119.666 -48.8349,183.166 0,64.0001 16.5009,125.667 49.5005,184.833 33.1676,59.0003 79.1676,104.5 138,136.167 59.0003,31.8342 119.334,47.6673 181.333,47.6673zm0 -61.0016c-51.8334,0 -102.333,-13.332 -151.332,-39.8325 -49.0007,-26.5005 -87.334,-64.4999 -115,-113.832 -27.6681,-49.3346 -41.4999,-100.668 -41.4999,-154.001 0,-53.1668 13.666,-104.001 40.8321,-152.668 27.1661,-48.6668 65.1677,-86.6662 114,-113.832 48.8326,-27.1661 99.8324,-40.8343 152.999,-40.8343 53.001,0 104.001,13.6682 152.833,40.8343 48.8349,27.1661 86.8342,65.1655 113.834,113.832 27.0003,48.6668 40.5004,99.5007 40.5004,152.668 0,53.3327 -13.834,104.666 -41.3341,154.001 -27.5,49.3324 -65.8333,87.3318 -115,113.832 -49.1666,26.5005 -99.5007,39.8325 -150.834,39.8325zm118.166 -367l59.9998 -18.0002c-9.83152,-40.6662 -30.4985,-73.3319 -62.1647,-97.4994 -31.8342,-24.3334 -70.3333,-36.5001 -115.502,-36.5001 -57.333,0 -103.833,18.4999 -139.665,55.6679 -35.8345,37.1657 -53.6666,88.4993 -53.6666,154.333 0,42.9992 8.16641,80.3329 24.4992,111.999 16.167,31.8342 39.5009,55.6679 69.4997,71.8348 30.1669,16.167 64.6679,24.1653 103.333,24.1653 43.3331,0 79.3334,-10.3335 108.001,-31.1664 28.6654,-20.8329 48.167,-49.1666 58.6664,-84.833l-58.0008 -14.9994c-9.83376,24.4992 -24.1653,43.3331 -43.3331,56.3335 -19.1655,13.1662 -41.4999,19.6653 -67.3326,19.6653 -37.4996,0 -68.5002,-13.332 -92.8335,-39.9984 -24.3334,-26.6663 -36.5001,-64.9996 -36.5001,-114.668 0,-49.8321 11.4989,-87.4998 34.4988,-112.999 23.0022,-25.501 52.6671,-38.3333 89.1672,-38.3333 29.3332,0 55.1681,8.50033 77.3344,25.6668 22.1663,16.9984 36.8318,40.1665 43.9987,69.3316z"
         id="glyph181" /><glyph
         unicode=""
         horiz-adv-x="750"
         d="M124.999 0l0 624.999 500 0 0 -624.999 -500 0zm16.0011 15.9989l468 0 0 593.002 -468 0 0 -593.002z"
         id="glyph183" /><glyph
         unicode=""
         horiz-adv-x="750"
         d="M124.999 0l0 624.999 500 0 0 -624.999 -500 0zm16.0011 15.9989l468 0 0 593.002 -468 0 0 -593.002z"
         id="glyph185" /><glyph
         unicode="v"
         horiz-adv-x="500"
         d="M207.833 0l-195.833 519 94.1647 0 111.002 -310.832c11.9986,-33.5016 23.1658,-68.3343 33.3335,-104.5 7.83249,27.3342 18.6658,60.1657 32.8315,98.667l115.334 316.666 90.3348 0 -196.5 -519 -84.6671 0z"
         id="glyph187" /><glyph
         unicode="e"
         horiz-adv-x="556"
         d="M420.001 168.001l90.9981 -12.0009c-14.1657,-52.8329 -40.6662,-93.9989 -79.3334,-123.166 -38.665,-29.1674 -87.9996,-43.8328 -148.165,-43.8328 -75.6671,0 -135.667,23.3316 -179.999,69.9994 -44.3348,46.4997 -66.5011,111.999 -66.5011,196.166 0,87.0001 22.3344,154.667 67.1667,202.666 44.8323,48.167 102.999,72.1688 174.5,72.1688 69.1657,0 125.667,-23.502 169.5,-70.6673 43.8328,-47.1675 65.8333,-113.501 65.8333,-199.001 0,-5.16564 -0.165838,-12.9981 -0.499756,-23.3316l-386.499 0c3.33245,-56.8332 19.3336,-100.5 48.3329,-130.667 28.8334,-30.1669 64.9996,-45.3343 108.167,-45.3343 32.1659,0 59.6659,8.50033 82.332,25.501 22.8341,17.0007 40.8343,44.1668 54.1686,81.5005zm-288 140.998l289 0c-3.83445,43.667 -14.9994,76.3349 -33.1676,98.1673 -27.8339,33.8332 -64.1659,50.8339 -108.667,50.8339 -40.3323,0 -74.1655,-13.5001 -101.666,-40.5004 -27.3342,-27.0003 -42.5016,-63.1664 -45.5002,-108.501z"
         id="glyph189" /><glyph
         unicode="T"
         horiz-adv-x="610"
         d="M258.999 0l0 632.001 -235.999 0 0 83.9993 567.001 0 0 -83.9993 -236.001 0 0 -632.001 -95.0006 0z"
         id="glyph191" /><glyph
         unicode="C"
         horiz-adv-x="722"
         d="M587 251.166l95.0006 -23.9995c-19.8334,-77.8342 -55.4998,-137 -107.002,-177.835 -51.4995,-40.8321 -114.5,-61.3332 -189,-61.3332 -77.0005,0 -139.667,15.6672 -188,47.1675 -48.3329,31.3322 -84.9988,76.8324 -110.166,136.332 -25.1671,59.6681 -37.8335,123.5 -37.8335,191.834 0,74.4995 14.1657,139.499 42.6675,194.999 28.4995,55.4998 68.9999,97.6675 121.499,126.501 52.499,28.8334 110.334,43.1672 173.332,43.1672 71.6668,0 131.835,-18.1682 180.501,-54.6683 48.8326,-36.5001 82.834,-87.6657 101.999,-153.665l-92.9994 -22.0005c-16.5009,51.9992 -40.6662,89.9986 -72.1665,113.666 -31.5003,23.8336 -71.167,35.6664 -119,35.6664 -54.8342,0 -100.834,-13.1662 -137.668,-39.5009 -36.8318,-26.3324 -62.8325,-61.833 -77.6661,-106.166 -14.9994,-44.5007 -22.5002,-90.3325 -22.5002,-137.5 0,-60.8335 8.83425,-114 26.5005,-159.332 17.6663,-45.5002 45.1663,-79.3334 82.5,-101.834 37.3338,-22.5002 77.6661,-33.6674 121.167,-33.6674 52.9988,0 97.6653,15.3333 134.333,45.8341 36.6659,30.6666 61.4991,75.9987 74.4995,136.332z"
         id="glyph193" /><glyph
         unicode="2"
         horiz-adv-x="556"
         d="M503.001 83.9993l0 -83.9993 -474.001 0c-0.665594,21.1668 2.83494,41.4999 10.3335,61.1674 12.1667,32.1659 31.6661,64.0001 58.5006,95.1665 26.8344,31.1664 65.1677,67.1667 115,107.999 77.5002,63.8343 130.167,114.334 157.667,151.668 27.6658,37.3315 41.4999,72.6663 41.4999,106 0,34.8327 -12.5006,64.1659 -37.4996,88.1654 -25.0012,23.8336 -57.6669,35.8345 -97.8333,35.8345 -42.5016,0 -76.5007,-12.6665 -102.002,-37.9994 -25.4987,-25.1671 -38.3333,-60.1679 -38.665,-105l-90.0009 9.00009c6.16739,67.3326 29.499,118.666 69.8336,153.999 40.5004,35.3347 94.6667,53.001 162.833,53.001 68.666,0 123.166,-18.9997 163.167,-57.1671 40.1665,-38.1674 60.1657,-85.5008 60.1657,-141.834 0,-28.6654 -5.83123,-56.8332 -17.6663,-84.4991 -11.6669,-27.8339 -31.1664,-56.999 -58.3325,-87.6679 -27.3342,-30.4985 -72.5004,-72.6663 -135.501,-125.999 -52.8329,-44.3326 -86.832,-74.3336 -101.834,-90.1667 -14.9994,-15.8331 -27.3319,-31.6661 -37.1657,-47.6673l351.501 0z"
         id="glyph195" /><glyph
         unicode="!"
         horiz-adv-x="277"
         d="M113.001 178l-27.0003 379.333 0 158.667 109.001 0 0 -158.667 -25.0012 -379.333 -56.999 0zm-23 -178l0 100 101 0 0 -100 -101 0z"
         id="glyph197" /><glyph
         unicode="û"
         horiz-adv-x="556"
         d="M404.999 0l0 77.1663c-40.3323,-58.8322 -94.9984,-88.1654 -164.166,-88.1654 -30.4985,0 -59.0003,5.83347 -85.4986,17.4982 -26.5005,11.835 -46.168,26.5005 -59.0003,44.1668 -12.8345,17.8343 -21.8346,39.5009 -27.0003,65.1677 -3.50053,17.3323 -5.33372,44.6665 -5.33372,82.0003l0 321.166 87.9996 0 0 -287.167c0,-45.8319 1.83318,-76.8324 5.33372,-92.6655 5.49955,-23.168 17.1665,-41.1682 35.1667,-54.3344 17.8343,-13.1662 39.8325,-19.8334 66.1672,-19.8334 26.3324,0 50.9997,6.66714 73.9997,20.1673 23,13.5001 39.3328,32.0001 49.0007,55.1659 9.49984,23.168 14.3316,57.0013 14.3316,101.168l0 277.499 88.0018 0 0 -519 -79.0017 0zm-129 666l-54.5003 -82.9998 -100 0 104.5 137 93.0016 0 111.499 -137 -100 0 -54.5003 82.9998z"
         id="glyph199" /><glyph
         unicode="ê"
         horiz-adv-x="556"
         d="M420.001 168.001l90.9981 -12.0009c-14.1657,-52.8329 -40.6662,-93.9989 -79.3334,-123.166 -38.665,-29.1674 -87.9996,-43.8328 -148.165,-43.8328 -75.6671,0 -135.667,23.3316 -179.999,69.9994 -44.3348,46.4997 -66.5011,111.999 -66.5011,196.166 0,87.0001 22.3344,154.667 67.1667,202.666 44.8323,48.167 102.999,72.1688 174.5,72.1688 69.1657,0 125.667,-23.502 169.5,-70.6673 43.8328,-47.1675 65.8333,-113.501 65.8333,-199.001 0,-5.16564 -0.165838,-12.9981 -0.499756,-23.3316l-386.499 0c3.33245,-56.8332 19.3336,-100.5 48.3329,-130.667 28.8334,-30.1669 64.9996,-45.3343 108.167,-45.3343 32.1659,0 59.6659,8.50033 82.332,25.501 22.8341,17.0007 40.8343,44.1668 54.1686,81.5005zm-288 140.998l289 0c-3.83445,43.667 -14.9994,76.3349 -33.1676,98.1673 -27.8339,33.8332 -64.1659,50.8339 -108.667,50.8339 -40.3323,0 -74.1655,-13.5001 -101.666,-40.5004 -27.3342,-27.0003 -42.5016,-63.1664 -45.5002,-108.501zm144.999 357l-54.498 -82.9998 -100 0 104.498 137 93.0016 0 111.499 -137 -100 0 -54.5003 82.9998z"
         id="glyph201" /><glyph
         unicode="Ù"
         horiz-adv-x="722"
         d="M546 716l95.0006 0 0 -413.5c0,-72.0007 -8.16641,-129.168 -24.3334,-171.499 -16.3328,-42.1677 -45.6683,-76.6666 -87.9996,-103.167 -42.5016,-26.5005 -98.0014,-39.8348 -167.001,-39.8348 -66.8328,0 -121.667,11.5011 -164.166,34.6669 -42.6675,23.168 -73.0002,56.5015 -91.1662,100.334 -18.166,43.8328 -27.3342,103.667 -27.3342,179.5l0 413.5 95.0006 0 0 -413.334c0,-62.1669 5.83347,-108.167 17.3323,-137.5 11.5011,-29.499 31.1686,-52.3332 59.3342,-68.1662 27.9998,-15.9989 62.3328,-23.9995 102.833,-23.9995 69.3338,0 118.834,15.8331 148.333,47.3334 29.5013,31.6661 44.1668,92.3338 44.1668,182.332l0 413.334zm-122.001 44.0009l-70.9989 0 -113.001 137 118.001 0 65.9991 -137z"
         id="glyph203" /><glyph
         unicode="È"
         horiz-adv-x="666"
         d="M78.9995 0l0 716 517.001 0 0 -83.9993 -422 0 0 -220 395 0 0 -83.9993 -395 0 0 -244.002 439.001 0 0 -83.9993 -534.001 0zm335.999 760.001l-70.9989 0 -113.001 137 118.001 0 65.9991 -137z"
         id="glyph205" /><glyph
         unicode="·"
         horiz-adv-x="333"
         d="M115.999 311l0 100 100 0 0 -100 -100 0z"
         id="glyph207" /><glyph
         unicode="¦"
         horiz-adv-x="259"
         d="M169 728.001l0 -385 -77.0005 0 0 385 77.0005 0zm0 -552.001l0 -386 -77.0005 0 0 386 77.0005 0z"
         id="glyph209" /><glyph
         unicode=""
         horiz-adv-x="750"
         d="M124.999 0l0 624.999 500 0 0 -624.999 -500 0zm16.0011 15.9989l468 0 0 593.002 -468 0 0 -593.002z"
         id="glyph211" /><glyph
         unicode=""
         horiz-adv-x="750"
         d="M124.999 0l0 624.999 500 0 0 -624.999 -500 0zm16.0011 15.9989l468 0 0 593.002 -468 0 0 -593.002z"
         id="glyph213" /><glyph
         unicode="s"
         horiz-adv-x="500"
         d="M31.0005 155l87.0001 13.9999c4.83172,-34.8327 18.4999,-61.5013 40.8321,-80.1671 22.3344,-18.4999 53.6666,-27.8339 93.6672,-27.8339 40.5004,0 70.4992,8.16641 90.1667,24.6673 19.4994,16.3328 29.3332,35.6664 29.3332,57.8327 0,19.8334 -8.83201,35.5006 -26.3324,46.8336 -12.3348,7.83474 -42.3336,17.6663 -90.0009,29.833 -64.334,16.167 -108.832,30.1669 -133.834,41.9997 -24.8332,12.0009 -43.667,28.3337 -56.4993,49.3346 -12.8345,20.8329 -19.3336,44.0009 -19.3336,69.3338 0,23.1658 5.33372,44.4984 15.8331,64.1659 10.6674,19.6675 25.0012,36.0003 43.1672,49.0007 13.666,9.9996 32.334,18.4999 55.8337,25.4987 23.6656,7.00106 48.8326,10.5016 75.8329,10.5016 40.6662,0 76.3326,-5.83347 106.999,-17.6685 30.8347,-11.6669 53.5008,-27.6658 68.1662,-47.665 14.5019,-20.1673 24.6673,-47.0017 30.1669,-80.6668l-85.9983 -12.0009c-3.83445,27.0003 -15.1675,48.167 -33.8332,63.3345 -18.668,15.1652 -45.0004,22.6661 -79.1676,22.6661 -40.1665,0 -68.9999,-6.66714 -86.1664,-20.0014 -17.1665,-13.332 -25.8327,-28.9993 -25.8327,-46.8314 0,-11.3353 3.49829,-21.6665 10.6652,-30.8347 7.1669,-9.33176 18.3341,-17.1665 33.6674,-23.3339 8.83201,-3.33245 34.4988,-10.8333 77.5002,-22.498 61.9988,-16.5009 105.332,-30.1669 129.999,-40.6685 24.6673,-10.4994 44.0009,-25.9985 58.0008,-45.9999 14.1657,-20.165 21.1668,-45.1663 21.1668,-75.1651 0,-29.1674 -8.50033,-56.6674 -25.6668,-82.5 -17.1665,-25.8349 -41.8338,-45.8341 -73.9997,-59.9998 -32.334,-14.168 -68.8341,-21.1668 -109.5,-21.1668 -67.3348,0 -118.834,13.9999 -154.167,41.8316 -35.3347,27.9998 -57.8327,69.3338 -67.6665,124.168z"
         id="glyph215" /><glyph
         unicode="b"
         horiz-adv-x="556"
         d="M147 0l-82.0003 0 0 716 87.9996 0 0 -255.501c37.1679,46.3339 84.5013,69.5019 142.168,69.5019 31.832,0 62.1669,-6.33547 90.6664,-19.1678 28.4995,-12.8323 51.8334,-31.0005 70.3333,-54.1663 18.3318,-23.3339 32.8337,-51.3337 43.1672,-84.1674 10.4994,-32.6656 15.665,-67.8323 15.665,-105.166 0,-88.6674 -22.0005,-157.333 -65.8333,-205.666 -43.9987,-48.501 -96.6658,-72.6663 -158.167,-72.6663 -61.1652,0 -109.166,25.4987 -143.999,76.3326l0 -65.3335zm-0.999511 263.333c0,-61.9988 8.50033,-106.833 25.3329,-134.499 27.6658,-45.1663 64.9996,-67.8346 112.167,-67.8346 38.4991,0 71.6668,16.6667 99.4985,50.0002 28.002,33.3335 42.0019,82.9998 42.0019,149.001 0,67.6665 -13.3343,117.499 -40.1665,149.667 -26.8344,32.1659 -59.3342,48.3329 -97.3336,48.3329 -38.5014,0 -71.6668,-16.6667 -99.5007,-50.0002 -27.9998,-33.3335 -41.9997,-81.5005 -41.9997,-144.667z"
         id="glyph217" /><glyph
         unicode="Q"
         horiz-adv-x="777"
         d="M618.834 76.8324c44.1668,-30.3327 84.833,-52.3332 122.167,-66.333l-28.1678 -65.9991c-51.4995,18.4999 -102.833,47.6673 -154.001,87.6657 -52.9988,-29.499 -111.499,-44.1668 -175.499,-44.1668 -64.6657,0 -123.332,15.6672 -175.999,46.8336 -52.6671,31.1664 -93.1675,75.1673 -121.667,131.667 -28.4995,56.6674 -42.6675,120.334 -42.6675,191.335 0,70.4992 14.3338,134.665 43.0014,192.666 28.4995,57.8327 69.3338,101.834 122.167,132.166 52.8329,30.1669 111.999,45.3343 177.333,45.3343 65.9991,0 125.499,-15.6672 178.5,-47.0017 53.001,-31.4981 93.4991,-75.3331 121.333,-131.832 27.8339,-56.3335 41.6657,-120 41.6657,-190.833 0,-59.0003 -8.99784,-111.833 -26.998,-158.835 -17.8343,-46.9994 -45.0004,-87.8315 -81.1666,-122.666zm-208.001 121.001c54.5003,-15.3333 99.5007,-38.1674 134.833,-68.3343 55.4998,50.6681 83.3337,126.835 83.3337,228.5 0,57.8327 -9.83376,108.333 -29.499,151.5 -19.6675,43.3331 -48.3351,76.8324 -86.1664,100.666 -37.8335,23.8336 -80.3352,35.8345 -127.335,35.8345 -70.4992,0 -129,-24.1676 -175.334,-72.3346 -46.4997,-48.3329 -69.6655,-120.334 -69.6655,-216.166 0,-92.8335 23,-164.166 68.8318,-214.001 45.9999,-49.6663 104.669,-74.4995 176.167,-74.4995 33.6674,0 65.4994,6.33323 95.5004,18.9997 -29.6671,19.1678 -60.8335,32.8337 -93.4991,41.0001l22.8319 68.8341z"
         id="glyph219" /><glyph
         unicode="@"
         horiz-adv-x="1015"
         d="M569 80.1671c-21.1668,-24.5015 -44.8323,-44.1668 -71.167,-59.0003 -26.1666,-14.8336 -52.499,-22.1663 -78.8337,-22.1663 -28.9993,0 -57.1649,8.50033 -84.6649,25.3329 -27.3342,17.0007 -49.5005,42.9992 -66.667,78.1658 -17.1665,35.1667 -25.6668,73.8339 -25.6668,115.834 0,51.8334 13.332,103.667 39.8325,155.668 26.5005,51.8334 59.5001,90.8323 98.8329,116.999 39.335,26.0007 77.6683,39.0011 114.668,39.0011 28.3314,0 55.3317,-7.33498 81.1666,-22.1685 25.6668,-14.8336 47.8331,-37.4996 66.333,-67.6665l17.1665 75.8329 87.0001 0 -70.3333 -327.999c-9.83376,-45.666 -14.6677,-70.8331 -14.6677,-75.6671 0,-8.83201 3.33469,-16.4987 9.9996,-22.8319 6.66714,-6.33547 14.8336,-9.50208 24.1676,-9.50208 17.3346,0 40.0006,9.83376 68.0004,29.6671 37.1657,26.0007 66.667,60.8335 88.3335,104.666 21.6665,43.667 32.4998,88.6674 32.4998,135.167 0,54.3344 -13.9999,105 -41.8338,152 -27.8339,47.1675 -69.4997,84.833 -124.834,113.167 -55.1659,28.1678 -116.333,42.3336 -183.166,42.3336 -76.3326,0 -146.166,-17.8321 -209.167,-53.3327 -63.1664,-35.6664 -112.167,-86.6662 -146.834,-153.167 -34.8327,-66.4989 -52.1651,-137.834 -52.1651,-213.999 0,-79.6673 17.3323,-148.167 51.9992,-205.669 34.8327,-57.6669 85.0011,-100.166 150.666,-127.666 65.6675,-27.5 138.334,-41.166 218.167,-41.166 85.5008,0 156.999,14.3338 214.666,43.1672 57.6669,28.6654 100.834,63.6662 129.499,104.832l88.0018 0c-16.6667,-34.1672 -45.1685,-69.1657 -85.5008,-104.666 -40.3323,-35.5006 -88.3335,-63.6662 -143.999,-84.3332 -55.6679,-20.667 -122.835,-31.0005 -201.168,-31.0005 -72.3324,0 -138.999,9.334 -199.999,27.8339 -61.1674,18.4999 -113.167,46.3339 -156.168,83.4995 -42.9992,37.3338 -75.3331,80.1671 -97.1655,128.5 -27.3342,61.5013 -41.0001,127.834 -41.0001,199.001 0,79.1653 16.3328,154.832 48.8326,226.665 39.8348,87.9996 96.3341,155.5 169.5,202.334 73.1683,46.8336 161.833,70.1675 266.168,70.1675 80.8327,0 153.499,-16.5009 217.833,-49.5005 64.3318,-32.9996 115.166,-82.1661 152.166,-147.5 31.6684,-56.1676 47.5014,-117.333 47.5014,-183.334 0,-94.3328 -33.1676,-178 -99.5007,-251.166 -59.3342,-65.6675 -124,-98.4989 -194.333,-98.4989 -22.5002,0 -40.5004,3.49829 -54.3344,10.3313 -13.8318,6.83522 -23.9995,16.6667 -30.4985,29.5013 -4.3342,8.16641 -7.33498,22.3321 -9.334,42.3336zm-237.001 132.001c0,-44.6665 10.6674,-79.3334 31.8342,-104.001 21.1668,-24.8332 45.3343,-37.1679 72.8344,-37.1679 18.166,0 37.3315,5.5018 57.6646,16.3351 20.1673,10.9991 39.5009,27.1661 57.835,48.6668 18.4999,21.4985 33.4993,48.8326 45.1663,81.8322 11.8328,32.9996 17.6663,66.1672 17.6663,99.5007 0,44.1668 -10.9991,78.6656 -32.9996,102.999 -22.0005,24.5015 -48.8326,36.6682 -80.3329,36.6682 -20.8351,0 -40.5004,-5.33372 -59.0003,-15.8331 -18.3341,-10.6674 -36.1662,-27.6681 -53.5008,-51.1678 -17.1665,-23.3339 -31.1664,-51.8334 -41.4999,-85.5008 -10.4994,-33.4993 -15.6672,-64.3318 -15.6672,-92.3316z"
         id="glyph221" /><glyph
         unicode="/"
         horiz-adv-x="277"
         d="M0 -12.0009l207.999 740.002 70.8331 0 -207.999 -740.002 -70.8331 0z"
         id="glyph223" /><glyph
         unicode="ø"
         horiz-adv-x="610"
         d="M449 487.168l48.3329 62.6667 46.8336 -34.0013 -51.9992 -67.3326c20.3331,-27.9998 34.333,-53.3349 41.8316,-76.001 10.0018,-32.4998 15.0016,-70.3333 15.0016,-113.501 0,-97.4994 -27.5,-169.166 -82.6681,-214.998 -44.6665,-36.6682 -98.4989,-55 -161.334,-55 -51.9992,0 -97.6653,12.9981 -137.498,38.9989l-51.002 -65.9991 -45.9999 34.8327 52.6671 68.3343c-19.1655,21.9982 -32.6656,44.1668 -40.8321,66.333 -12.8345,35.3325 -19.3336,75.499 -19.3336,120.499 0,97.8333 23.9995,168.666 71.8326,212.333 47.8331,43.8328 104.001,65.6675 168.501,65.6675 26.6663,0 51.3337,-3.50053 73.8339,-10.3335 22.498,-6.83522 46.3316,-17.6685 71.8326,-32.4998zm-49.5005 -64.0001c-29.6671,22.498 -60.8335,33.8332 -93.3333,33.8332 -43.3331,0 -79.8332,-16.5009 -109.166,-49.6685 -29.3332,-33.1654 -44.0009,-82.6659 -44.0009,-148.165 0,-48.8326 8.50033,-89.6669 25.3352,-122.501l221.165 286.501zm36.5001 -47.1675l-219.666 -284.5c25.4987,-20.3331 54.1663,-30.5008 86.1664,-30.5008 45.3321,0 82.6659,16.5009 112.167,49.6663 29.499,33.1676 44.3326,83.002 44.3326,149.335 0,24.6651 -1.99902,46.1658 -5.83347,64.8315 -2.66686,13.5001 -8.33225,30.6689 -17.1665,51.1678z"
         id="glyph225" /><glyph
         unicode="ç"
         horiz-adv-x="500"
         d="M404.999 189.999l86.0006 -11.9986c-9.49984,-59.1661 -33.4993,-105.334 -72.3324,-138.833 -38.8353,-33.4993 -86.6684,-50.1661 -143.168,-50.1661 -70.8331,0 -127.832,23.1658 -170.834,69.4997 -43.1672,46.3339 -64.6657,112.667 -64.6657,198.999 0,55.9995 9.33176,104.834 27.8317,146.834 18.4999,41.8338 46.6678,73.3319 84.6671,94.167 37.8335,20.9987 78.9995,31.5003 123.668,31.5003 56.1654,0 102.333,-14.168 138,-42.6675 35.8323,-28.4995 58.8322,-68.9999 68.8318,-121.333l-84.9988 -13.0004c-8.16641,34.8327 -22.5002,60.9993 -43.3331,78.6656 -20.667,17.5004 -45.6683,26.3347 -75.0015,26.3347 -44.3326,0 -80.3329,-15.8331 -108.167,-47.5014 -27.6658,-31.832 -41.4999,-81.8322 -41.4999,-150.498 0,-69.6677 13.3343,-120.168 40.0006,-151.668 26.8344,-31.5003 61.6672,-47.3334 104.5,-47.3334 34.6669,0 63.5004,10.5016 86.5003,31.6684 23.1658,20.9987 37.8335,53.4985 43.9987,97.3313zm-205.332 -276l25.3329 86.0006 64.9996 0 -16.167 -51.9992c27.8339,-3.33469 48.8349,-11.835 63.0006,-25.6668 14.168,-13.6682 21.1668,-29.0015 21.1668,-45.8341 0,-24.3334 -11.8328,-45.8341 -35.5006,-64.4999 -23.4997,-18.6658 -59.1661,-27.9998 -106.665,-27.9998 -26.8344,0 -50.5,0 -70.8331,0l4.9998 61.9988c21.1668,-0.665594 36.5001,-0.999511 46.4997,-0.999511 30.8325,0 52.6671,4.16613 65.1655,12.6665 9.49984,6.50131 14.3338,14.3338 14.3338,23.8336 0,5.83347 -1.83318,11.0013 -5.66539,15.5014 -3.66861,4.50004 -10.5016,8.49809 -20.5012,11.6647 -10.1654,3.16661 -26.8322,5.00204 -50.1661,5.33372z"
         id="glyph227" /><glyph
         unicode="Ö"
         horiz-adv-x="777"
         d="M47.999 348.5c0,118.666 32.0001,211.666 95.8343,278.832 63.8343,67.1667 146.166,100.668 247.166,100.668 66.1672,0 125.667,-15.8331 178.834,-47.3334 52.9988,-31.5003 93.4991,-75.5012 121.333,-132.001 27.8339,-56.3335 41.8338,-120.334 41.8338,-191.834 0,-72.4982 -14.6677,-137.5 -44.0009,-194.665 -29.3332,-57.333 -70.8331,-100.668 -124.5,-130.001 -53.8324,-29.499 -111.833,-44.1668 -174,-44.1668 -67.5006,0 -127.666,16.3351 -180.833,48.8349 -53.001,32.4998 -93.3333,76.8324 -120.667,133.166 -27.3319,56.1676 -41.0001,115.668 -41.0001,178.5zm98.0014 -1.66735c0,-86.1664 23.1658,-153.999 69.4997,-203.499 46.3339,-49.5005 104.5,-74.3336 174.5,-74.3336 71.3328,0 129.833,24.999 175.999,74.9992 45.9999,50.0002 68.9999,121.001 68.9999,213.001 0,58.1666 -9.83152,109.001 -29.499,152.334 -19.6675,43.3331 -48.501,76.9982 -86.3322,100.832 -38.0016,23.8336 -80.501,35.8345 -127.669,35.8345 -66.9986,0 -124.666,-23 -172.998,-68.9999 -48.3351,-45.9999 -72.5004,-122.666 -72.5004,-230.168zm111.999 413.168l0 99.9982 91.9999 0 0 -99.9982 -91.9999 0zm182.001 0l0 99.9982 91.9999 0 0 -99.9982 -91.9999 0z"
         id="glyph229" /><glyph
         unicode="Å"
         horiz-adv-x="666"
         d="M-1.49927 0l274.666 716 104.167 0 291.499 -716 -107.833 0 -82.8317 216.999 -301.501 0 -77.6661 -216.999 -100.5 0zm206 294l244 0 -74.6675 198.499c-22.5002,60.3337 -39.4986,110.168 -51.3337,149.501 -9.83376,-46.6678 -23,-92.4996 -39.4986,-137.834l-78.4997 -210.166zm30.4985 476.5c0,23.8336 8.66617,44.3326 26.0007,61.6672 17.3323,17.1665 37.8335,25.8327 61.4991,25.8327 24.0017,0 44.5007,-8.66617 61.6672,-26.1666 17.1665,-17.5004 25.8327,-38.4991 25.8327,-63.3323 0,-25.1671 -8.66617,-46.3339 -25.8327,-63.5004 -17.1665,-17.3346 -37.4996,-26.0007 -61.1674,-26.0007 -24.3334,0 -44.9982,8.66617 -62.1647,26.1666 -17.1687,17.5004 -25.8349,39.167 -25.8349,65.3335zm36.9999 -0.499756c0,-15.3333 5.16788,-27.9998 15.3333,-38.5014 10.1677,-10.3313 22.1663,-15.4992 36.1684,-15.4992 13.9999,0 25.9985,5.16788 36.1662,15.4992 10.1654,10.5016 15.3333,23 15.3333,37.5018 0,14.6655 -4.9998,27.0003 -15.0016,37.4996 -10.1654,10.3335 -22.1663,15.4992 -36.4979,15.4992 -14.0021,0 -26.0007,-5.16564 -36.1684,-15.3333 -10.1654,-10.1654 -15.3333,-22.5002 -15.3333,-36.6659z"
         id="glyph231" /><glyph
         unicode="´"
         horiz-adv-x="333"
         d="M108.001 583l63.9979 137 116.002 0 -107.002 -137 -72.998 0z"
         id="glyph233" /><glyph
         unicode="£"
         horiz-adv-x="556"
         d="M192.666 395l153.333 0 0 -72.0007 -138.166 0c6.16739,-14.1657 9.16592,-28.3314 9.16592,-42.6652 0,-27.9998 -6.83298,-57.8327 -20.3331,-89.0013 -13.5001,-31.3322 -35.6664,-63.3323 -66.667,-96.0002 25.8349,7.1669 49.1666,10.6674 70.3333,10.6674 27.0003,0 57.501,-4.16613 91.3343,-12.5006 55.9995,-13.666 93.8331,-20.4989 113.666,-20.4989 23.9995,0 55.3339,9.334 93.6672,27.9998l28.9993 -81.0008c-29.9988,-12.8323 -53.3327,-21.1668 -69.6655,-25.1648 -16.5009,-3.83445 -33.0018,-5.83347 -49.1666,-5.83347 -13.834,0 -27.6681,1.33343 -41.668,3.83221 -8.83201,1.66735 -29.9988,7.66666 -63.3323,18.0002 -33.5016,10.1677 -55.1681,16.3328 -64.8338,18.3341 -15.3333,2.49878 -30.6666,3.83221 -45.9999,3.83221 -23.4997,0 -48.501,-4.16613 -75.1673,-12.6665 -26.6663,-8.33225 -50.8339,-19.8334 -72.6663,-34.333l-33.4993 83.9993c31.4981,17.3346 58.1666,42.1677 80.1649,74.3336 21.8346,32.1659 32.8337,71.5009 32.8337,117.833 0,20.0014 -2.8327,40.1687 -8.33225,60.8335l-96.668 0 0 72.0007 76.001 0c-10.8333,36.5001 -17.6663,63.0006 -20.5012,79.8332 -2.99853,16.8348 -4.50004,33.1676 -4.50004,49.0007 0,67.8323 25.0012,120.667 75.1673,158.833 40.3345,30.1669 89.1672,45.3343 146.5,45.3343 59.0003,0 107.501,-16.167 145.835,-48.501 38.1652,-32.4998 61.6649,-78 70.4992,-136.501l-87.0001 -12.9981c-4.83396,38.9989 -19.4994,69.8313 -43.667,92.3316 -24.3334,22.5002 -53.3327,33.6674 -87.334,33.6674 -36.1662,0 -66.165,-11.6669 -90.1667,-35.0008 -23.8314,-23.1658 -35.8323,-51.3314 -35.8323,-84.3332 0,-36.1662 9.16592,-83.3337 27.6658,-141.666z"
         id="glyph235" /><glyph
         unicode=""
         horiz-adv-x="750"
         d="M124.999 0l0 624.999 500 0 0 -624.999 -500 0zm16.0011 15.9989l468 0 0 593.002 -468 0 0 -593.002z"
         id="glyph237" /><glyph
         unicode=""
         horiz-adv-x="750"
         d="M124.999 0l0 624.999 500 0 0 -624.999 -500 0zm16.0011 15.9989l468 0 0 593.002 -468 0 0 -593.002z"
         id="glyph239" /><glyph
         unicode="p"
         horiz-adv-x="556"
         d="M65.9991 -198.999l0 717.999 80.0013 0 0 -68.1662c18.8338,26.3324 40.1665,46.1658 64.0001,59.3342 23.6656,13.1662 52.499,19.8334 86.3322,19.8334 44.3348,0 83.3337,-11.3353 117.167,-34.1672 33.8332,-22.6683 59.3342,-54.8342 76.6666,-96.1682 17.1665,-41.4999 25.8327,-86.832 25.8327,-136.332 0,-52.8329 -9.49984,-100.5 -28.4995,-143 -18.9997,-42.3336 -46.6655,-74.8334 -82.9998,-97.4994 -36.1662,-22.5002 -74.3336,-33.8332 -114.332,-33.8332 -29.3332,0 -55.6679,6.16515 -78.8337,18.4999 -23.3339,12.3325 -42.3336,27.8317 -57.333,46.6655l0 -253.165 -88.0018 0zm80.0013 455.333c0,-66.5011 13.5001,-115.668 40.3323,-147.502 27.0003,-31.832 59.6681,-47.8331 98.0014,-47.8331 38.9989,0 72.3324,16.5009 99.9982,49.5005 27.8339,32.9996 41.668,83.9993 41.668,153.167 0,65.9991 -13.5001,115.334 -40.6662,148.165 -27.1683,32.8337 -59.5001,49.1688 -97.1678,49.1688 -37.3338,0 -70.3333,-17.5004 -98.9987,-52.3354 -28.8334,-34.9986 -43.1672,-85.6666 -43.1672,-152.331z"
         id="glyph241" /><glyph
         unicode="_"
         horiz-adv-x="556"
         d="M-14.9994 -198.999l0 62.9984 582 0 0 -62.9984 -582 0z"
         id="glyph243" /><glyph
         unicode="N"
         horiz-adv-x="722"
         d="M76.001 0l0 716 97.3313 0 375.668 -561.999 0 561.999 91.0004 0 0 -716 -97.3336 0 -375.668 562.001 0 -562.001 -90.9981 0z"
         id="glyph245" /><glyph
         unicode="="
         horiz-adv-x="583"
         d="M528 421l-472 0 0 82.0003 472 0 0 -82.0003zm0 -217.002l-472 0 0 82.0003 472 0 0 -82.0003z"
         id="glyph247" /><glyph
         unicode=","
         horiz-adv-x="277"
         d="M88.9991 0l0 100 100 0 0 -100c0,-36.834 -6.49907,-66.667 -19.6653,-89.333 -13.0004,-22.6661 -33.8332,-40.3345 -62.335,-52.6671l-23.9995 37.9994c18.6658,8.16641 32.334,20.1673 41.0001,35.8345 8.83425,15.8331 13.834,38.4991 14.8336,68.1662l-49.8344 0z"
         id="glyph249" /><glyph
         unicode="õ"
         horiz-adv-x="556"
         d="M32.9996 259.501c0,95.8321 26.6663,166.833 80.1671,212.999 44.5007,38.3333 99.0009,57.501 163.167,57.501 71.167,0 129.499,-23.3339 174.834,-70.0017 45.1663,-46.4997 67.8323,-111 67.8323,-193.166 0,-66.667 -9.9996,-119 -29.9988,-157.168 -20.0014,-38.1652 -49.1666,-67.8323 -87.4998,-88.9991 -38.1674,-21.1668 -80.0013,-31.6661 -125.168,-31.6661 -72.6663,0 -131.333,23.1658 -176.167,69.6655 -44.8323,46.4997 -67.1667,113.501 -67.1667,200.835zm90.0009 -0.168079c0,-66.333 14.4996,-115.999 43.4989,-148.833 29.1674,-32.9996 65.6675,-49.5005 109.834,-49.5005 43.667,0 79.999,16.5009 109.166,49.6663 28.9993,33.1676 43.5012,83.6676 43.5012,151.5 0,64.0001 -14.6677,112.501 -43.8351,145.335 -29.1651,32.9996 -65.4994,49.5005 -108.832,49.5005 -44.1668,0 -80.6668,-16.3351 -109.834,-49.1666 -28.9993,-32.8337 -43.4989,-82.3342 -43.4989,-148.501zm-7.00106 322.667c-0.331676,33.4993 9.00009,60.1657 27.8339,80.1671 18.4999,19.8334 42.3336,29.833 71.3328,29.833 20.1673,0 47.6673,-8.50033 82.3342,-25.6668 19.1655,-9.49984 34.4988,-14.3338 45.8341,-14.3338 10.4994,0 18.4999,2.8327 23.9995,8.50033 5.49955,5.49955 9.33176,16.8326 11.6669,33.4993l62.9984 0c-0.999511,-36.9999 -10.3335,-64.6657 -27.9998,-83.1656 -17.6663,-18.4999 -39.9984,-27.8339 -67.3326,-27.8339 -20.3331,0 -47.3334,9.16592 -80.6668,27.3342 -21.8324,11.8328 -37.8335,17.6663 -47.999,17.6663 -11.0013,0 -20.0014,-3.83445 -26.6686,-11.6669 -7.1669,-7.66666 -10.6652,-19.1655 -10.3335,-34.333l-64.9996 0z"
         id="glyph251" /><glyph
         unicode="ä"
         horiz-adv-x="556"
         d="M404.999 64.9996c-32.6656,-27.8339 -64.1659,-47.3334 -94.3328,-58.8322 -30.1669,-11.5011 -62.5008,-17.1665 -97.1655,-17.1665 -57.0013,0 -100.834,13.8318 -131.501,41.6657 -30.6666,27.6658 -45.9999,63.1664 -45.9999,106.334 0,25.3329 5.83347,48.4987 17.3323,69.4997 11.6669,21.0009 26.8344,37.6677 45.5002,50.3341 18.8338,12.6665 39.8348,22.3321 63.3345,28.8334 17.3323,4.50004 43.4989,8.83201 78.3317,13.1662 71.0012,8.33225 123.5,18.4999 157.002,30.1669 0.331676,11.9986 0.499756,19.6653 0.499756,22.8319 0,35.6664 -8.33449,60.8335 -25.0012,75.5012 -22.5002,19.8334 -55.9995,29.6671 -100.332,29.6671 -41.4999,0 -72.1665,-7.33498 -91.834,-21.8346 -19.8334,-14.4996 -34.333,-40.1665 -43.8328,-77.1663l-86.0006 12.0009c7.83249,36.8318 20.667,66.667 38.6672,89.333 18.0002,22.6661 43.9987,40.0006 78,52.3332 33.8332,12.1667 73.3341,18.3341 118.001,18.3341 44.3326,0 80.4988,-5.16788 108.333,-15.6672 27.6658,-10.4994 48.167,-23.4997 61.1674,-39.3328 12.9981,-15.8353 22.1663,-35.8345 27.5,-60.0021 2.8327,-14.9994 4.33196,-41.9997 4.33196,-80.8327l0 -116.667c0,-81.4983 1.83318,-133 5.49955,-154.832 3.50053,-21.8324 10.8333,-42.6675 21.5007,-62.6667l-91.9999 0c-8.83425,18.4999 -14.4996,40.1665 -17.0007,64.9996zm-6.99882 195.001c-32.0001,-13.0004 -80.0013,-24.0017 -144.001,-33.0018 -36.332,-5.16564 -61.9988,-10.9991 -76.9982,-17.4982 -15.0016,-6.50131 -26.5005,-16.0011 -34.6669,-28.3337 -8.16641,-12.5006 -12.3348,-26.3347 -12.3348,-41.668 0,-23.1658 8.83425,-42.6652 26.6663,-58.1666 17.8343,-15.4992 43.8351,-23.3316 78,-23.3316 33.8355,0 64.0001,7.33274 90.5006,22.1663 26.3347,14.6655 45.8341,34.8327 58.1666,60.3337 9.49984,19.8334 14.168,48.9985 14.168,87.4998l0.499756 32.0001zm-246.001 322.999l0 100 91.9999 0 0 -100 -91.9999 0zm182.001 0l0 100 91.9999 0 0 -100 -91.9999 0z"
         id="glyph253" /><glyph
         unicode="Ó"
         horiz-adv-x="777"
         d="M47.999 348.5c0,118.666 32.0001,211.666 95.8343,278.832 63.8343,67.1667 146.166,100.668 247.166,100.668 66.1672,0 125.667,-15.8331 178.834,-47.3334 52.9988,-31.5003 93.4991,-75.5012 121.333,-132.001 27.8339,-56.3335 41.8338,-120.334 41.8338,-191.834 0,-72.4982 -14.6677,-137.5 -44.0009,-194.665 -29.3332,-57.333 -70.8331,-100.668 -124.5,-130.001 -53.8324,-29.499 -111.833,-44.1668 -174,-44.1668 -67.5006,0 -127.666,16.3351 -180.833,48.8349 -53.001,32.4998 -93.3333,76.8324 -120.667,133.166 -27.3319,56.1676 -41.0001,115.668 -41.0001,178.5zm98.0014 -1.66735c0,-86.1664 23.1658,-153.999 69.4997,-203.499 46.3339,-49.5005 104.5,-74.3336 174.5,-74.3336 71.3328,0 129.833,24.999 175.999,74.9992 45.9999,50.0002 68.9999,121.001 68.9999,213.001 0,58.1666 -9.83152,109.001 -29.499,152.334 -19.6675,43.3331 -48.501,76.9982 -86.3322,100.832 -38.0016,23.8336 -80.501,35.8345 -127.669,35.8345 -66.9986,0 -124.666,-23 -172.998,-68.9999 -48.3351,-45.9999 -72.5004,-122.666 -72.5004,-230.168zm171.999 413.168l64.0001 137 116.002 0 -107.002 -137 -73.0002 0z"
         id="glyph255" /><glyph
         unicode="Â"
         horiz-adv-x="666"
         d="M-1.49927 0l274.666 716 104.167 0 291.499 -716 -107.833 0 -82.8317 216.999 -301.501 0 -77.6661 -216.999 -100.5 0zm206 294l244 0 -74.6675 198.499c-22.5002,60.3337 -39.4986,110.168 -51.3337,149.501 -9.83376,-46.6678 -23,-92.4996 -39.4986,-137.834l-78.4997 -210.166zm119.5 549.001l-54.5003 -82.9998 -100 0 104.5 137 92.9994 0 111.499 -137 -99.9982 0 -54.5003 82.9998z"
         id="glyph257" /><glyph
         unicode="±"
         horiz-adv-x="548"
         d="M232.001 127.001l0 195.998 -195.001 0 0 82.0003 195.001 0 0 195.001 82.9998 0 0 -195.001 194.999 0 0 -82.0003 -194.999 0 0 -195.998 -82.9998 0zm277.999 -127.001l-473 0 0 82.0003 473 0 0 -82.0003z"
         id="glyph259" /><glyph
         unicode=""
         horiz-adv-x="750"
         d="M124.999 0l0 624.999 500 0 0 -624.999 -500 0zm16.0011 15.9989l468 0 0 593.002 -468 0 0 -593.002z"
         id="glyph261" /><glyph
         unicode="~"
         horiz-adv-x="583"
         d="M41.9997 273.001l0 99.9982c34.5011,38.6672 79.8332,58.0008 135.833,58.0008 19.6675,0 40.1687,-2.8327 61.6672,-8.66617 21.5007,-5.66763 52.1673,-17.1665 91.834,-34.1672 22.5002,-9.49984 39.3328,-15.8331 50.6658,-18.6658 11.1672,-3.00078 22.5002,-4.50004 33.8332,-4.50004 21.3349,0 43.1672,6.33323 65.8333,18.9997 22.6683,12.8323 42.6675,28.8334 60.3337,47.999l0 -103.998c-20.8329,-19.3336 -41.9997,-33.3335 -63.3323,-42.0019 -21.3349,-8.66617 -45.3343,-12.9981 -72.0007,-12.9981 -19.6675,0 -38.3333,2.33294 -55.9995,6.83298 -17.8343,4.66588 -45.9999,15.665 -84.5013,32.9996 -38.665,17.5004 -70.8331,26.1666 -96.6658,26.1666 -20.8329,0 -40.5004,-4.50004 -58.8345,-13.3343 -18.3318,-8.83201 -41.3318,-26.4983 -68.666,-52.6648z"
         id="glyph263" /><glyph
         unicode="m"
         horiz-adv-x="833"
         d="M65.9991 0l0 519 79.0017 0 0 -73.3341c16.1647,25.3352 37.8335,45.8341 64.8315,61.1674 27.0003,15.5014 57.6669,23.168 92.168,23.168 38.3333,0 69.8336,-8.00057 94.3328,-23.8336 24.4992,-16.0011 41.8338,-38.1674 51.8334,-66.835 41.3341,60.5018 94.8326,90.6687 160.834,90.6687 51.6653,0 91.5001,-14.168 119.166,-42.6675 27.8339,-28.4995 41.8338,-72.3346 41.8338,-131.501l0 -355.833 -87.9996 0 0 326.668c0,34.9986 -3.00078,60.3315 -8.66841,75.8329 -5.66539,15.4992 -15.9989,27.8317 -31.1664,37.3338 -14.9994,9.49984 -32.6656,14.1657 -52.8329,14.1657 -36.6659,0 -66.9986,-12.1667 -91.1662,-36.3343 -24.1676,-24.3334 -36.1662,-63.1664 -36.1662,-116.499l0 -301.167 -87.9996 0 0 336.833c0,39.0011 -7.1669,68.3343 -21.5007,87.8337 -14.3338,19.4994 -37.8335,29.3332 -70.3333,29.3332 -24.6673,0 -47.5014,-6.49907 -68.5002,-19.4994 -21.0009,-13.0004 -36.1662,-32.0001 -45.666,-57.1671 -9.334,-25.0012 -13.9999,-61.1674 -13.9999,-108.333l0 -269.001 -88.0018 0z"
         id="glyph265" /><glyph
         unicode="\"
         horiz-adv-x="277"
         d="M207.668 -12.0009l-207.002 740.002 70.3333 0 207.002 -740.002 -70.3333 0z"
         id="glyph267" /><glyph
         unicode="K"
         horiz-adv-x="666"
         d="M73.0002 0l0 716 95.0006 0 0 -354.999 355.665 354.999 128.334 0 -300.333 -290.333 313.333 -425.666 -124.999 0 -254.833 361.332 -117.167 -113.332 0 -248 -95.0006 0z"
         id="glyph269" /><glyph
         unicode=":"
         horiz-adv-x="277"
         d="M90.0009 418.999l0 100 99.9982 0 0 -100 -99.9982 0zm0 -418.999l0 100 99.9982 0 0 -100 -99.9982 0z"
         id="glyph271" /><glyph
         unicode=")"
         horiz-adv-x="333"
         d="M124 -210l-63.0006 0c97.3336,156.168 146,312.5 146,468.999 0,61.1674 -6.99882,121.835 -20.9987,182.001 -11.0013,48.8326 -26.5005,95.6662 -46.3339,140.667 -12.6665,29.1674 -39.0011,78 -78.6678,146.334l63.0006 0c60.9993,-81.6664 106.168,-163.667 135.501,-246.001 24.999,-70.8331 37.4996,-145.001 37.4996,-222.499 0,-87.8337 -16.8348,-172.835 -50.5,-254.835 -33.5016,-82.0003 -74.3336,-153.499 -122.501,-214.666z"
         id="glyph273" /><glyph
         unicode="ò"
         horiz-adv-x="556"
         d="M32.9996 259.501c0,95.8321 26.6663,166.833 80.1671,212.999 44.5007,38.3333 99.0009,57.501 163.167,57.501 71.167,0 129.499,-23.3339 174.834,-70.0017 45.1663,-46.4997 67.8323,-111 67.8323,-193.166 0,-66.667 -9.9996,-119 -29.9988,-157.168 -20.0014,-38.1652 -49.1666,-67.8323 -87.4998,-88.9991 -38.1674,-21.1668 -80.0013,-31.6661 -125.168,-31.6661 -72.6663,0 -131.333,23.1658 -176.167,69.6655 -44.8323,46.4997 -67.1667,113.501 -67.1667,200.835zm90.0009 -0.168079c0,-66.333 14.4996,-115.999 43.4989,-148.833 29.1674,-32.9996 65.6675,-49.5005 109.834,-49.5005 43.667,0 79.999,16.5009 109.166,49.6663 28.9993,33.1676 43.5012,83.6676 43.5012,151.5 0,64.0001 -14.6677,112.501 -43.8351,145.335 -29.1651,32.9996 -65.4994,49.5005 -108.832,49.5005 -44.1668,0 -80.6668,-16.3351 -109.834,-49.1666 -28.9993,-32.8337 -43.4989,-82.3342 -43.4989,-148.501zm224 323.667l-71.0012 0 -112.999 137 117.998 0 66.0014 -137z"
         id="glyph275" /><glyph
         unicode="á"
         horiz-adv-x="556"
         d="M404.999 64.9996c-32.6656,-27.8339 -64.1659,-47.3334 -94.3328,-58.8322 -30.1669,-11.5011 -62.5008,-17.1665 -97.1655,-17.1665 -57.0013,0 -100.834,13.8318 -131.501,41.6657 -30.6666,27.6658 -45.9999,63.1664 -45.9999,106.334 0,25.3329 5.83347,48.4987 17.3323,69.4997 11.6669,21.0009 26.8344,37.6677 45.5002,50.3341 18.8338,12.6665 39.8348,22.3321 63.3345,28.8334 17.3323,4.50004 43.4989,8.83201 78.3317,13.1662 71.0012,8.33225 123.5,18.4999 157.002,30.1669 0.331676,11.9986 0.499756,19.6653 0.499756,22.8319 0,35.6664 -8.33449,60.8335 -25.0012,75.5012 -22.5002,19.8334 -55.9995,29.6671 -100.332,29.6671 -41.4999,0 -72.1665,-7.33498 -91.834,-21.8346 -19.8334,-14.4996 -34.333,-40.1665 -43.8328,-77.1663l-86.0006 12.0009c7.83249,36.8318 20.667,66.667 38.6672,89.333 18.0002,22.6661 43.9987,40.0006 78,52.3332 33.8332,12.1667 73.3341,18.3341 118.001,18.3341 44.3326,0 80.4988,-5.16788 108.333,-15.6672 27.6658,-10.4994 48.167,-23.4997 61.1674,-39.3328 12.9981,-15.8353 22.1663,-35.8345 27.5,-60.0021 2.8327,-14.9994 4.33196,-41.9997 4.33196,-80.8327l0 -116.667c0,-81.4983 1.83318,-133 5.49955,-154.832 3.50053,-21.8324 10.8333,-42.6675 21.5007,-62.6667l-91.9999 0c-8.83425,18.4999 -14.4996,40.1665 -17.0007,64.9996zm-6.99882 195.001c-32.0001,-13.0004 -80.0013,-24.0017 -144.001,-33.0018 -36.332,-5.16564 -61.9988,-10.9991 -76.9982,-17.4982 -15.0016,-6.50131 -26.5005,-16.0011 -34.6669,-28.3337 -8.16641,-12.5006 -12.3348,-26.3347 -12.3348,-41.668 0,-23.1658 8.83425,-42.6652 26.6663,-58.1666 17.8343,-15.4992 43.8351,-23.3316 78,-23.3316 33.8355,0 64.0001,7.33274 90.5006,22.1663 26.3347,14.6655 45.8341,34.8327 58.1666,60.3337 9.49984,19.8334 14.168,48.9985 14.168,87.4998l0.499756 32.0001zm-185.002 322.999l64.0001 137 116.002 0 -107.002 -137 -73.0002 0z"
         id="glyph277" /><glyph
         unicode="Ð"
         horiz-adv-x="722"
         d="M77.0005 0l0 326 -78.9995 0 0 64.0001 78.9995 0 0 326 246.666 0c55.3339,0 97.6675,-3.33245 126.833,-10.1654 41.0001,-9.50208 76.001,-26.6686 104.834,-51.3337 37.6654,-32.0001 65.9991,-72.6663 84.6671,-122.335 18.6658,-49.6663 27.9998,-106.5 27.9998,-170.332 0,-72.8344 -11.5011,-135.667 -34.6669,-188.168 -23,-52.6671 -50.6681,-90.8323 -82.834,-114.5 -32.1659,-23.8336 -69.3338,-40.8321 -111.168,-50.8339 -23.1658,-5.49955 -57.8327,-8.33225 -104.332,-8.33225l-257.999 0zm94.9984 83.9993l152.334 0c47.3334,0 84.3332,4.3342 110.834,13.1685 26.6663,8.83201 47.6673,21.1645 63.3345,36.6659 22.3321,22.6661 39.8325,52.8329 52.499,90.6664 12.6665,37.8335 18.9997,83.9993 18.9997,138.334 0,56.1654 -6.16515,101 -18.6658,134.665 -12.5006,33.5016 -28.8334,60.5018 -49.0007,80.6668 -19.9992,20.1673 -42.4994,34.3352 -67.1667,42.1677 -24.6673,7.83249 -62.3328,11.6669 -113.332,11.6669l-149.835 0 0 -242.001 197 0 0 -64.0001 -197 0 0 -242.001z"
         id="glyph279" /><glyph
         unicode="¿"
         horiz-adv-x="610"
         d="M357 519l0 -100 -90.0009 0 0 100 90.0009 0zm-5.99931 -175.999c0.331676,-11.0013 0.499756,-19.3336 0.499756,-24.8332 0,-35.8345 -4.83396,-66.333 -14.6677,-91.3343 -7.1669,-18.9997 -18.6658,-37.9994 -34.4988,-57.1671 -11.6669,-13.9999 -32.6679,-34.333 -63.0006,-60.9993 -30.3327,-26.8322 -50.0002,-48.167 -59.0003,-64.1659 -8.83425,-16.167 -13.3343,-33.6674 -13.3343,-52.6671 0,-34.8327 13.3343,-64.9996 40.1665,-91.0004 26.6686,-25.8327 59.5001,-38.833 98.3353,-38.833 37.3315,0 68.5002,11.8328 93.8331,35.5006 25.3329,23.6656 41.8338,60.4996 49.6663,110.5l90.0009 -11.0013c-8.16865,-66.165 -32.334,-117.333 -72.6685,-153.165 -40.1665,-35.8345 -93.1652,-53.8347 -158.999,-53.8347 -70.5014,0 -126.501,19.1678 -168.001,57.333 -41.4999,38.1674 -62.3328,84.5013 -62.3328,138.668 0,31.6661 7.1669,60.6677 21.6665,86.8342 14.4996,26.1666 42.9992,57.9986 85.4986,95.8321 28.8334,25.6668 47.8354,44.6665 56.5015,56.6674 8.83201,11.9986 15.1652,25.8327 19.3336,41.4999 4.00029,15.6672 6.33323,41.0001 6.99882,76.1668l84.0015 0z"
         id="glyph281" /><glyph
         unicode="®"
         horiz-adv-x="736"
         d="M369.833 728.001c61.833,0 122.167,-15.8331 181.167,-47.6673 58.8345,-31.6661 104.834,-77.1663 137.666,-136.167 32.8337,-59.1661 49.3346,-120.833 49.3346,-184.833 0,-63.5004 -16.167,-124.668 -48.6668,-183.166 -32.334,-58.6664 -77.6661,-104.167 -136.167,-136.501 -58.5006,-32.4998 -119.666,-48.6668 -183.334,-48.6668 -63.832,0 -124.999,16.167 -183.5,48.6668 -58.4983,32.334 -103.998,77.8342 -136.498,136.501 -32.5021,58.4983 -48.8349,119.666 -48.8349,183.166 0,64.0001 16.5009,125.667 49.5005,184.833 33.1676,59.0003 79.1676,104.5 138,136.167 59.0003,31.8342 119.334,47.6673 181.333,47.6673zm0 -61.0016c-51.8334,0 -102.333,-13.332 -151.332,-39.8325 -49.0007,-26.5005 -87.334,-64.4999 -115,-113.832 -27.6681,-49.3346 -41.4999,-100.668 -41.4999,-154.001 0,-53.1668 13.666,-104.001 40.8321,-152.668 27.1661,-48.6668 65.1677,-86.6662 114,-113.832 48.8326,-27.1661 99.8324,-40.8343 152.999,-40.8343 53.001,0 104.001,13.6682 152.833,40.8343 48.8349,27.1661 86.8342,65.1655 113.834,113.832 27.0003,48.6668 40.5004,99.5007 40.5004,152.668 0,53.3327 -13.834,104.666 -41.3341,154.001 -27.5,49.3324 -65.8333,87.3318 -115,113.832 -49.1666,26.5005 -99.5007,39.8325 -150.834,39.8325zm-161.833 -510.999l0 395.999 136.335 0c46.6655,0 80.3329,-3.66637 101.166,-10.9991 21.0009,-7.33274 37.4996,-19.9992 50.0002,-38.3333 12.3325,-18.166 18.4999,-37.4996 18.4999,-58.0008 0,-28.8334 -10.3335,-54.1663 -31.1664,-75.499 -20.667,-21.5007 -48.167,-33.4993 -82.5,-36.1662 13.9999,-5.83347 25.3329,-12.8345 33.6674,-21.0009 15.9989,-15.4992 35.4983,-41.6657 58.6664,-78.4997l48.3329 -77.5002 -77.6661 0 -35.3347 62.3328c-27.6658,49.1666 -50.1661,80.0013 -67.1667,92.3338 -11.6669,9.00009 -28.6654,13.5001 -51.1656,13.3343l-37.6677 0 0 -168.001 -64.0001 0zm64.0001 223.001l77.6683 0c37.1657,0 62.4986,5.49955 75.9987,16.4987 13.5001,11.0013 20.3331,25.6668 20.3331,43.667 0,11.6669 -3.33245,22.1663 -9.83376,31.3345 -6.49907,9.33176 -15.4992,16.1647 -26.998,20.6648 -11.6669,4.50004 -33.0018,6.83522 -64.334,6.83522l-72.8344 0 0 -119z"
         id="glyph283" /><glyph
         unicode=""
         horiz-adv-x="750"
         d="M124.999 0l0 624.999 500 0 0 -624.999 -500 0zm16.0011 15.9989l468 0 0 593.002 -468 0 0 -593.002z"
         id="glyph285" /><glyph
         unicode=""
         horiz-adv-x="750"
         d="M124.999 0l0 624.999 500 0 0 -624.999 -500 0zm16.0011 15.9989l468 0 0 593.002 -468 0 0 -593.002z"
         id="glyph287" /><glyph
         unicode="{"
         horiz-adv-x="334"
         d="M27.9998 299c25.1671,0.667835 45.666,7.33274 61.5013,20.3331 15.8331,12.8345 26.4983,30.5008 31.6661,52.8329 5.16564,22.5002 7.99833,60.8335 8.33225,115.168 0.168079,54.3322 0.999511,90.1667 2.50102,107.499 2.99853,27.3342 8.33225,49.1666 16.3328,65.8333 7.83249,16.5009 17.6663,29.8352 29.3332,39.8348 11.6669,9.83376 26.6663,17.5004 44.8346,22.6661 12.3325,3.16661 32.3317,4.83396 60.3315,4.83396l27.1683 0 0 -77.0005 -15.0016 0c-33.4993,0 -55.6656,-6.16739 -66.667,-18.3341 -10.8333,-12.1667 -16.3328,-39.3328 -16.3328,-81.6664 0,-85.1669 -1.83318,-138.999 -5.49955,-161.5 -5.83347,-34.8327 -15.9989,-61.6672 -30.1669,-80.501 -14.3338,-18.8316 -36.6659,-35.6664 -67.3326,-50.1661 36.1662,-14.9994 62.3328,-37.8335 78.6656,-68.5002 16.167,-30.6666 24.3334,-80.9985 24.3334,-150.832 0,-63.3345 0.333918,-101 0.999511,-113.001 2.66686,-22.1663 9.16816,-37.4996 19.6675,-46.3339 10.6674,-8.83201 31.3345,-13.1662 62.1669,-13.1662l15.1675 0 0 -77.0005 -27.3342 0c-31.8342,0 -55,2.66686 -69.3338,7.83474 -20.667,7.49858 -37.9994,19.4994 -51.6653,36.332 -13.6682,16.6667 -22.5002,37.8335 -26.5005,63.5004 -4.16613,25.6668 -6.33323,67.8323 -6.66714,126.333 -0.333918,58.5006 -3.16661,99.0009 -8.33225,121.333 -5.16788,22.5002 -15.5014,40.1665 -31.1686,53.1668 -15.8331,13.0004 -35.9981,19.8334 -60.9993,20.5012l0 79.999z"
         id="glyph289" /><glyph
         unicode="j"
         horiz-adv-x="222"
         d="M65.4994 614l0 101.999 87.9996 0 0 -101.999 -87.9996 0zm-111.333 -814.667l16.167 74.4995c17.6663,-4.50004 31.5003,-6.83298 41.668,-6.83298 18.0002,0 31.3322,5.99931 40.1665,17.8343 8.83201,11.8328 13.332,41.6657 13.332,89.1649l0 545 87.9996 0 0 -546.834c0,-63.832 -8.33225,-108.333 -24.999,-133.332 -21.1668,-32.5021 -56.3335,-48.8349 -105.5,-48.8349 -23.8336,0 -46.6655,3.16661 -68.8341,9.334z"
         id="glyph291" /><glyph
         unicode="Y"
         horiz-adv-x="666"
         d="M278.832 0l0 303.334 -276 412.666 114 0 141.5 -216.665c26.3324,-40.1687 50.8339,-80.3352 73.166,-120.502 21.8346,37.4996 48.3329,79.5015 79.1676,126.167l138.665 211 110.502 0 -286.001 -412.666 0 -303.334 -95.0006 0z"
         id="glyph293" /><glyph
         unicode="H"
         horiz-adv-x="722"
         d="M81.0008 0l0 716 94.9984 0 0 -294.999 370.001 0 0 294.999 95.0006 0 0 -716 -95.0006 0 0 336.999 -370.001 0 0 -336.999 -94.9984 0z"
         id="glyph295" /><glyph
         unicode="7"
         horiz-adv-x="556"
         d="M46.9994 623l0 83.9993 463 0 0 -68.0004c-45.5002,-48.4987 -90.8323,-112.999 -135.499,-193.5 -44.8346,-80.4988 -79.3334,-163.333 -103.835,-248.5 -17.4982,-59.834 -28.8334,-125.667 -33.6652,-197l-90.0009 0c0.999511,56.3335 12.0009,124.5 33.1676,204.333 21.1668,80.0013 51.3314,156.999 90.8323,231.167 39.5009,74.1655 81.5005,136.666 126.001,187.5l-350.002 0z"
         id="glyph297" /><glyph
         unicode="&amp;"
         horiz-adv-x="666"
         d="M475.667 85.0011c-28.9993,-32.0001 -60.6677,-56.0018 -94.8326,-72.0007 -34.1672,-16.0011 -71.167,-23.9995 -111.002,-23.9995 -73.3319,0 -131.499,24.6651 -174.5,73.9997 -34.8327,40.3323 -52.3332,85.1669 -52.3332,134.833 0,44.1668 14.168,83.9993 42.6675,119.5 28.4995,35.6664 71.167,66.8328 127.666,93.8331 -32.4998,36.9999 -54.1663,67.1667 -64.9996,90.3325 -10.8333,23 -16.3328,45.3343 -16.3328,66.835 0,42.9992 16.8326,80.3329 50.6658,111.999 33.6674,31.8342 76.1668,47.6673 127.5,47.6673 48.8326,0 88.9991,-15.0016 120.165,-45.0004 31.1686,-30.001 46.6678,-66.1672 46.6678,-108.167 0,-68.1662 -45.3343,-126.501 -136.167,-174.666l129.668 -162.667c14.8313,28.6654 26.3324,61.833 34.4988,99.6665l91.0004 -19.6675c-15.6672,-62.3328 -36.834,-113.332 -63.6662,-153.167 32.8337,-43.4989 70.1653,-79.999 111.665,-109.666l-58.9981 -69.6655c-35.3347,22.5002 -71.6668,55.9995 -109.334,100zm-179.999 371.832c38.3333,22.6683 63.0006,42.3336 74.3336,59.3342 11.333,17.0007 16.9984,35.8323 16.9984,56.4993 0,24.5015 -7.83249,44.5007 -23.3316,59.9998 -15.5014,15.5014 -35.0008,23.3339 -58.1666,23.3339 -23.8336,0 -43.8351,-7.66666 -59.6681,-23 -15.8331,-15.3333 -23.8336,-34.1672 -23.8336,-56.4993 0,-11.0013 2.83494,-22.8341 8.66841,-35.0008 5.66539,-12.3325 14.1657,-25.3329 25.6668,-38.9989l39.3328 -45.6683zm124 -303.166l-160.334 200.167c-47.6673,-28.1678 -79.8332,-54.3344 -96.3318,-78.4997 -16.6667,-24.1676 -25.0012,-48.0012 -25.0012,-71.6668 0,-28.8334 11.5011,-58.8345 34.6669,-90.0009 23,-31.1664 55.6656,-46.6655 97.8333,-46.6655 26.3324,0 53.6666,7.99833 81.6664,24.1653 28.1678,16.167 50.6658,36.9999 67.5006,62.5008z"
         id="glyph299" /><glyph
         unicode="ï"
         horiz-adv-x="277"
         d="M96.9997 0l0 519 87.9996 0 0 -519 -87.9996 0zm-93.9989 583l0 100 91.9999 0 0 -100 -91.9999 0zm181.998 0l0 100 91.9999 0 0 -100 -91.9999 0z"
         id="glyph301" /><glyph
         unicode="Þ"
         horiz-adv-x="666"
         d="M77.0005 0l0 716 94.9984 0 0 -146 175.002 0c47.4992,0 83.8335,-2.33294 109.332,-6.83298 35.0008,-6.16739 64.4999,-17.5004 88.1677,-33.8332 23.6656,-16.5009 42.6652,-39.5009 56.999,-68.9999 14.3338,-29.499 21.5007,-61.9988 21.5007,-97.4994 0,-60.3337 -19.3336,-111.667 -58.0008,-153.667 -38.6672,-42.1677 -108.667,-63.1664 -209.667,-63.1664l-183.334 0 0 -146 -94.9984 0zm94.9984 230l184.502 0c60.9993,0 104.332,11.333 129.999,34.1672 25.6668,22.8341 38.4991,54.6661 38.4991,95.8321 0,29.6671 -7.49858,55.1681 -22.3321,76.6688 -14.9994,21.4985 -34.8327,35.6664 -59.5001,42.4994 -15.8331,4.50004 -45.3343,6.83298 -88.4993,6.83298l-182.669 0 0 -256z"
         id="glyph303" /><glyph
         unicode="Í"
         horiz-adv-x="277"
         d="M92.9994 0l0 716 95.0006 0 0 -716 -95.0006 0zm-28.9993 760.001l64.0001 137 115.999 0 -106.999 -137 -73.0002 0z"
         id="glyph305" /><glyph
         unicode="¼"
         horiz-adv-x="834"
         d="M123 -27.9998l537.665 756 76.6666 0 -537.665 -756 -76.6666 0zm38.9989 386l0 271.166c-33.1654,-26.3324 -69.4997,-44.8323 -108.998,-55.1659l0 59.9998c20.165,6.50131 42.4994,18.3341 67.1667,35.5006 24.6651,17.1665 44.6665,35.6664 59.9998,55.4998l52.8329 0 0 -367 -71.0012 0zm537 -372.999l0 74.9992 -186.998 0 0 60.3337 197.666 231.667 59.3342 0 0 -239 50.9997 0 0 -53.001 -50.9997 0 0 -74.9992 -70.0017 0zm0 128l0 128.5 -112.333 -128.5 112.333 0z"
         id="glyph307" /><glyph
         unicode="«"
         horiz-adv-x="556"
         d="M166 257.5l127.001 -222.499 -71.0012 0 -156.999 222.499 156.999 222.501 72.0007 0 -128 -222.501zm189 0l130.001 -222.499 -73.9997 0 -154.001 222.499 154.001 222.501 73.9997 0 -130.001 -222.501z"
         id="glyph309" /><glyph
         unicode=""
         horiz-adv-x="750"
         d="M124.999 0l0 624.999 500 0 0 -624.999 -500 0zm16.0011 15.9989l468 0 0 593.002 -468 0 0 -593.002z"
         id="glyph311" /><glyph
         unicode=""
         horiz-adv-x="750"
         d="M124.999 0l0 624.999 500 0 0 -624.999 -500 0zm16.0011 15.9989l468 0 0 593.002 -468 0 0 -593.002z"
         id="glyph313" /><glyph
         unicode="x"
         horiz-adv-x="500"
         d="M5.99931 0l189.502 268.833 -175.502 250.167 108.167 0 82.0003 -122.501c15.1675,-23 27.1661,-41.6657 35.6664,-56.3335 14.8336,20.8351 27.9998,39.6667 39.8348,56.5015l86.3322 122.333 107.501 0 -176.501 -250.167 188 -268.833 -106.999 0 -107.333 160 -24.5015 38.4991 -138.665 -198.499 -107.501 0z"
         id="glyph315" /><glyph
         unicode="g"
         horiz-adv-x="556"
         d="M49.8344 -42.9992l84.9988 -12.0009c3.50053,-26.3324 13.5001,-45.5002 29.833,-57.6669 21.8346,-16.167 51.6676,-24.3334 89.5011,-24.3334 40.6662,0 72.1665,8.16641 94.3328,24.3334 22.1663,16.167 37.1657,39.0011 45.0004,68.1662 4.50004,17.8343 6.66714,55.3339 6.33323,112.501 -38.5014,-45.3343 -86.3345,-68.0004 -143.667,-68.0004 -71.3328,0 -126.667,25.6668 -165.666,77.1663 -39.167,51.3337 -58.6664,113.001 -58.6664,184.833 0,49.5005 9.00009,95.1665 26.8322,137 17.8343,41.8338 43.8328,73.9997 77.8342,96.8338 33.9991,22.8319 73.9997,34.1672 120,34.1672 61.1674,0 111.667,-25.0012 151.334,-75.0015l0 64.0001 80.9985 0 0 -448.167c0,-80.8327 -8.16641,-138 -24.6651,-171.667 -16.3351,-33.6652 -42.5016,-60.3315 -78,-79.8332 -35.6687,-19.4994 -79.5015,-29.3332 -131.501,-29.3332 -61.833,0 -111.667,13.834 -149.667,41.668 -38.1674,27.6658 -56.4993,69.4997 -55.1659,125.333zm71.9984 311.332c0,-67.8323 13.5001,-117.333 40.5004,-148.499 27.1661,-31.1664 60.9993,-46.8336 101.668,-46.8336 40.4981,0 74.3314,15.4992 101.831,46.4997 27.3342,31.0005 41.0001,79.6673 41.0001,146 0,63.3323 -14.1657,111.165 -42.3336,143.334 -28.1656,32.1659 -62.1647,48.167 -101.831,48.167 -39.167,0 -72.3346,-15.8331 -99.8346,-47.5014 -27.3319,-31.6661 -41.0001,-78.6656 -41.0001,-141.166z"
         id="glyph317" /><glyph
         unicode="V"
         horiz-adv-x="666"
         d="M280.999 0l-276.665 716 102.665 0 186.001 -520.333c14.8336,-41.6657 27.5,-80.6668 37.4996,-117.167 10.9991,39.167 23.8336,78.1658 38.4991,117.167l193.002 520.333 96.6658 0 -279.166 -716 -98.5012 0z"
         id="glyph319" /><glyph
         unicode="E"
         horiz-adv-x="666"
         d="M78.9995 0l0 716 517.001 0 0 -83.9993 -422 0 0 -220 395 0 0 -83.9993 -395 0 0 -244.002 439.001 0 0 -83.9993 -534.001 0z"
         id="glyph321" /><glyph
         unicode="4"
         horiz-adv-x="556"
         d="M322.999 0l0 170.999 -310.998 0 0 81.0008 326.999 464 72.0007 0 0 -464 96.9997 0 0 -81.0008 -96.9997 0 0 -170.999 -88.0018 0zm0 252l0 322.168 -224.5 -322.168 224.5 0z"
         id="glyph323" /><glyph
         unicode="#"
         horiz-adv-x="556"
         d="M50.0002 -12.0009l42.4994 208.001 -82.5 0 0 73.0002 97.3336 0 36.1662 176.999 -133.5 0 0 73.0002 148.333 0 42.6675 209.001 73.3319 0 -42.6652 -209.001 152.499 0 42.6675 209.001 73.166 0 -42.6675 -209.001 84.6671 0 0 -73.0002 -99.5007 0 -36.1662 -176.999 135.667 0 0 -73.0002 -150.5 0 -42.4994 -208.001 -73.3341 0 42.5016 208.001 -152.502 0 -42.4994 -208.001 -73.166 0zm130.499 281.002l152.502 0 36.1662 176.999 -152.499 0 -36.1684 -176.999z"
         id="glyph325" /><glyph
         unicode="ý"
         horiz-adv-x="500"
         d="M62.0011 -199.499l-10.0018 81.3324c19.3336,-5.16788 36.0003,-7.83249 50.3341,-7.83249 19.6675,0 35.3325,3.33245 46.9994,9.83152 11.8328,6.50131 21.5007,15.6672 29.0015,27.3342 5.49955,8.83425 14.4996,30.6666 26.8322,65.6675 1.66735,4.83172 4.16613,11.9986 7.83249,21.4985l-197 520.667 94.0011 0 108.333 -299.667c14.168,-37.8313 26.6663,-77.8319 37.8335,-119.832 10.1677,39.4986 22.1663,78.4997 36.1662,116.833l110.668 302.666 87.8337 0 -196.166 -528c-21.1668,-56.8332 -37.6677,-95.8343 -49.5005,-117.333 -15.6672,-28.8334 -33.6674,-50.0002 -53.8347,-63.5004 -20.3331,-13.5001 -44.4984,-20.1673 -72.4982,-20.1673 -17.0007,0 -36.0003,3.50053 -56.8332,10.5016zm138 782.499l64.0001 137 115.999 0 -106.999 -137 -73.0002 0z"
         id="glyph327" /><glyph
         unicode="ì"
         horiz-adv-x="277"
         d="M96.9997 0l0 519 87.9996 0 0 -519 -87.9996 0zm115 583l-70.9989 0 -113.001 137 118.001 0 65.9991 -137z"
         id="glyph329" /><glyph
         unicode="Û"
         horiz-adv-x="722"
         d="M546 716l95.0006 0 0 -413.5c0,-72.0007 -8.16641,-129.168 -24.3334,-171.499 -16.3328,-42.1677 -45.6683,-76.6666 -87.9996,-103.167 -42.5016,-26.5005 -98.0014,-39.8348 -167.001,-39.8348 -66.8328,0 -121.667,11.5011 -164.166,34.6669 -42.6675,23.168 -73.0002,56.5015 -91.1662,100.334 -18.166,43.8328 -27.3342,103.667 -27.3342,179.5l0 413.5 95.0006 0 0 -413.334c0,-62.1669 5.83347,-108.167 17.3323,-137.5 11.5011,-29.499 31.1686,-52.3332 59.3342,-68.1662 27.9998,-15.9989 62.3328,-23.9995 102.833,-23.9995 69.3338,0 118.834,15.8331 148.333,47.3334 29.5013,31.6661 44.1668,92.3338 44.1668,182.332l0 413.334zm-183 127.001l-54.5003 -82.9998 -100 0 104.5 137 93.0016 0 111.499 -137 -100 0 -54.5003 82.9998z"
         id="glyph331" /><glyph
         unicode="Ê"
         horiz-adv-x="666"
         d="M78.9995 0l0 716 517.001 0 0 -83.9993 -422 0 0 -220 395 0 0 -83.9993 -395 0 0 -244.002 439.001 0 0 -83.9993 -534.001 0zm267 843.001l-54.498 -82.9998 -100 0 104.5 137 92.9994 0 111.499 -137 -100 0 -54.5003 82.9998z"
         id="glyph333" /><glyph
         unicode="¹"
         horiz-adv-x="333"
         d="M161 358l0 271.166c-33.1654,-26.3324 -69.4997,-44.8323 -109.001,-55.1659l0 59.9998c20.1673,6.50131 42.5016,18.3341 67.1667,35.5006 24.6673,17.1665 44.6665,35.6664 59.9998,55.4998l52.8352 0 0 -367 -71.0012 0z"
         id="glyph335" /><glyph
         unicode="¨"
         horiz-adv-x="333"
         d="M28.9993 620l0 100 91.9999 0 0 -100 -91.9999 0zm182.001 0l0 100 91.9999 0 0 -100 -91.9999 0z"
         id="glyph337" /><glyph
         unicode=""
         horiz-adv-x="750"
         d="M124.999 0l0 624.999 500 0 0 -624.999 -500 0zm16.0011 15.9989l468 0 0 593.002 -468 0 0 -593.002z"
         id="glyph339" /><glyph
         unicode=""
         horiz-adv-x="750"
         d="M124.999 0l0 624.999 500 0 0 -624.999 -500 0zm16.0011 15.9989l468 0 0 593.002 -468 0 0 -593.002z"
         id="glyph341" /><glyph
         unicode="u"
         horiz-adv-x="556"
         d="M404.999 0l0 77.1663c-40.3323,-58.8322 -94.9984,-88.1654 -164.166,-88.1654 -30.4985,0 -59.0003,5.83347 -85.4986,17.4982 -26.5005,11.835 -46.168,26.5005 -59.0003,44.1668 -12.8345,17.8343 -21.8346,39.5009 -27.0003,65.1677 -3.50053,17.3323 -5.33372,44.6665 -5.33372,82.0003l0 321.166 87.9996 0 0 -287.167c0,-45.8319 1.83318,-76.8324 5.33372,-92.6655 5.49955,-23.168 17.1665,-41.1682 35.1667,-54.3344 17.8343,-13.1662 39.8325,-19.8334 66.1672,-19.8334 26.3324,0 50.9997,6.66714 73.9997,20.1673 23,13.5001 39.3328,32.0001 49.0007,55.1659 9.49984,23.168 14.3316,57.0013 14.3316,101.168l0 277.499 88.0018 0 0 -519 -79.0017 0z"
         id="glyph343" /><glyph
         unicode="d"
         horiz-adv-x="556"
         d="M400.999 0l0 65.8333c-32.8315,-51.1656 -81.1666,-76.8324 -144.999,-76.8324 -41.3341,0 -79.3334,11.333 -113.834,34.1649 -34.6669,22.6683 -61.4991,54.5003 -80.6668,95.1665 -18.9997,40.8343 -28.4995,87.6679 -28.4995,140.667 0,51.6676 8.66617,98.5012 25.8327,140.667 17.3346,42.0019 43.1672,74.3336 77.6683,96.668 34.333,22.5002 73.0002,33.6674 115.5,33.6674 31.3322,0 59.1661,-6.66714 83.4995,-19.8334 24.3334,-13.1685 44.1668,-30.5008 59.5001,-51.6676l0 257.5 87.9996 0 0 -716 -82.0003 0zm-277.999 258.833c0,-66.333 13.9999,-115.834 42.1655,-148.667 27.9998,-32.8315 61.1674,-49.1666 99.3349,-49.1666 38.4991,0 71.167,15.6672 98.165,47.0017 26.8344,31.3322 40.3345,79.1653 40.3345,143.499 0,70.6673 -13.666,122.666 -41.166,155.832 -27.3342,33.1676 -61.1674,49.6685 -101.334,49.6685 -39.167,0 -71.8348,-15.8331 -98.1673,-47.6673 -26.1666,-31.8342 -39.3328,-82.0003 -39.3328,-150.5z"
         id="glyph345" /><glyph
         unicode="S"
         horiz-adv-x="666"
         d="M45.9999 230l88.9991 8.00057c4.16837,-36.0003 13.9999,-65.4994 29.5013,-88.6674 15.4992,-23 39.4986,-41.6657 72.0007,-55.9995 32.4998,-14.1657 69.1657,-21.3326 109.832,-21.3326 36.1662,0 68.0004,5.33372 95.6662,16.167 27.6681,10.8333 48.167,25.6646 61.6672,44.4984 13.5001,18.8338 20.3331,39.3328 20.3331,61.3332 0,22.3344 -6.49907,41.8338 -19.4994,58.6664 -13.0004,16.6667 -34.5011,30.6666 -64.4999,42.1677 -19.1678,7.33274 -61.6672,18.9997 -127.5,34.8327 -65.8333,15.8331 -111.833,30.6666 -138.166,44.6665 -34.1672,18.0002 -59.5001,40.3345 -76.1668,66.835 -16.8348,26.4983 -25.1671,56.3312 -25.1671,89.1649 0,36.3343 10.3335,70.1675 30.8325,101.5 20.5012,31.5003 50.3341,55.3339 89.835,71.6668 39.3328,16.3351 83.1656,24.5015 131.333,24.5015 52.9988,0 99.8324,-8.50033 140.333,-25.6668 40.5004,-17.0007 71.6668,-42.1677 93.4991,-75.5012 21.8346,-33.1654 33.5016,-70.8331 35.1667,-112.833l-90.9981 -6.99882c-4.83396,45.1663 -21.3349,79.3312 -49.5005,102.333 -28.1678,23.1658 -69.8336,34.6647 -124.834,34.6647 -57.333,0 -99.1668,-10.4994 -125.333,-31.4981 -26.1666,-21.0009 -39.3328,-46.3339 -39.3328,-76.001 0,-25.6668 9.33176,-46.8336 27.8317,-63.5004 18.3341,-16.4987 65.8355,-33.6674 142.834,-50.9997 77.0005,-17.5004 129.833,-32.6656 158.501,-45.666 41.4999,-19.1678 72.3324,-43.3331 92.1657,-72.8344 19.8334,-29.3332 29.6671,-63.1664 29.6671,-101.5 0,-38.1674 -10.8333,-73.8339 -32.6656,-107.499 -21.8346,-33.6674 -53.001,-59.834 -93.8353,-78.502 -40.8321,-18.6658 -86.6662,-27.9998 -137.832,-27.9998 -64.6679,0 -118.834,9.49984 -162.501,28.3337 -43.8328,18.8338 -78,47.1675 -102.833,85.1669 -24.999,37.8335 -37.9994,80.6668 -39.3328,128.5z"
         id="glyph347" /><glyph
         unicode="B"
         horiz-adv-x="666"
         d="M73.0002 0l0 716 268.667 0c54.6661,0 98.4989,-7.1669 131.667,-21.6665 32.9996,-14.4996 58.8322,-36.834 77.5002,-67.0009 18.8338,-29.9988 28.1656,-61.4991 28.1656,-94.4987 0,-30.5008 -8.33225,-59.3342 -24.8332,-86.3345 -16.4987,-27.0003 -41.4999,-48.8326 -74.9992,-65.4994 43.3331,-12.6665 76.6666,-34.333 99.8324,-64.9996 23.3339,-30.5008 35.0008,-66.667 35.0008,-108.333 0,-33.6674 -7.1669,-64.8338 -21.3326,-93.6672 -14.168,-28.8334 -31.6684,-50.9997 -52.5012,-66.667 -20.8329,-15.4992 -46.9994,-27.3342 -78.3339,-35.3325 -31.5003,-8.00057 -69.9994,-12.0009 -115.665,-12.0009l-273.167 0zm95.0006 414.999l154.832 0c41.9997,0 72.1665,2.83494 90.3325,8.33449 24.1676,7.1669 42.3336,19.1655 54.5003,35.8323 12.1667,16.6667 18.3341,37.5018 18.3341,62.6667 0,23.8336 -5.66763,44.8346 -17.1665,62.8348 -11.333,18.166 -27.6658,30.6666 -48.8326,37.3338 -21.1668,6.6649 -57.501,9.9996 -108.835,9.9996l-143.165 0 0 -217.002zm0 -331l178.332 0c30.6666,0 52.1673,1.16759 64.6679,3.50053 21.6665,3.83445 39.9984,10.3335 54.6661,19.4994 14.6655,9.16816 26.6663,22.5002 36.1662,40.0006 9.49984,17.5004 14.1657,37.6677 14.1657,60.4996 0,26.8344 -6.83298,50.0002 -20.6648,69.8336 -13.6682,19.8334 -32.6679,33.6674 -57.0013,41.668 -24.1653,7.99833 -59.1661,11.9986 -104.666,11.9986l-165.666 0 0 -247z"
         id="glyph349" /><glyph
         unicode="1"
         horiz-adv-x="556"
         d="M372 0l-87.9996 0 0 560.334c-21.1668,-20.3331 -49.0007,-40.5004 -83.3337,-60.6677 -34.333,-20.165 -65.3335,-35.3325 -92.6655,-45.3321l0 84.9988c49.1666,23 92.1657,50.9997 129,84.0015 36.8318,32.8315 62.9984,64.6657 78.3317,95.6662l56.6674 0 0 -719.001z"
         id="glyph351" /><glyph
         unicode=" "
         horiz-adv-x="277"
         d=""
         id="glyph353" /><glyph
         unicode="ú"
         horiz-adv-x="556"
         d="M404.999 0l0 77.1663c-40.3323,-58.8322 -94.9984,-88.1654 -164.166,-88.1654 -30.4985,0 -59.0003,5.83347 -85.4986,17.4982 -26.5005,11.835 -46.168,26.5005 -59.0003,44.1668 -12.8345,17.8343 -21.8346,39.5009 -27.0003,65.1677 -3.50053,17.3323 -5.33372,44.6665 -5.33372,82.0003l0 321.166 87.9996 0 0 -287.167c0,-45.8319 1.83318,-76.8324 5.33372,-92.6655 5.49955,-23.168 17.1665,-41.1682 35.1667,-54.3344 17.8343,-13.1662 39.8325,-19.8334 66.1672,-19.8334 26.3324,0 50.9997,6.66714 73.9997,20.1673 23,13.5001 39.3328,32.0001 49.0007,55.1659 9.49984,23.168 14.3316,57.0013 14.3316,101.168l0 277.499 88.0018 0 0 -519 -79.0017 0zm-189.999 583l64.0001 137 115.999 0 -106.999 -137 -73.0002 0z"
         id="glyph355" /><glyph
         unicode="é"
         horiz-adv-x="556"
         d="M420.001 168.001l90.9981 -12.0009c-14.1657,-52.8329 -40.6662,-93.9989 -79.3334,-123.166 -38.665,-29.1674 -87.9996,-43.8328 -148.165,-43.8328 -75.6671,0 -135.667,23.3316 -179.999,69.9994 -44.3348,46.4997 -66.5011,111.999 -66.5011,196.166 0,87.0001 22.3344,154.667 67.1667,202.666 44.8323,48.167 102.999,72.1688 174.5,72.1688 69.1657,0 125.667,-23.502 169.5,-70.6673 43.8328,-47.1675 65.8333,-113.501 65.8333,-199.001 0,-5.16564 -0.165838,-12.9981 -0.499756,-23.3316l-386.499 0c3.33245,-56.8332 19.3336,-100.5 48.3329,-130.667 28.8334,-30.1669 64.9996,-45.3343 108.167,-45.3343 32.1659,0 59.6659,8.50033 82.332,25.501 22.8341,17.0007 40.8343,44.1668 54.1686,81.5005zm-288 140.998l289 0c-3.83445,43.667 -14.9994,76.3349 -33.1676,98.1673 -27.8339,33.8332 -64.1659,50.8339 -108.667,50.8339 -40.3323,0 -74.1655,-13.5001 -101.666,-40.5004 -27.3342,-27.0003 -42.5016,-63.1664 -45.5002,-108.501zm73.9997 274.001l64.0001 137 115.999 0 -106.999 -137 -73.0002 0z"
         id="glyph357" /><glyph
         unicode="Ø"
         horiz-adv-x="777"
         d="M610.166 650.5l81.8344 91.5001 48.167 -41.0001 -85.8347 -96.166c27.8339,-41.668 46.4997,-78 56.3335,-109.334 12.8345,-41.0001 19.3336,-87.0001 19.3336,-137.666 0,-73.3341 -14.8336,-138.668 -44.3326,-196.001 -29.6671,-57.333 -71.167,-100.5 -124.668,-129.833 -53.4985,-29.3332 -110.332,-44.0009 -170.5,-44.0009 -44.8323,0 -85.5008,6.33323 -121.833,19.0019 -27.9998,9.83152 -60.6677,28.6654 -98.1673,56.3312l-82.332 -92.3316 -48.167 41.166 86.1664 96.4999c-32.0001,48.501 -53.3327,89.8328 -64.0001,124.166 -10.8333,34.3352 -16.167,75.6671 -16.167,123.834 0,73.4999 14.6677,138.999 44.0009,196.335 29.3332,57.4988 70.3333,101 123.332,130.665 52.8329,29.5013 111.667,44.3348 176.501,44.3348 43.667,0 81.8322,-5.83347 114.5,-17.3346 32.8315,-11.4989 67.9982,-31.5003 105.832,-60.1657zm-59.1661 -66.1672c-30.8325,24.1676 -57.4988,40.6662 -80.4988,49.5005 -22.8341,8.83201 -49.6685,13.1662 -80.501,13.1662 -71.167,0 -129.999,-24.1676 -176.333,-72.5004 -46.4997,-48.3329 -69.6677,-120.499 -69.6677,-216.5 0,-37.6654 3.50053,-71.3328 10.6674,-100.5 5.16788,-21.8324 16.0011,-48.6668 32.4998,-80.4988l363.833 407.332zm40.0006 -50.3341l-362.5 -405.833c25.1671,-20.4989 48.3329,-34.8327 69.3338,-42.9992 27.6658,-10.8333 57.4988,-16.167 89.6647,-16.167 70.8353,0 129.168,24.999 175.334,75.1673 46.168,50.1661 69.168,120.499 69.168,210.832 0,67.8346 -13.6682,127.335 -41.0001,179z"
         id="glyph359" /><glyph
         unicode="Ç"
         horiz-adv-x="722"
         d="M587 251.166l95.0006 -23.9995c-19.8334,-77.8342 -55.4998,-137 -107.002,-177.835 -51.4995,-40.8321 -114.5,-61.3332 -189,-61.3332 -77.0005,0 -139.667,15.6672 -188,47.1675 -48.3329,31.3322 -84.9988,76.8324 -110.166,136.332 -25.1671,59.6681 -37.8335,123.5 -37.8335,191.834 0,74.4995 14.1657,139.499 42.6675,194.999 28.4995,55.4998 68.9999,97.6675 121.499,126.501 52.499,28.8334 110.334,43.1672 173.332,43.1672 71.6668,0 131.835,-18.1682 180.501,-54.6683 48.8326,-36.5001 82.834,-87.6657 101.999,-153.665l-92.9994 -22.0005c-16.5009,51.9992 -40.6662,89.9986 -72.1665,113.666 -31.5003,23.8336 -71.167,35.6664 -119,35.6664 -54.8342,0 -100.834,-13.1662 -137.668,-39.5009 -36.8318,-26.3324 -62.8325,-61.833 -77.6661,-106.166 -14.9994,-44.5007 -22.5002,-90.3325 -22.5002,-137.5 0,-60.8335 8.83425,-114 26.5005,-159.332 17.6663,-45.5002 45.1663,-79.3334 82.5,-101.834 37.3338,-22.5002 77.6661,-33.6674 121.167,-33.6674 52.9988,0 97.6653,15.3333 134.333,45.8341 36.6659,30.6666 61.4991,75.9987 74.4995,136.332zm-277.333 -337.167l25.3329 86.0006 64.9996 0 -16.167 -51.9992c27.8339,-3.33469 48.8349,-11.835 63.0006,-25.6668 14.168,-13.6682 21.1668,-29.0015 21.1668,-45.8341 0,-24.3334 -11.8328,-45.8341 -35.5006,-64.4999 -23.4997,-18.6658 -59.1661,-27.9998 -106.665,-27.9998 -26.8344,0 -50.5,0 -70.8331,0l4.9998 61.9988c21.1668,-0.665594 36.5001,-0.999511 46.4997,-0.999511 30.8325,0 52.6671,4.16613 65.1655,12.6665 9.49984,6.50131 14.3338,14.3338 14.3338,23.8336 0,5.83347 -1.83318,11.0013 -5.66539,15.5014 -3.66861,4.50004 -10.5016,8.49809 -20.5012,11.6647 -10.1654,3.16661 -26.8322,5.00204 -50.1661,5.33372z"
         id="glyph361" /><glyph
         unicode="¶"
         horiz-adv-x="537"
         d="M197 -198.999l0 510.999c-60.8335,3.33245 -108.832,23 -144.167,59.3342 -35.1667,36.1662 -52.8329,82.5 -52.8329,138.833 0,62.6667 19.6675,112.665 58.8322,149.998 39.167,37.1679 96.668,55.8337 172.167,55.8337l309.001 0 0 -83.9993 -70.0017 0 0 -831 -82.9998 0 0 831 -108.998 0 0 -831 -81.0008 0z"
         id="glyph363" /><glyph
         unicode="¥"
         horiz-adv-x="556"
         d="M233 0l0 160 -202 0 0 66.9986 202 0 0 70.0017 -202 0 0 71.9984 165.332 0 -197.332 347.001 97.9992 0 140.667 -252.166c15.6672,-28.8334 28.1678,-53.8347 37.3338,-75.0015 8.16641,16.6667 21.8324,43.0014 40.8343,79.0017l133.166 248.166 104.001 0 -196.668 -347.001 165.668 0 0 -71.9984 -201 0 0 -70.0017 201 0 0 -66.9986 -201 0 0 -160 -87.9996 0z"
         id="glyph365" /><glyph
         unicode=""
         horiz-adv-x="750"
         d="M124.999 0l0 624.999 500 0 0 -624.999 -500 0zm16.0011 15.9989l468 0 0 593.002 -468 0 0 -593.002z"
         id="glyph367" /><glyph
         unicode=""
         horiz-adv-x="750"
         d="M124.999 0l0 624.999 500 0 0 -624.999 -500 0zm16.0011 15.9989l468 0 0 593.002 -468 0 0 -593.002z"
         id="glyph369" /><glyph
         unicode="r"
         horiz-adv-x="333"
         d="M64.9996 0l0 519 78.9995 0 0 -79.4993c20.1673,36.834 38.8353,61.1652 56.0018,72.8321 17.1665,11.835 35.9981,17.6685 56.4993,17.6685 29.6671,0 59.834,-9.334 90.5006,-27.8339l-31.3345 -81.1666c-21.3326,11.9986 -42.6652,18.0002 -64.0001,18.0002 -19.1655,0 -36.332,-5.83347 -51.4995,-17.3346 -15.1675,-11.4989 -26.0007,-27.5 -32.4998,-47.999 -9.83376,-31.1664 -14.6677,-65.3335 -14.6677,-102.501l0 -271.166 -87.9996 0z"
         id="glyph371" /><glyph
         unicode="a"
         horiz-adv-x="556"
         d="M404.999 64.9996c-32.6656,-27.8339 -64.1659,-47.3334 -94.3328,-58.8322 -30.1669,-11.5011 -62.5008,-17.1665 -97.1655,-17.1665 -57.0013,0 -100.834,13.8318 -131.501,41.6657 -30.6666,27.6658 -45.9999,63.1664 -45.9999,106.334 0,25.3329 5.83347,48.4987 17.3323,69.4997 11.6669,21.0009 26.8344,37.6677 45.5002,50.3341 18.8338,12.6665 39.8348,22.3321 63.3345,28.8334 17.3323,4.50004 43.4989,8.83201 78.3317,13.1662 71.0012,8.33225 123.5,18.4999 157.002,30.1669 0.331676,11.9986 0.499756,19.6653 0.499756,22.8319 0,35.6664 -8.33449,60.8335 -25.0012,75.5012 -22.5002,19.8334 -55.9995,29.6671 -100.332,29.6671 -41.4999,0 -72.1665,-7.33498 -91.834,-21.8346 -19.8334,-14.4996 -34.333,-40.1665 -43.8328,-77.1663l-86.0006 12.0009c7.83249,36.8318 20.667,66.667 38.6672,89.333 18.0002,22.6661 43.9987,40.0006 78,52.3332 33.8332,12.1667 73.3341,18.3341 118.001,18.3341 44.3326,0 80.4988,-5.16788 108.333,-15.6672 27.6658,-10.4994 48.167,-23.4997 61.1674,-39.3328 12.9981,-15.8353 22.1663,-35.8345 27.5,-60.0021 2.8327,-14.9994 4.33196,-41.9997 4.33196,-80.8327l0 -116.667c0,-81.4983 1.83318,-133 5.49955,-154.832 3.50053,-21.8324 10.8333,-42.6675 21.5007,-62.6667l-91.9999 0c-8.83425,18.4999 -14.4996,40.1665 -17.0007,64.9996zm-6.99882 195.001c-32.0001,-13.0004 -80.0013,-24.0017 -144.001,-33.0018 -36.332,-5.16564 -61.9988,-10.9991 -76.9982,-17.4982 -15.0016,-6.50131 -26.5005,-16.0011 -34.6669,-28.3337 -8.16641,-12.5006 -12.3348,-26.3347 -12.3348,-41.668 0,-23.1658 8.83425,-42.6652 26.6663,-58.1666 17.8343,-15.4992 43.8351,-23.3316 78,-23.3316 33.8355,0 64.0001,7.33274 90.5006,22.1663 26.3347,14.6655 45.8341,34.8327 58.1666,60.3337 9.49984,19.8334 14.168,48.9985 14.168,87.4998l0.499756 32.0001z"
         id="glyph373" /><glyph
         unicode="P"
         horiz-adv-x="666"
         d="M77.0005 0l0 716 270.332 0c47.5014,0 83.8335,-2.33294 109.001,-6.83298 35.1667,-5.83347 64.6679,-17.0007 88.4993,-33.3335 23.8336,-16.5009 43.0014,-39.5009 57.501,-68.9999 14.4996,-29.499 21.6665,-62.0011 21.6665,-97.4994 0,-60.6677 -19.3336,-112.167 -58.1666,-154.167 -38.6672,-42.1677 -108.832,-63.1664 -210.166,-63.1664l-183.668 0 0 -292.001 -94.9984 0zm94.9984 376l185.002 0c61.3332,0 104.666,11.333 130.499,34.1672 25.6668,22.8319 38.5014,54.8319 38.5014,96.3318 0,29.8352 -7.50082,55.502 -22.6683,76.8346 -15.1652,21.3326 -35.1667,35.5006 -59.8317,42.3336 -16.0011,4.16613 -45.5002,6.33323 -88.3335,6.33323l-183.168 0 0 -256z"
         id="glyph375" /><glyph
         unicode="?"
         horiz-adv-x="556"
         d="M230.999 175.999c-0.331676,11.6669 -0.499756,20.5012 -0.499756,26.3347 0,34.4988 4.83396,64.1659 14.6677,89.1672 7.1669,18.9997 18.6658,37.9994 34.6669,57.1649 11.6669,13.9999 32.8315,34.333 63.1664,61.1674 30.4985,26.8344 50.1661,48.167 59.332,64.1659 9.16816,16.167 13.6682,33.5016 13.6682,52.5012 0,34.333 -13.3343,64.4999 -40.0006,90.5006 -26.6663,25.9985 -59.3342,38.9989 -97.9992,38.9989 -37.5018,0 -68.6682,-11.8328 -93.6672,-35.3325 -25.1671,-23.6678 -41.4999,-60.5018 -49.3346,-110.668l-89.9986 11.0013c8.16641,66.8328 32.1659,118.166 72.3324,153.665 40.1665,35.5006 93.1675,53.3349 159.167,53.3349 69.8336,0 125.501,-18.9997 167.167,-57.1671 41.4999,-38.1674 62.3328,-84.3332 62.3328,-138.5 0,-31.3345 -7.33274,-60.1679 -21.9982,-86.5003 -14.6677,-26.5005 -43.3353,-58.5006 -86.0006,-96.3341 -28.6676,-25.3329 -47.3334,-43.9987 -56.1676,-55.9995 -8.83201,-12.0009 -15.3333,-25.8327 -19.4994,-41.4999 -4.16613,-15.4992 -6.66714,-40.8343 -7.33274,-76.001l-84.0015 0zm-15.9989 -175.999l0 100 100 0 0 -100 -100 0z"
         id="glyph377" /><glyph
         unicode="."
         horiz-adv-x="277"
         d="M91.0004 0l0 100 100 0 0 -100 -100 0z"
         id="glyph379" /><glyph
         unicode="÷"
         horiz-adv-x="548"
         d="M224 450l0 100 100 0 0 -100 -100 0zm286.999 -138l-473 0 0 82.0003 473 0 0 -82.0003zm-286.999 -156l0 100 100 0 0 -100 -100 0z"
         id="glyph381" /><glyph
         unicode="æ"
         horiz-adv-x="889"
         d="M845.999 159.001c-16.3328,-54.1663 -43.9987,-96.1682 -82.9998,-125.667 -38.9989,-29.499 -87.4998,-44.3326 -145.333,-44.3326 -41.3341,0 -77.5002,7.83249 -108.667,23.4997 -31.0005,15.4992 -59.1661,39.9984 -84.1674,73.166 -33.8332,-33.1676 -68.0004,-57.6669 -102.665,-73.166 -34.6669,-15.6672 -72.0007,-23.4997 -112.001,-23.4997 -55.9995,0 -99.5007,14.3316 -130.499,42.9992 -31.1664,28.6676 -46.6678,63.6662 -46.6678,104.832 0,27.8339 8.00057,54.0005 23.9995,78.502 16.167,24.4992 38.5014,42.9992 67.1667,55.6656 28.6676,12.6665 74.5017,23 137.334,31.1664 48.6668,6.50131 89.5011,14.4996 122.501,23.8336 0.331676,8.16641 0.499756,14.8336 0.499756,19.9992 0,41.1682 -8.50033,69.8336 -25.501,86.3345 -16.9984,16.5009 -46.8336,24.6673 -89.333,24.6673 -28.1656,0 -51.9992,-3.33469 -71.4987,-10.1677 -19.5017,-6.83298 -33.8355,-16.5009 -43.0014,-28.9993 -9.334,-12.5006 -17.0007,-32.4998 -23.1658,-60.1679l-85.0011 10.3335c9.16816,38.0016 22.1663,68.1662 39.3328,90.5006 17.0007,22.3321 41.5021,39.8325 73.5022,52.499 31.832,12.6665 68.9999,19.0019 111.665,19.0019 54.3344,0 98.1673,-8.16865 131.333,-24.5015 19.1678,-9.33176 35.3347,-24.4992 48.3351,-45.3321 20.8329,22.8319 44.4984,40.1665 70.8331,51.9992 26.3324,11.8328 58.1666,17.8343 95.6662,17.8343 52.6671,0 96.3341,-12.8345 130.833,-38.3333 34.5011,-25.501 59.6681,-59.1684 75.6671,-101.168 15.8331,-41.8338 23.8336,-83.1656 23.8336,-123.834 0,-6.16515 -0.333918,-15.9989 -0.999511,-29.6649l-375.001 0c0.665594,-46.8336 6.49907,-80.8349 17.3323,-101.834 11.0013,-21.1668 28.3337,-38.833 52.3332,-53.001 24.0017,-14.1657 50.1683,-21.1668 78.8337,-21.1668 33.6674,0 62.0011,9.66792 85.335,28.8334 23.3316,19.1678 39.3328,46.168 48.1648,80.8349l91.9999 -11.6669zm-373.999 149.998l285.999 0c-4.50004,51.3337 -19.3336,88.8333 -43.9987,112.501 -24.8332,23.6656 -57.1671,35.5006 -96.9997,35.5006 -41.1682,0 -74.8334,-13.0004 -101.168,-39.0011 -26.3324,-25.8327 -40.8321,-62.3328 -43.8328,-109.001zm-86.0006 -48.9985c-25.6668,-11.0013 -77.8319,-22.8341 -156.834,-35.5006 -35.3325,-5.49955 -60.1657,-13.834 -74.4995,-24.8332 -19.1655,-15.3333 -28.6676,-35.1667 -28.6676,-59.834 0,-23.1658 8.66841,-42.4994 25.8349,-58.1666 17.1665,-15.8331 42.1655,-23.6656 74.9992,-23.6656 37.3338,0 69.8336,9.16592 97.4994,27.6658 27.8339,18.4999 45.9999,41.6657 54.3344,69.1657 4.83396,16.8348 7.33274,52.0015 7.33274,105.168z"
         id="glyph383" /><glyph
         unicode="Õ"
         horiz-adv-x="777"
         d="M47.999 348.5c0,118.666 32.0001,211.666 95.8343,278.832 63.8343,67.1667 146.166,100.668 247.166,100.668 66.1672,0 125.667,-15.8331 178.834,-47.3334 52.9988,-31.5003 93.4991,-75.5012 121.333,-132.001 27.8339,-56.3335 41.8338,-120.334 41.8338,-191.834 0,-72.4982 -14.6677,-137.5 -44.0009,-194.665 -29.3332,-57.333 -70.8331,-100.668 -124.5,-130.001 -53.8324,-29.499 -111.833,-44.1668 -174,-44.1668 -67.5006,0 -127.666,16.3351 -180.833,48.8349 -53.001,32.4998 -93.3333,76.8324 -120.667,133.166 -27.3319,56.1676 -41.0001,115.668 -41.0001,178.5zm98.0014 -1.66735c0,-86.1664 23.1658,-153.999 69.4997,-203.499 46.3339,-49.5005 104.5,-74.3336 174.5,-74.3336 71.3328,0 129.833,24.999 175.999,74.9992 45.9999,50.0002 68.9999,121.001 68.9999,213.001 0,58.1666 -9.83152,109.001 -29.499,152.334 -19.6675,43.3331 -48.501,76.9982 -86.3322,100.832 -38.0016,23.8336 -80.501,35.8345 -127.669,35.8345 -66.9986,0 -124.666,-23 -172.998,-68.9999 -48.3351,-45.9999 -72.5004,-122.666 -72.5004,-230.168zm79.999 412.166c-0.331676,33.5016 9.00009,60.1679 27.8339,80.1671 18.4999,19.8334 42.3336,29.833 71.3328,29.833 20.1673,0 47.6673,-8.49809 82.3342,-25.6646 19.1655,-9.50208 34.4988,-14.3338 45.8319,-14.3338 10.5016,0 18.5022,2.8327 24.0017,8.50033 5.49955,5.49955 9.33176,16.8326 11.6669,33.4993l62.9984 0c-0.999511,-36.9999 -10.3335,-64.6679 -27.9998,-83.1679 -17.6663,-18.4999 -39.9984,-27.8317 -67.3326,-27.8317 -20.3331,0 -47.3334,9.16592 -80.6668,27.3319 -21.8324,11.835 -37.8335,17.6663 -47.999,17.6663 -11.0013,0 -20.0014,-3.83221 -26.6686,-11.6647 -7.1669,-7.66666 -10.6652,-19.1678 -10.3335,-34.3352l-64.9996 0z"
         id="glyph385" /><glyph
         unicode="Ä"
         horiz-adv-x="666"
         d="M-1.49927 0l274.666 716 104.167 0 291.499 -716 -107.833 0 -82.8317 216.999 -301.501 0 -77.6661 -216.999 -100.5 0zm206 294l244 0 -74.6675 198.499c-22.5002,60.3337 -39.4986,110.168 -51.3337,149.501 -9.83376,-46.6678 -23,-92.4996 -39.4986,-137.834l-78.4997 -210.166zm-15.5014 466.001l0 99.9982 91.9999 0 0 -99.9982 -91.9999 0zm182.001 0l0 99.9982 91.9999 0 0 -99.9982 -91.9999 0z"
         id="glyph387" /><glyph
         unicode="³"
         horiz-adv-x="333"
         d="M15.9989 455l71.0012 7.00106c6.49907,-19.3336 14.9994,-32.4998 25.501,-39.5009 13.9999,-9.66568 30.4985,-14.4996 49.8321,-14.4996 23,0 41.6657,6.33323 55.6679,18.9997 13.9999,12.6665 20.9987,27.9998 20.9987,45.8341 0,16.3328 -5.83347,29.3332 -17.5004,38.9989 -11.6669,9.83376 -31.5003,14.6677 -59.8317,14.6677 -3.83445,0 -9.16816,-0.333918 -16.0011,-0.999511 -4.50004,-0.333918 -8.00057,-0.501997 -10.6674,-0.501997l10.8333 54.0005c26.3347,-0.333918 45.6683,4.3342 57.835,13.9999 12.1667,9.66792 18.3318,21.3349 18.3318,35.1667 0,11.835 -4.83172,22.0005 -14.6655,30.3349 -9.83376,8.33225 -24.3334,12.4984 -43.667,12.4984 -18.3341,0 -32.6656,-3.66637 -42.9992,-10.8333 -10.1677,-7.1669 -19.1678,-20.165 -26.6686,-39.167l-69.9994 11.0013c13.3343,34.6669 30.1669,58.6664 50.5,72.5004 20.3331,13.666 50.1683,20.4989 89.1672,20.4989 46.8336,0 81.0008,-8.66617 102.333,-25.8327 21.3326,-17.3346 32.0001,-38.833 32.0001,-64.8338 0,-17.6663 -5.66763,-33.4993 -17.1665,-47.3334 -11.5011,-13.9999 -28.1678,-23.9995 -49.8344,-30.1669 28.8334,-7.1669 50.0002,-18.9997 63.6684,-35.5006 13.5001,-16.4987 20.3331,-35.8323 20.3331,-57.9986 0,-30.5008 -12.8345,-57.0013 -38.5014,-79.5015 -25.6668,-22.5002 -62.3328,-33.8332 -109.832,-33.8332 -45.5002,0 -80.3352,9.00009 -104.335,27.1683 -23.9995,18.166 -39.4986,44.1668 -46.3339,77.8319z"
         id="glyph389" /><glyph
         unicode="¢"
         horiz-adv-x="556"
         d="M363.168 436l-109.001 -373.499c10.8333,-3.00078 20.8329,-4.50004 29.9988,-4.50004 34.1672,0 63.6662,11.4989 88.3335,34.6669 24.8332,23.1658 40.0006,55.6656 45.5002,97.3313l87.0001 -9.9996c-10.8333,-60.3337 -36.332,-107.667 -76.6666,-142.166 -40.3323,-34.5011 -87.9996,-51.8334 -142.834,-51.8334 -15.9989,0 -32.8337,2.33294 -50.5,7.1669l-57.333 -192.834 -54.6661 15.5014 56.6674 194.165c-37.5018,17.8343 -68.1685,47.6673 -92.0021,89.5011 -23.8314,41.6657 -35.6664,93.9989 -35.6664,156.834 0,57.8327 9.49984,107.499 28.5018,148.999 18.9997,41.4999 47.4992,72.6663 85.3327,93.4991 37.9994,20.8351 76.4985,31.1686 115.999,31.1686 11.6669,0 27.8339,-1.00175 48.6668,-3.00078l55.3339 189.333 54.5003 -16.0011 -55.1681 -189c32.334,-13.9999 57.1671,-32.8337 74.3336,-56.6674 17.3346,-23.6656 29.5013,-53.3327 36.3343,-88.9991l-85.1669 -13.1662c-8.66617,36.332 -24.3334,64.1659 -47.4992,83.4995zm-52.6671 22.0005c-10.5016,1.33343 -18.4999,1.99902 -24.5015,1.99902 -26.4983,0 -51.4995,-7.33274 -74.6653,-22.1663 -23.168,-14.8336 -40.5004,-37.6654 -52.0015,-68.8341 -11.4989,-30.9983 -17.3323,-66.9986 -17.3323,-107.999 0,-42.8333 5.16564,-79.1676 15.6672,-108.667 10.3335,-29.5013 25.1671,-51.4995 44.3326,-65.8333l108.501 371.5z"
         id="glyph391" /><glyph
         unicode=""
         horiz-adv-x="750"
         d="M124.999 0l0 624.999 500 0 0 -624.999 -500 0zm16.0011 15.9989l468 0 0 593.002 -468 0 0 -593.002z"
         id="glyph393" /><glyph
         unicode=""
         horiz-adv-x="750"
         d="M124.999 0l0 624.999 500 0 0 -624.999 -500 0zm16.0011 15.9989l468 0 0 593.002 -468 0 0 -593.002z"
         id="glyph395" /><glyph
         unicode="o"
         horiz-adv-x="556"
         d="M32.9996 259.501c0,95.8321 26.6663,166.833 80.1671,212.999 44.5007,38.3333 99.0009,57.501 163.167,57.501 71.167,0 129.499,-23.3339 174.834,-70.0017 45.1663,-46.4997 67.8323,-111 67.8323,-193.166 0,-66.667 -9.9996,-119 -29.9988,-157.168 -20.0014,-38.1652 -49.1666,-67.8323 -87.4998,-88.9991 -38.1674,-21.1668 -80.0013,-31.6661 -125.168,-31.6661 -72.6663,0 -131.333,23.1658 -176.167,69.6655 -44.8323,46.4997 -67.1667,113.501 -67.1667,200.835zm90.0009 -0.168079c0,-66.333 14.4996,-115.999 43.4989,-148.833 29.1674,-32.9996 65.6675,-49.5005 109.834,-49.5005 43.667,0 79.999,16.5009 109.166,49.6663 28.9993,33.1676 43.5012,83.6676 43.5012,151.5 0,64.0001 -14.6677,112.501 -43.8351,145.335 -29.1651,32.9996 -65.4994,49.5005 -108.832,49.5005 -44.1668,0 -80.6668,-16.3351 -109.834,-49.1666 -28.9993,-32.8337 -43.4989,-82.3342 -43.4989,-148.501z"
         id="glyph397" /><glyph
         unicode="^"
         horiz-adv-x="469"
         d="M116.667 336.999l-90.0009 0 172.001 391.002 70.9989 0 173.001 -391.002 -87.9996 0 -120.667 291.001 -117.333 -291.001z"
         id="glyph399" /><glyph
         unicode="M"
         horiz-adv-x="833"
         d="M74.9992 0l0 716 142 0 169.334 -506.833c15.6672,-47.1675 27.0003,-82.5 34.1672,-106 8.16641,25.9985 20.9987,64.334 38.3333,114.834l172.333 497.999 126.833 0 0 -716 -91.0004 0 0 599.001 -208.999 -599.001 -85.3327 0 -206.668 610 0 -610 -91.0004 0z"
         id="glyph401" /><glyph
         unicode="&lt;"
         horiz-adv-x="583"
         d="M55.9995 312.999l0 82.0003 472 200.001 0 -87.9996 -373.999 -153.501 373.999 -155.5 0 -87.9996 -472 202.999z"
         id="glyph403" /><glyph
         unicode="+"
         horiz-adv-x="583"
         d="M251.001 115.999l0 196.001 -195.001 0 0 82.0003 195.001 0 0 194.999 82.9998 0 0 -194.999 194.999 0 0 -82.0003 -194.999 0 0 -196.001 -82.9998 0z"
         id="glyph405" /><glyph
         unicode="ô"
         horiz-adv-x="556"
         d="M32.9996 259.501c0,95.8321 26.6663,166.833 80.1671,212.999 44.5007,38.3333 99.0009,57.501 163.167,57.501 71.167,0 129.499,-23.3339 174.834,-70.0017 45.1663,-46.4997 67.8323,-111 67.8323,-193.166 0,-66.667 -9.9996,-119 -29.9988,-157.168 -20.0014,-38.1652 -49.1666,-67.8323 -87.4998,-88.9991 -38.1674,-21.1668 -80.0013,-31.6661 -125.168,-31.6661 -72.6663,0 -131.333,23.1658 -176.167,69.6655 -44.8323,46.4997 -67.1667,113.501 -67.1667,200.835zm90.0009 -0.168079c0,-66.333 14.4996,-115.999 43.4989,-148.833 29.1674,-32.9996 65.6675,-49.5005 109.834,-49.5005 43.667,0 79.999,16.5009 109.166,49.6663 28.9993,33.1676 43.5012,83.6676 43.5012,151.5 0,64.0001 -14.6677,112.501 -43.8351,145.335 -29.1651,32.9996 -65.4994,49.5005 -108.832,49.5005 -44.1668,0 -80.6668,-16.3351 -109.834,-49.1666 -28.9993,-32.8337 -43.4989,-82.3342 -43.4989,-148.501zm152.999 406.667l-54.5003 -82.9998 -100 0 104.5 137 93.0016 0 111.499 -137 -100 0 -54.5003 82.9998z"
         id="glyph407" /><glyph
         unicode="ã"
         horiz-adv-x="556"
         d="M404.999 64.9996c-32.6656,-27.8339 -64.1659,-47.3334 -94.3328,-58.8322 -30.1669,-11.5011 -62.5008,-17.1665 -97.1655,-17.1665 -57.0013,0 -100.834,13.8318 -131.501,41.6657 -30.6666,27.6658 -45.9999,63.1664 -45.9999,106.334 0,25.3329 5.83347,48.4987 17.3323,69.4997 11.6669,21.0009 26.8344,37.6677 45.5002,50.3341 18.8338,12.6665 39.8348,22.3321 63.3345,28.8334 17.3323,4.50004 43.4989,8.83201 78.3317,13.1662 71.0012,8.33225 123.5,18.4999 157.002,30.1669 0.331676,11.9986 0.499756,19.6653 0.499756,22.8319 0,35.6664 -8.33449,60.8335 -25.0012,75.5012 -22.5002,19.8334 -55.9995,29.6671 -100.332,29.6671 -41.4999,0 -72.1665,-7.33498 -91.834,-21.8346 -19.8334,-14.4996 -34.333,-40.1665 -43.8328,-77.1663l-86.0006 12.0009c7.83249,36.8318 20.667,66.667 38.6672,89.333 18.0002,22.6661 43.9987,40.0006 78,52.3332 33.8332,12.1667 73.3341,18.3341 118.001,18.3341 44.3326,0 80.4988,-5.16788 108.333,-15.6672 27.6658,-10.4994 48.167,-23.4997 61.1674,-39.3328 12.9981,-15.8353 22.1663,-35.8345 27.5,-60.0021 2.8327,-14.9994 4.33196,-41.9997 4.33196,-80.8327l0 -116.667c0,-81.4983 1.83318,-133 5.49955,-154.832 3.50053,-21.8324 10.8333,-42.6675 21.5007,-62.6667l-91.9999 0c-8.83425,18.4999 -14.4996,40.1665 -17.0007,64.9996zm-6.99882 195.001c-32.0001,-13.0004 -80.0013,-24.0017 -144.001,-33.0018 -36.332,-5.16564 -61.9988,-10.9991 -76.9982,-17.4982 -15.0016,-6.50131 -26.5005,-16.0011 -34.6669,-28.3337 -8.16641,-12.5006 -12.3348,-26.3347 -12.3348,-41.668 0,-23.1658 8.83425,-42.6652 26.6663,-58.1666 17.8343,-15.4992 43.8351,-23.3316 78,-23.3316 33.8355,0 64.0001,7.33274 90.5006,22.1663 26.3347,14.6655 45.8341,34.8327 58.1666,60.3337 9.49984,19.8334 14.168,48.9985 14.168,87.4998l0.499756 32.0001zm-286.001 322c-0.331676,33.4993 9.00009,60.1657 27.8339,80.1671 18.4999,19.8334 42.3336,29.833 71.3328,29.833 20.1673,0 47.6673,-8.50033 82.3342,-25.6668 19.1655,-9.49984 34.5011,-14.3338 45.8341,-14.3338 10.4994,0 18.4999,2.8327 23.9995,8.50033 5.49955,5.49955 9.334,16.8326 11.6669,33.4993l62.9984 0c-0.999511,-36.9999 -10.3313,-64.6657 -27.9998,-83.1656 -17.6663,-18.4999 -39.9984,-27.8339 -67.3326,-27.8339 -20.3331,0 -47.3334,9.16592 -80.6668,27.3342 -21.8324,11.8328 -37.8335,17.6663 -47.999,17.6663 -11.0013,0 -20.0014,-3.83445 -26.6663,-11.6669 -7.1669,-7.66666 -10.6674,-19.1655 -10.3335,-34.333l-65.0019 0z"
         id="glyph409" /><glyph
         unicode="Ò"
         horiz-adv-x="777"
         d="M47.999 348.5c0,118.666 32.0001,211.666 95.8343,278.832 63.8343,67.1667 146.166,100.668 247.166,100.668 66.1672,0 125.667,-15.8331 178.834,-47.3334 52.9988,-31.5003 93.4991,-75.5012 121.333,-132.001 27.8339,-56.3335 41.8338,-120.334 41.8338,-191.834 0,-72.4982 -14.6677,-137.5 -44.0009,-194.665 -29.3332,-57.333 -70.8331,-100.668 -124.5,-130.001 -53.8324,-29.499 -111.833,-44.1668 -174,-44.1668 -67.5006,0 -127.666,16.3351 -180.833,48.8349 -53.001,32.4998 -93.3333,76.8324 -120.667,133.166 -27.3319,56.1676 -41.0001,115.668 -41.0001,178.5zm98.0014 -1.66735c0,-86.1664 23.1658,-153.999 69.4997,-203.499 46.3339,-49.5005 104.5,-74.3336 174.5,-74.3336 71.3328,0 129.833,24.999 175.999,74.9992 45.9999,50.0002 68.9999,121.001 68.9999,213.001 0,58.1666 -9.83152,109.001 -29.499,152.334 -19.6675,43.3331 -48.501,76.9982 -86.3322,100.832 -38.0016,23.8336 -80.501,35.8345 -127.669,35.8345 -66.9986,0 -124.666,-23 -172.998,-68.9999 -48.3351,-45.9999 -72.5004,-122.666 -72.5004,-230.168zm316 413.168l-71.0012 0 -112.999 137 117.998 0 66.0014 -137z"
         id="glyph411" /><glyph
         unicode="Á"
         horiz-adv-x="666"
         d="M-1.49927 0l274.666 716 104.167 0 291.499 -716 -107.833 0 -82.8317 216.999 -301.501 0 -77.6661 -216.999 -100.5 0zm206 294l244 0 -74.6675 198.499c-22.5002,60.3337 -39.4986,110.168 -51.3337,149.501 -9.83376,-46.6678 -23,-92.4996 -39.4986,-137.834l-78.4997 -210.166zm45.5002 466.001l63.9979 137 116.002 0 -107.002 -137 -72.998 0z"
         id="glyph413" /><glyph
         unicode="°"
         horiz-adv-x="399"
         d="M62.0011 592.834c0,37.3338 13.332,69.1657 39.8325,95.6662 26.5005,26.3347 58.3325,39.5009 95.5004,39.5009 37.6654,0 69.6655,-13.1662 96.166,-39.5009 26.3324,-26.5005 39.5009,-58.3325 39.5009,-95.6662 0,-37.4996 -13.3343,-69.4997 -39.8348,-96.0002 -26.5005,-26.5005 -58.5006,-39.8325 -95.8321,-39.8325 -37.1679,0 -68.9999,13.1662 -95.5004,39.4986 -26.5005,26.5005 -39.8325,58.5006 -39.8325,96.3341zm52.9988 -0.333918c0,-22.8319 8.00057,-42.1655 24.1676,-58.3325 16.167,-16.167 35.6664,-24.1676 58.6664,-24.1676 22.5002,0 41.8338,8.00057 57.9986,24.1676 16.167,16.167 24.1676,35.5006 24.1676,58.3325 0,22.8341 -8.00057,42.1677 -24.1676,58.3347 -16.1647,16.1647 -35.4983,24.1653 -57.9986,24.1653 -23,0 -42.4994,-8.00057 -58.6664,-24.1653 -16.167,-16.167 -24.1676,-35.5006 -24.1676,-58.3347z"
         id="glyph415" /><glyph
         unicode=""
         horiz-adv-x="750"
         d="M124.999 0l0 624.999 500 0 0 -624.999 -500 0zm16.0011 15.9989l468 0 0 593.002 -468 0 0 -593.002z"
         id="glyph417" /><glyph
         unicode=""
         horiz-adv-x="750"
         d="M124.999 0l0 624.999 500 0 0 -624.999 -500 0zm16.0011 15.9989l468 0 0 593.002 -468 0 0 -593.002z"
         id="glyph419" /><glyph
         unicode="}"
         horiz-adv-x="334"
         d="M306.001 299l0 -79.999c-25.1671,-0.667835 -45.6683,-7.50082 -61.5013,-20.5012 -15.8331,-13.0004 -26.4983,-30.6666 -31.6661,-52.8329 -5.16564,-22.3321 -8.00057,-60.4996 -8.33225,-114.834 -0.168079,-54.3322 -1.00175,-89.9986 -2.50102,-107.333 -3.00078,-27.5 -8.33225,-49.4982 -16.3328,-65.9991 -8.00057,-16.3328 -17.8343,-29.499 -29.6671,-39.5009 -11.6669,-9.83152 -26.6663,-17.4982 -45.0004,-22.6661 -12.3325,-3.50053 -32.4998,-5.33372 -60.6654,-5.33372l-27.3342 0 0 77.0005 15.1675 0c33.8332,0 56.1654,6.16739 67.3326,18.3341 10.9991,12.1667 16.5009,39.4986 16.5009,82.0003 0,81.3324 1.33343,132.666 3.99805,154.498 5.16788,36.0003 15.6672,64.8338 31.3345,86.5003 15.8331,21.6665 37.9994,38.3333 66.8328,50.5 -37.8335,17.8343 -64.4999,41.4999 -79.999,70.8331 -15.5014,29.5013 -23.168,79.1676 -23.168,149.167 0,63.3345 -0.331676,101.334 -0.999511,113.666 -2.33294,21.6665 -8.66617,36.9999 -19.3336,45.5002 -10.6652,8.66617 -31.5003,13.0004 -62.4986,13.0004l-15.1675 0 0 77.0005 27.3342 0c31.832,0 55,-2.66686 69.3316,-7.83474 20.8351,-7.1669 38.0016,-19.1655 51.6676,-36.1662 13.666,-16.8326 22.5002,-38.1674 26.5005,-63.832 4.16613,-25.6668 6.33323,-67.8346 6.66714,-126.501 0.331676,-58.5006 3.16661,-99.0009 8.33225,-121.167 5.16788,-22.3321 15.8331,-40.0006 31.6661,-52.9988 15.8331,-13.0004 36.3343,-19.8334 61.5013,-20.5012z"
         id="glyph421" /><glyph
         unicode="l"
         horiz-adv-x="222"
         d="M64.0001 0l0 716 87.9996 0 0 -716 -87.9996 0z"
         id="glyph423" /><glyph
         unicode="["
         horiz-adv-x="277"
         d="M68.0004 -198.999l0 914.999 193.999 0 0 -73.0002 -106 0 0 -768.999 106 0 0 -73.0002 -193.999 0z"
         id="glyph425" /><glyph
         unicode="J"
         horiz-adv-x="500"
         d="M28.9993 203.333l85.0011 11.6669c2.33294,-54.8342 12.5006,-92.3338 30.6666,-112.667 18.166,-20.1673 43.4989,-30.3327 75.6671,-30.3327 23.6656,0 44.1668,5.49955 61.3332,16.3328 17.1665,10.9991 29.1651,25.8327 35.6664,44.5007 6.49907,18.6658 9.66568,48.6668 9.66568,89.6669l0 493.499 95.0006 0 0 -487.833c0,-59.834 -7.1669,-106.166 -21.6665,-139.167 -14.4996,-32.8315 -37.3338,-57.8327 -68.8341,-75.1651 -31.3322,-17.1665 -68.1662,-25.8349 -110.332,-25.8349 -62.8348,0 -110.834,18.0002 -144.167,54.1686 -33.3335,36.1662 -49.3346,89.8328 -48.0012,161.166z"
         id="glyph427" /><glyph
         unicode="9"
         horiz-adv-x="556"
         d="M55 166l83.9993 7.00106c7.1669,-39.6667 20.8351,-68.3343 41.0001,-86.1664 20.1673,-17.8343 45.9999,-26.8344 77.6683,-26.8344 26.998,0 50.6658,6.16739 71.1648,18.6658 20.5012,12.3348 37.1679,28.8334 50.0002,49.6685 12.8345,20.6648 23.6678,48.6668 32.4998,83.8335 8.83425,35.1667 13.1685,70.9989 13.1685,107.499 0,3.83445 -0.168079,9.83376 -0.501997,17.6663 -17.4982,-27.9998 -41.4999,-50.8339 -71.8326,-68.1662 -30.3327,-17.5004 -63.3323,-26.1666 -98.667,-26.1666 -59.1661,0 -109.166,21.5007 -150.167,64.4999 -40.8321,42.8333 -61.3332,99.5007 -61.3332,169.834 0,72.6663 21.3326,130.999 64.1659,175.334 42.6675,44.1668 96.1682,66.333 160.668,66.333 46.3339,0 88.8333,-12.5006 127.5,-37.6677 38.4991,-24.999 67.6665,-60.6654 87.6657,-107.165 19.9992,-46.3339 30.001,-113.501 30.001,-201.334 0,-91.5001 -9.83376,-164.334 -29.6671,-218.501 -19.8334,-54.3322 -49.5005,-95.5004 -88.6674,-123.832 -39.167,-28.3337 -84.9988,-42.5016 -137.666,-42.5016 -55.9995,0 -101.668,15.5014 -137.166,46.6678 -35.3347,31.1664 -56.6674,74.9992 -63.8343,131.333zm358.999 315.834c0,50.3319 -13.332,90.3325 -39.9984,119.834 -26.5005,29.499 -58.8345,44.3326 -96.8338,44.3326 -39.3328,0 -73.3341,-15.8331 -101.999,-47.6673 -28.8334,-31.832 -43.1672,-73.166 -43.1672,-123.834 0,-45.4979 13.666,-82.5 40.8321,-110.831 27.3342,-28.5018 61.3332,-42.6675 101.834,-42.6675 40.6662,0 73.9997,14.1657 100.166,42.6675 26.1666,28.3314 39.167,67.8323 39.167,118.166z"
         id="glyph429" /><glyph
         unicode="("
         horiz-adv-x="333"
         d="M234 -210c-48.3329,61.1674 -89.333,132.666 -122.832,214.666 -33.5016,82.0003 -50.1683,167.001 -50.1683,254.835 0,77.498 12.5006,151.666 37.4996,222.499 29.3354,82.3342 74.5017,164.334 135.501,246.001l63.0006 0c-39.3328,-67.6665 -65.5016,-116.002 -78.1681,-145.001 -19.8334,-44.8323 -35.4983,-91.666 -46.8336,-140.501 -13.9999,-60.8313 -20.9987,-121.999 -20.9987,-183.5 0,-156.5 48.6668,-312.831 146,-468.999l-63.0006 0z"
         id="glyph431" /><glyph
         unicode="ñ"
         horiz-adv-x="556"
         d="M65.9991 0l0 519 79.0017 0 0 -73.6658c37.9994,56.4993 92.9994,84.6671 164.832,84.6671 31.3345,0 59.9998,-5.66763 86.1664,-16.8348 26.1666,-11.1672 45.8341,-25.9985 58.8345,-44.1668 13.0004,-18.166 22.1663,-39.8325 27.3319,-64.8338 3.16661,-16.3328 4.83396,-44.8323 4.83396,-85.4986l0 -318.667 -87.9996 0 0 315.332c0,35.8345 -3.33245,62.6667 -10.1677,80.3352 -6.83298,17.6663 -18.9997,31.832 -36.332,42.4994 -17.3346,10.4994 -37.8335,15.8331 -61.1674,15.8331 -37.3338,0 -69.4997,-11.8328 -96.6658,-35.6664 -27.1661,-23.6678 -40.6662,-68.8341 -40.6662,-135.167l0 -283.167 -88.0018 0zm61.0016 582c-0.333918,33.4993 9.00009,60.1657 27.8317,80.1671 18.4999,19.8334 42.3336,29.833 71.3351,29.833 20.165,0 47.665,-8.50033 82.332,-25.6668 19.1678,-9.49984 34.5011,-14.3338 45.8341,-14.3338 10.4994,0 18.4999,2.8327 23.9995,8.50033 5.49955,5.49955 9.334,16.8326 11.6669,33.4993l63.0006 0c-0.999511,-36.9999 -10.3335,-64.6657 -27.9998,-83.1656 -17.6685,-18.4999 -40.0006,-27.8339 -67.3348,-27.8339 -20.3331,0 -47.3334,9.16592 -80.6668,27.3342 -21.8324,11.8328 -37.8335,17.6663 -47.999,17.6663 -10.9991,0 -19.9992,-3.83445 -26.6663,-11.6669 -7.1669,-7.66666 -10.6674,-19.1655 -10.3335,-34.333l-64.9996 0z"
         id="glyph433" /><glyph
         unicode="à"
         horiz-adv-x="556"
         d="M404.999 64.9996c-32.6656,-27.8339 -64.1659,-47.3334 -94.3328,-58.8322 -30.1669,-11.5011 -62.5008,-17.1665 -97.1655,-17.1665 -57.0013,0 -100.834,13.8318 -131.501,41.6657 -30.6666,27.6658 -45.9999,63.1664 -45.9999,106.334 0,25.3329 5.83347,48.4987 17.3323,69.4997 11.6669,21.0009 26.8344,37.6677 45.5002,50.3341 18.8338,12.6665 39.8348,22.3321 63.3345,28.8334 17.3323,4.50004 43.4989,8.83201 78.3317,13.1662 71.0012,8.33225 123.5,18.4999 157.002,30.1669 0.331676,11.9986 0.499756,19.6653 0.499756,22.8319 0,35.6664 -8.33449,60.8335 -25.0012,75.5012 -22.5002,19.8334 -55.9995,29.6671 -100.332,29.6671 -41.4999,0 -72.1665,-7.33498 -91.834,-21.8346 -19.8334,-14.4996 -34.333,-40.1665 -43.8328,-77.1663l-86.0006 12.0009c7.83249,36.8318 20.667,66.667 38.6672,89.333 18.0002,22.6661 43.9987,40.0006 78,52.3332 33.8332,12.1667 73.3341,18.3341 118.001,18.3341 44.3326,0 80.4988,-5.16788 108.333,-15.6672 27.6658,-10.4994 48.167,-23.4997 61.1674,-39.3328 12.9981,-15.8353 22.1663,-35.8345 27.5,-60.0021 2.8327,-14.9994 4.33196,-41.9997 4.33196,-80.8327l0 -116.667c0,-81.4983 1.83318,-133 5.49955,-154.832 3.50053,-21.8324 10.8333,-42.6675 21.5007,-62.6667l-91.9999 0c-8.83425,18.4999 -14.4996,40.1665 -17.0007,64.9996zm-6.99882 195.001c-32.0001,-13.0004 -80.0013,-24.0017 -144.001,-33.0018 -36.332,-5.16564 -61.9988,-10.9991 -76.9982,-17.4982 -15.0016,-6.50131 -26.5005,-16.0011 -34.6669,-28.3337 -8.16641,-12.5006 -12.3348,-26.3347 -12.3348,-41.668 0,-23.1658 8.83425,-42.6652 26.6663,-58.1666 17.8343,-15.4992 43.8351,-23.3316 78,-23.3316 33.8355,0 64.0001,7.33274 90.5006,22.1663 26.3347,14.6655 45.8341,34.8327 58.1666,60.3337 9.49984,19.8334 14.168,48.9985 14.168,87.4998l0.499756 32.0001zm-36.0003 322.999l-71.0012 0 -112.999 137 118.001 0 65.9991 -137z"
         id="glyph435" /><glyph
         unicode="Ï"
         horiz-adv-x="277"
         d="M92.9994 0l0 716 95.0006 0 0 -716 -95.0006 0zm-87.0001 760.001l0 99.9982 91.9999 0 0 -99.9982 -91.9999 0zm182.001 0l0 99.9982 91.9999 0 0 -99.9982 -91.9999 0z"
         id="glyph437" /><glyph
         unicode="¾"
         horiz-adv-x="834"
         d="M123 -28.9993l537.665 757 76.6666 0 -537.665 -757 -76.6666 0zm-107.002 484.998l71.0012 7.33498c6.49907,-19.5017 14.9994,-32.6679 25.501,-39.8348 13.9999,-9.66568 30.4985,-14.4996 49.8321,-14.4996 23,0 41.6657,6.33323 55.6679,18.9997 13.9999,12.6665 20.9987,27.9998 20.9987,45.8341 0,16.3328 -5.83347,29.3332 -17.5004,38.9989 -11.6669,9.83376 -31.1664,14.6677 -58.3325,14.6677 -16.167,-0.999511 -25.501,-1.49927 -28.1678,-1.49927l10.8333 53.9983c26.3347,-0.331676 45.6683,4.3342 57.835,13.9999 12.1667,9.66792 18.3318,21.3349 18.3318,35.1667 0,11.835 -4.83172,22.0005 -14.6655,30.3349 -9.83376,8.33225 -24.3334,12.4984 -43.667,12.4984 -18.3341,0 -32.6656,-3.66637 -42.9992,-10.9991 -10.1677,-7.33274 -19.1678,-20.667 -26.6686,-40.0006l-69.9994 12.0009c13.3343,34.6669 30.1669,58.6664 50.5,72.5004 20.3331,13.666 50.1683,20.4989 89.1672,20.4989 46.8336,0 81.0008,-8.66617 102.333,-25.8327 21.3326,-17.3323 32.0001,-38.833 32.0001,-64.8338 0,-17.6663 -5.66763,-33.4993 -17.1665,-47.3334 -11.5011,-13.9999 -28.1678,-23.9995 -49.8344,-30.1669 28.8334,-7.1669 50.0002,-18.9997 63.6684,-35.4983 13.5001,-16.5009 20.3331,-35.8345 20.3331,-58.0008 0,-30.5008 -12.8345,-57.0013 -38.5014,-79.4993 -25.6668,-22.5002 -62.3328,-33.8332 -109.832,-33.8332 -45.5002,0 -80.3352,8.99784 -104.335,27.1661 -23.9995,18.166 -39.4986,44.1668 -46.3339,77.8319zm682.001 -470.998l0 74.9992 -185.999 0 0 60.1679 196.832 231.833 60.1679 0 0 -239 50.9997 0 0 -53.001 -50.9997 0 0 -74.9992 -71.0012 0zm0 128l0 128.5 -111 -128.5 111 0z"
         id="glyph439" /><glyph
         unicode="­"
         horiz-adv-x="333"
         d="M31.0005 215l0 87.9996 271.999 0 0 -87.9996 -271.999 0z"
         id="glyph441" /><glyph
         unicode=""
         horiz-adv-x="750"
         d="M124.999 0l0 624.999 500 0 0 -624.999 -500 0zm16.0011 15.9989l468 0 0 593.002 -468 0 0 -593.002z"
         id="glyph443" /><glyph
         unicode=""
         horiz-adv-x="750"
         d="M124.999 0l0 624.999 500 0 0 -624.999 -500 0zm16.0011 15.9989l468 0 0 593.002 -468 0 0 -593.002z"
         id="glyph445" /><glyph
         unicode="z"
         horiz-adv-x="500"
         d="M19.4994 0l0 71.6668 328.667 379.333c-37.3338,-1.99902 -70.1653,-2.99853 -98.4989,-2.99853l-210.166 0 0 70.9989 423 0 0 -57.8327 -281.333 -329.001 -53.8347 -61.1674c39.5009,3.33469 76.5007,5.00204 111.002,5.00204l240.165 0 0 -76.001 -459 0z"
         id="glyph447" /><glyph
         unicode="i"
         horiz-adv-x="222"
         d="M65.9991 615.999l0 100 88.0018 0 0 -100 -88.0018 0zm0 -615.999l0 519 88.0018 0 0 -519 -88.0018 0z"
         id="glyph449" /><glyph
         unicode="X"
         horiz-adv-x="666"
         d="M4.3342 0l276.665 371.5 -243.666 344.5 112.833 0 130.501 -183.166c27.1661,-37.9994 45.9999,-67.0009 56.8332,-87.1682 16.1647,25.0012 35.1667,51.6676 56.999,79.8354l143 190.499 103.833 0 -248.665 -340.334 267.667 -375.666 -116.333 0 -180.667 255.333c-10.3335,14.4996 -20.1673,29.0015 -29.3332,43.3331 -16.0011,-23.9995 -27.3342,-40.8321 -34.333,-50.3319l-181.501 -248.334 -113.832 0z"
         id="glyph451" /><glyph
         unicode="G"
         horiz-adv-x="777"
         d="M412 280.999l0 84.0015 303 0 0 -265.334c-46.4997,-36.9999 -94.5009,-64.9996 -144.001,-83.6676 -49.4982,-18.6658 -100.332,-27.9998 -152.331,-27.9998 -70.3333,0 -134.168,15.0016 -191.669,45.1685 -57.333,29.9988 -100.832,73.6658 -129.999,130.499 -29.3332,56.999 -43.9987,120.667 -43.9987,190.833 0,69.6677 14.4996,134.667 43.6648,195.167 29.1674,60.3337 71.0012,105.166 125.667,134.333 54.6661,29.3332 117.667,44.0009 189,44.0009 51.6676,0 98.5012,-8.33449 140.335,-25.1671 41.8316,-16.8326 74.6653,-40.1665 98.3331,-69.9994 23.8336,-30.001 41.8316,-69.168 54.1663,-117.335l-85.5008 -23.3316c-10.8333,36.332 -24.1653,64.9996 -40.0006,85.9983 -15.9989,20.8351 -38.665,37.5018 -68.3321,50.0002 -29.5013,12.5006 -62.3328,18.8338 -98.5012,18.8338 -43.165,0 -80.4988,-6.66714 -112.165,-19.8334 -31.5003,-13.1662 -56.8332,-30.5008 -76.3349,-52.1673 -19.3336,-21.4985 -34.333,-45.1663 -44.9982,-70.8331 -18.1682,-44.4984 -27.3342,-92.4996 -27.3342,-144.333 0,-64.0001 10.9991,-117.501 32.8337,-160.666 22.0005,-43.0014 54.0005,-75.0015 95.8321,-95.8343 41.9997,-20.8329 86.5003,-31.3322 133.668,-31.3322 41.0001,0 80.9985,7.99833 120,23.8336 38.9989,15.9989 68.5002,32.8315 88.6674,50.9997l0 134.165 -210 0z"
         id="glyph453" /><glyph
         unicode="6"
         horiz-adv-x="556"
         d="M499 541l-87.0001 -7.00106c-7.83474,34.5011 -18.9997,59.6681 -33.4993,75.3354 -23.8336,25.1648 -53.3349,37.6654 -88.3335,37.6654 -28.1678,0 -53.1668,-7.83249 -74.6675,-23.4997 -27.6658,-20.1673 -49.3324,-49.5005 -65.4994,-88.1677 -16.0011,-38.833 -24.3334,-93.9989 -25.0012,-165.5 21.1668,32.1681 47.1675,56.1676 77.8342,71.6668 30.6666,15.6672 62.6667,23.4997 96.3341,23.4997 58.6664,0 108.667,-21.6665 149.998,-64.8315 41.1682,-43.1672 61.833,-98.8351 61.833,-167.335 0,-44.9982 -9.66568,-86.6662 -28.9993,-125.333 -19.4994,-38.665 -45.9999,-68.1662 -79.999,-88.6652 -33.8332,-20.5012 -72.3346,-30.8347 -115.334,-30.8347 -73.166,0 -133,27.0003 -179.334,80.8349 -46.1658,53.8324 -69.3338,142.666 -69.3338,266.332 0,138.334 25.6668,239.002 76.8346,301.835 44.6665,54.6661 104.832,82.0003 180.665,82.0003 56.3335,0 102.667,-15.8331 138.668,-47.3334 36.0003,-31.5003 57.6669,-75.0015 64.8338,-130.667zm-360.001 -308.999c0,-30.3349 6.50131,-59.3342 19.3336,-87.0001 12.8345,-27.6681 30.8347,-48.6668 53.6666,-63.1664 23,-14.5019 47.3334,-21.8346 73.1683,-21.8346 37.4996,0 69.4997,14.9994 95.9979,45.0004 26.5005,29.9988 39.8348,70.6673 39.8348,122.167 0,49.5005 -13.1662,88.4993 -39.3328,116.999 -26.1666,28.5018 -59.5001,42.8333 -100,42.8333 -39.6667,0 -73.4999,-14.3316 -101.168,-42.8333 -27.6658,-28.4995 -41.4999,-65.8333 -41.4999,-112.165z"
         id="glyph455" /><glyph
         unicode="%"
         horiz-adv-x="889"
         d="M58.0008 544.167c0,50.9997 12.8323,94.5009 38.665,130.167 25.8349,35.8323 63.1687,53.6666 112.167,53.6666 45.0004,0 82.3342,-16.0011 111.833,-48.0012 29.5013,-32.0001 44.3348,-79.1653 44.3348,-141.166 0,-60.4996 -15.0016,-107.167 -44.8346,-139.833 -29.833,-32.6656 -66.667,-49.0007 -110.334,-49.0007 -43.4989,0 -79.6651,16.167 -108.499,48.3351 -28.8334,32.1659 -43.3331,80.8327 -43.3331,145.832zm153.333 122.832c-21.8346,0 -40.0006,-9.33176 -54.5003,-28.1656 -14.4996,-18.8338 -21.8346,-53.3327 -21.8346,-103.501 0,-45.666 7.33498,-77.8319 22.0005,-96.3318 14.6677,-18.668 32.8337,-27.9998 54.3344,-27.9998 22.1663,0 40.5004,9.33176 55,28.1656 14.4996,18.8338 21.6665,53.1668 21.6665,103.001 0,45.9999 -7.33274,78.3317 -22.0005,96.8316 -14.6677,18.668 -32.8337,27.9998 -54.6661,27.9998zm0.499756 -693l390.5 754.001 71.6668 0 -389.5 -754.001 -72.6663 0zm308.166 194.167c0,51.3337 12.8345,94.8326 38.6672,130.499 25.6668,35.5006 63.1664,53.3349 112.333,53.3349 45.0004,0 82.3342,-16.0011 111.833,-48.0012 29.5013,-32.0001 44.1668,-79.1653 44.1668,-141.166 0,-60.4996 -14.8336,-107.167 -44.6665,-139.833 -29.833,-32.6656 -66.8328,-49.0007 -110.834,-49.0007 -43.3331,0 -79.3334,16.167 -108.167,48.501 -28.8312,32.334 -43.3331,81.0008 -43.3331,145.666zm153.501 122.832c-22.1663,0 -40.3345,-9.33176 -54.8342,-28.1656 -14.4996,-18.8338 -21.6665,-53.3327 -21.6665,-103.501 0,-45.3321 7.33274,-77.3322 22.0005,-96.166 14.4996,-18.8338 32.4998,-28.1656 54.0005,-28.1656 22.5002,0 40.8321,9.33176 55.3317,28.1656 14.5019,18.8338 21.6688,53.1668 21.6688,103.001 0,45.9999 -7.33498,78.3317 -22.0005,96.8316 -14.4996,18.668 -32.6679,27.9998 -54.5003,27.9998z"
         id="glyph457" /></font><font
       id="FontID0"
       horiz-adv-x="659"
       font-variant="normal"
       font-style="normal"
       font-weight="400"
       horiz-origin-x="0"
       horiz-origin-y="0"
       vert-origin-x="45"
       vert-origin-y="90"
       vert-adv-y="90"
       style="font-style:normal;font-variant:normal;font-weight:400"><font-face
         font-family="Berlin Sans FB"
         id="font-face460"><font-face-src><font-face-name
             name="Berlin Sans FB" /></font-face-src></font-face><missing-glyph
         id="missing-glyph462"><path
           d="M0 0z"
           id="path464" /></missing-glyph><glyph
         unicode="ÿ"
         horiz-adv-x="475"
         d="M461.001 339.667c0,-55.1661 -1.66677,-88.3333 -5.00032,-99.8326 -4.16693,-14.5002 -44.5002,-78.5009 -121,-191.501 -76.5015,-113.167 -121.833,-176.332 -136.167,-189.833 -12.9997,-11.6674 -54.9998,-17.4992 -126.166,-17.4992 -8.50017,0 -13.8331,0.833387 -16.3332,2.66646 -2.33386,1.83307 -7.83308,13.6668 -16.5014,35.4993 -8.49828,21.8344 -12.8334,34.8341 -12.8334,39.001 0,7.33229 8.66836,10.8321 26.0013,10.8321 36.4989,0 63.3336,5.16662 80.6666,15.4999 5.83371,3.66804 14.8328,14.8347 26.6665,33.6681 11.8337,18.6652 17.8337,31.3323 17.8337,37.8331 0,8.83277 -23.5011,43.166 -70.6678,103.166 -49.8331,63.4999 -77.6656,103.833 -83.4993,120.667 -4.66583,13.4986 -6.99969,45.3336 -6.99969,95.8319 0,12.5008 0.166299,31.1679 0.498898,56.0013 0.334489,24.9997 0.500788,43.8331 0.500788,56.5002 0,7.16599 3.83245,10.6658 11.6674,10.6658 10.4995,0 25.8331,-0.500788 46.3333,-1.83307 20.332,-1.33417 35.6656,-1.99937 46.1651,-1.99937 5.16662,0 7.83497,-3.50174 7.83497,-10.3351 0,-8.99907 -0.500788,-22.6659 -1.50047,-40.9985 -0.999686,-18.1682 -1.50047,-32.0013 -1.50047,-41.0004 0,-39.8344 1.33417,-69.4999 3.83434,-89.0004 1.99937,-12.4989 19.6649,-43.3323 53.1667,-92.8329 33.4999,-49.3342 54.1664,-73.9995 61.9994,-73.9995 5.49922,0 23.1666,24.1663 52.6659,72.8316 29.6674,48.5008 45.4999,78.6672 47.5012,90.0001 2.50016,16.3332 3.83245,46.0007 3.83245,89.0004 0,9.49985 -0.999686,23.3329 -2.99906,41.8338 -2.00126,18.3326 -3.00095,32.1657 -3.00095,41.333 0,8.16757 2.66646,12.1663 7.83308,12.1663 10.4995,0 26.1676,0.667087 47.1667,2.16756 21.1673,1.50047 36.8334,2.16567 47.333,2.16567 9.83434,0 14.6684,-39.4999 14.6684,-118.666zm-58.167 162.667c0,-5.50111 -5.83371,-8.33387 -17.5011,-8.33387 -9.83245,0 -24.3326,-0.166299 -43.4986,-0.500788 -19.3342,-0.332599 -33.6681,-0.498898 -43.1679,-0.498898 -8.16568,0 -12.1663,4.49953 -12.1663,13.6668l-0.500788 99.1655c0,8.16757 3.33355,12.1682 9.83434,12.1682 5.49922,0 13.9994,-0.500788 25.6668,-1.50047 11.4992,-0.999686 20.3339,-1.50047 26.1657,-1.50047 4.83402,0 12,0.166299 21.4999,0.500788 9.50174,0.332599 16.5014,0.498898 21.1673,0.498898 7.83308,0 11.6674,-2.50016 11.6674,-7.66678 0,-6.16631 -0.667087,-15.3336 -2.00126,-27.4999 -1.33229,-12.1663 -1.99937,-21.3336 -1.99937,-27.4999 0,-5.83371 0.833387,-14.5002 2.50016,-25.8331 1.50047,-11.3329 2.33386,-19.6668 2.33386,-25.166zm-199.501 -3.00095c0,-3.49985 -4.66583,-5.83371 -14.1657,-6.83339 -6.83339,-0.667087 -16.1669,-0.667087 -28.3333,0 -14.3339,0.999686 -21.001,1.50047 -20.0013,1.50047 -4.83213,0 -12.3326,-0.332599 -22.3333,-0.999686 -9.83245,-0.667087 -17.3329,-0.999686 -22.167,-0.999686 -6.16631,0 -9.33356,3.16536 -9.33356,9.33356 0,5.16662 0.334489,12.8334 1.00158,22.9985 0.665198,10.0006 0.999686,17.6674 0.999686,22.834 0,6.5008 -0.500788,16.3332 -1.50047,29.4992 -0.999686,13.1679 -1.50047,23.1666 -1.50047,29.6674 0,7.16599 4.00063,10.6658 11.8337,10.6658 9.66615,0 24.6671,-0.166299 44.6665,-0.498898 19.9994,-0.334489 35.0004,-0.500788 45.001,-0.500788 9.99875,0 14.8328,-3.33355 14.8328,-10.1669 0,-5.83182 -0.500788,-14.8328 -1.66677,-26.8328 -1.16599,-12.1663 -1.66677,-20.9991 -1.66677,-26.9991 0,-5.83371 0.667087,-14.5002 2.16756,-26.3339 1.49858,-11.6674 2.16567,-20.5002 2.16567,-26.3339z"
         id="glyph466" /><glyph
         unicode="î"
         horiz-adv-x="220"
         d="M173.001 451.667c0,-25.0016 -1.50047,-62.8347 -4.50142,-113.501 -2.99906,-50.6665 -4.49953,-88.6659 -4.49953,-114 0,-23.8318 0.500788,-59.333 1.50047,-106.666 0.999686,-47.333 1.50047,-82.8341 1.50047,-106.167 0,-6.83339 -3.00095,-10.3332 -8.83466,-10.3332l-95.333 0c-6.83339,0 -10.3332,6.6671 -10.3332,19.9994 0,22.5014 0.667087,56.3339 1.83307,101.335 1.16788,45.1654 1.66677,78.9998 1.66677,101.832 0,25.3342 -1.83307,63.4999 -5.49922,114.335 -3.66615,50.6665 -5.50111,88.8322 -5.50111,114.166 0,5.49922 3.33355,8.33387 10.1669,8.33387 5.83371,0 14.8347,-0.833387 27.001,-2.50016 12.1663,-1.50047 21.3336,-2.33386 27.4999,-2.33386 6.16631,0 15.3336,0.833387 27.4999,2.33386 12.1663,1.66677 21.3336,2.50016 27.4999,2.50016 5.49922,0 8.33387,-3.16725 8.33387,-9.33356zm78.0001 98.6666c-1.00158,-1.66677 -9.16726,-6.1682 -24.6671,-13.8331 -15.4999,-7.66678 -24.6671,-11.5011 -27.4999,-11.5011 -9.49985,0 -39.8344,26.6665 -91.3343,79.9995 -3.33355,-1.99937 -16.9984,-16.8321 -41.1667,-44.6665 -20.6665,-23.4992 -35.6656,-35.333 -44.8328,-35.333 -2.50016,0 -12,4.00063 -28.167,12 -16.1669,7.99938 -24.3326,12.5008 -24.3326,13.5005 18.3326,20.8328 40.167,46.8322 65.8338,78.1664 18.4989,28.0007 31.6668,50.1676 39.1654,66.5009 2.33386,5.16662 5.83371,7.83308 10.834,7.83308l51.3336 0c4.33323,0 7.16599,-2.66646 8.83277,-7.83308 5.16662,-16.5014 17.8337,-38.6684 38.1676,-66.3346 22.3333,-25.6668 44.9991,-51.8325 67.8332,-78.499z"
         id="glyph468" /><glyph
         unicode="Ý"
         horiz-adv-x="586"
         d="M572 501c0,-18.6671 -29.0004,-67.8332 -86.9992,-147.5 -38.5002,-49.8331 -76.6678,-99.6663 -114.834,-149.499 -9.49985,-12.3345 -14.1676,-24.9997 -14.1676,-37.9994 0,-17.5011 0.833387,-43.835 2.50016,-78.8335 1.66677,-35.0004 2.50016,-61.168 2.50016,-78.3346 0,-5.83371 -4.00063,-8.83277 -12.1663,-8.83277l-116.001 0c-6.49891,0 -9.83245,4.66583 -9.83245,14.1676 0,16.6658 1.16599,41.8319 3.49985,75.6662 2.33386,33.8325 3.49985,59.1667 3.49985,76.167 0,14.6665 -3.99875,27.6662 -12.1663,38.9991 -23.4992,30.3326 -58.4996,75.8325 -104.999,136.834 -39.8344,54.3327 -68.5002,95.6656 -86.0014,123.999 -5.83371,9.66615 -8.83277,19.1679 -8.83277,28.3333 -0.667087,41.0004 -0.999686,100.167 -0.999686,177.666 0,8.83466 3.99875,13.1679 11.8337,13.1679 5.49922,0 13.6668,-0.500788 24.4989,-1.50047 11.0003,-0.999686 19.1679,-1.50047 24.8334,-1.50047 6.5008,0 16.1669,0.500788 29.1667,1.50047 13.1679,0.999686 23.0003,1.50047 29.8337,1.50047 5.83371,0 8.83277,-2.66646 8.83277,-7.83308 0,-18.1682 -0.999686,-45.4999 -2.99906,-82.0007 -2.00126,-36.5008 -3.00095,-63.8325 -3.00095,-82.0007 0,-19.6668 51.6662,-88.3333 155.001,-206.499 24.5008,27.8325 52.4996,62.1657 84.0001,103.332 43.9994,56.6665 66.0001,90.6672 66.0001,102.166 0,17.5011 -1.33417,44.1676 -4.00063,79.8332 -2.66646,35.6674 -3.99875,62.1676 -3.99875,79.8332 0,8.83466 3.83245,13.1679 11.3329,13.1679 5.83371,0 14.6665,-0.500788 26.8328,-1.50047 12,-0.999686 21.001,-1.50047 26.8328,-1.50047 6.1682,0 15.6681,0.500788 28.167,1.50047 12.5008,0.999686 22.0007,1.50047 28.167,1.50047 7.83308,0 11.6674,-5.33481 11.6674,-16.1669 0,-18.5008 0.332599,-46.4996 0.999686,-84.0001 0.667087,-37.3342 0.999686,-65.333 0.999686,-83.8338zm-122 327.5c-4.83402,-13.3342 -40.8341,-38.1657 -107.834,-74.1658 -65.4993,-35.5011 -106.001,-53.3349 -121.667,-53.3349 -6.00001,0 -11.1666,8.16757 -15.4999,24.3345 -3.33355,12.6671 -5.00032,23.4992 -5.00032,32.1657 0,3.33355 3.16725,6.3345 9.33356,9.33356 54.0001,26.6665 109.833,61.8331 167.834,105.834 1.33229,1.16599 3.66615,2.66646 7.33229,4.33323 1.66677,-0.667087 3.66804,-2.16756 6.3345,-4.33323 13.8331,-11.6674 31.8331,-24.3345 53.8319,-37.835 1.66677,-0.999686 3.33355,-3.16536 5.33481,-6.33261z"
         id="glyph470" /><glyph
         unicode="Ì"
         horiz-adv-x="236"
         d="M185.001 10.3332c0,-6.83339 -4.66772,-10.3332 -14.1676,-10.3332 -5.83371,0 -14.6665,0.500788 -26.8328,1.50047 -12,0.999686 -20.8328,1.49858 -26.6665,1.49858 -6.16631,0 -15.3336,-0.498898 -27.3336,-1.49858 -12,-0.999686 -21.001,-1.50047 -26.8328,-1.50047 -8.16757,0 -12.1682,3.66615 -12.1682,11.1666 0,37.166 1.66677,92.9992 5.00032,167.834 3.33355,74.6666 5.00032,130.666 5.00032,168.167 0,36.1663 -1.66677,90.3327 -5.00032,162.834 -3.33355,72.3327 -5.00032,126.665 -5.00032,162.834 0,8.16568 3.83434,12.1663 11.3348,12.1663 6.16631,0 15.4999,-0.500788 28.3333,-1.50047 12.6652,-0.999686 22.3333,-1.50047 28.8322,-1.50047 5.83371,0 14.6665,0.500788 26.3339,1.50047 11.8337,0.999686 20.6665,1.50047 26.5002,1.50047 8.50017,0 12.6671,-3.33355 12.6671,-9.83434 0,-36.3326 -1.33417,-90.9998 -4.00063,-164 -2.66646,-72.8335 -4.00063,-127.501 -4.00063,-164 0,-37.5005 1.33417,-93.6663 4.00063,-168.501 2.66646,-74.8329 4.00063,-130.999 4.00063,-168.333zm60.0001 736.5c0,-3.00095 -2.33386,-11.3329 -6.99969,-25.1679 -4.66772,-13.8331 -7.83497,-20.6665 -9.50174,-20.6665 -7.16599,0 -9.83245,-0.332599 -8.33198,-0.999686 -113.501,53.1667 -188.667,91.9995 -225.334,116.667 -1.33417,0.999686 -2.83276,3.00095 -4.83402,5.83371 3.00095,5.83371 12.5008,16.1669 28.5015,30.6671 16.1651,14.5002 26.8328,21.8325 31.9994,21.8325 7.83308,0 37.6668,-16.4995 89.6656,-49.6668 47.8338,-30.3326 81.8344,-53.333 101.834,-69.3336 2.66646,-1.83307 3.66615,-4.99843 3.00095,-9.16537z"
         id="glyph472" /><glyph
         unicode="»"
         horiz-adv-x="502"
         d="M480.001 313.667c0,-7.83308 -0.168189,-19.6668 -0.500788,-35.333 -0.332599,-15.8344 -0.498898,-27.3336 -0.498898,-34.6678 0,-7.33229 -2.83465,-12.6671 -8.83466,-16.0007 -74.5003,-38.9991 -134,-79.1661 -178.333,-120.832 -1.99937,-2.33386 -5.49922,-4.50142 -10.3332,-6.83339 -2.33197,1.33229 -4.16693,3.49985 -5.83371,6.83339 -5.49922,14.9991 -15.1654,37.166 -28.6659,66.8316 -1.33417,2.16756 -1.99937,4.00063 -1.99937,5.33481 0,8.50017 18.6652,25.3323 55.9994,50.6665 32.1657,22.167 55.8331,36.4989 70.6659,42.9997 2.66646,0.999686 5.33481,2.83276 8.33387,5.83371 -23.3329,14.332 -46.4996,28.6659 -69.4999,42.9997 -44.3339,28.167 -66.499,47.8338 -66.499,58.4996 9.33167,19.166 19.8331,42.3327 31.166,69.6662 1.33229,4.16693 2.99906,6.3345 5.33292,6.3345 0.667087,0 15.001,-10.834 42.9997,-32.6665 29.8337,-23.0003 46.4996,-35.5011 49.6668,-37.5005 31.166,-20.5002 63.8344,-39.4999 97.9995,-57.001 5.83371,-3.33166 8.83466,-8.33198 8.83466,-15.1654zm-215.001 -70.8341c0,-6.83339 -3.16725,-11.8337 -9.33356,-15.1673 -81.1673,-43.3323 -140.667,-83.8319 -178.333,-121.332 -1.99937,-1.99937 -5.33292,-4.00063 -9.83245,-6.33261 -2.33386,0.999686 -4.00063,3.16536 -5.33481,6.33261 -6.16631,14.9991 -15.9988,37.166 -29.6655,66.8335 -0.999686,1.83307 -1.50047,3.49985 -1.50047,4.83402 0,3.66615 3.33355,8.66647 10.1669,15.1654 38.9991,37.6668 78.0001,64.167 116.999,79.5006 2.33386,0.667087 4.83402,2.50016 7.83497,5.83371 -23.3348,14.1657 -46.6678,28.4996 -69.6681,42.6653 -44.8328,28.167 -67.3324,47.5012 -67.3324,57.8344 0,0.999686 1.16599,3.49985 3.33355,7.33229 13.6668,26.5002 23.0003,47.6675 27.8325,63.3336 1.33417,4.16693 3.00095,6.3345 5.33292,6.3345 27.6681,-21.1673 58.5015,-44.5002 92.6666,-70.167 29.3348,-19.5005 61.835,-38.5002 97.5006,-57.001 6.16631,-3.33166 9.33356,-8.33198 9.33356,-15.1654l0 -70.8341z"
         id="glyph474" /><glyph
         unicode="ª"
         horiz-adv-x="459"
         d="M428 664c0,-1.33229 -0.332599,-3.99875 -0.999686,-8.33198 -10.0006,-65.0004 -15.001,-120.168 -15.001,-165.334 0,-37.1679 1.83496,-82.0007 5.50111,-134.667 2.99906,-46.167 4.49953,-65.6675 4.49953,-58.5015 0,-8.49828 -2.99906,-12.6652 -8.83277,-12.6652 -8.33387,0 -21.1673,-0.667087 -38.0013,-1.83307 -16.9984,-1.16788 -29.6655,-1.66677 -37.9994,-1.66677 -5.33292,0 -8.83277,9.99875 -10.4995,30 -1.83307,19.9994 -3.66615,30.3326 -5.66741,30.9997 -2.66646,-1.66677 -5.83371,-4.49953 -9.83245,-8.83466 -35.8337,-38.8328 -74.8329,-58.1651 -117.167,-58.1651 -50.8328,0 -92.5003,22.8322 -125,68.3321 -29.333,41.0004 -43.9994,87.8344 -43.9994,140.667 0,57.3336 16.0007,105.334 47.8338,144 34.167,41.333 79.1661,62.0013 135.167,62.0013 21.8325,0 44.1657,-7.00158 67.3324,-20.8347 23.0003,-13.8331 40.6659,-30.1663 52.6659,-49.166 1.66677,-0.999686 3.16725,3.16725 4.33323,12.1663 1.00158,6.83339 2.50016,17.5011 4.50142,31.8331 0.667087,5.83371 3.49985,12.5008 8.33198,20.0013 11.5011,-0.667087 26.8347,-2.83465 46.0007,-6.3345 24.5008,-4.49953 36.8334,-9.16726 36.8334,-13.6668zm-6.00001 -434.833c0,-3.99875 -1.83307,-27.9988 -5.33292,-72.1664 -0.999686,-3.83245 -3.00095,-5.66741 -5.83371,-5.33292l-5.33292 0c-65.1667,3.49985 -127.667,5.33292 -187.833,5.33292 -17.5011,0 -44.1676,-0.833387 -79.6669,-2.66646 -35.6674,-1.83307 -62.1676,-2.66646 -79.6669,-2.66646 -6.16631,0 -9.33356,2.33386 -9.33356,7.33229 0,36.6671 1.50047,60.6672 4.33323,72.0001 0.999686,4.66772 4.00063,6.83339 8.83277,6.83339 19.1679,0 47.8338,-0.498898 85.8351,-1.83307 37.9994,-1.33229 66.6653,-1.99937 85.8332,-1.99937 20.1657,0 50.332,0.498898 90.3327,1.50047 40.167,0.999686 70.3333,1.49858 90.499,1.49858 4.83402,0 7.33418,-2.66646 7.33418,-7.83308zm-108 259.667c0,29.333 -7.66678,55.5005 -23.0003,78.6672 -17.4992,26.332 -40.167,39.4999 -67.8332,39.4999 -30.3326,0 -54.6672,-12.9997 -73.3324,-39.001 -16.5014,-23.1666 -24.8334,-50.5002 -24.8334,-81.9988 0,-34.5015 7.83308,-63.1673 23.4992,-86.0014 17.8337,-25.9994 43.3342,-38.9991 76.6678,-38.9991 28.6659,0 51.1654,14.9991 67.8332,44.8328 13.9994,24.5008 20.9991,52.167 20.9991,83.0004z"
         id="glyph476" /><glyph
         unicode=""
         horiz-adv-x="500"
         d="M62.9991 0l0 796.999 374.002 0 0 -796.999 -374.002 0zm63.001 62.9991l248 0 0 671.001 -248 0 0 -671.001z"
         id="glyph478" /><glyph
         unicode=""
         horiz-adv-x="500"
         d="M62.9991 0l0 796.999 374.002 0 0 -796.999 -374.002 0zm63.001 62.9991l248 0 0 671.001 -248 0 0 -671.001z"
         id="glyph480" /><glyph
         unicode="w"
         horiz-adv-x="728"
         d="M705 350.166c0,-61.3324 -3.33355,-99.6663 -10.1669,-115.332 -9.16726,-21.4999 -33.3336,-64.3333 -72.3327,-128.334 -42.3345,-69.3336 -67.8332,-105.165 -76.6678,-107.499 -2.66646,-0.667087 -15.6662,-0.999686 -38.9991,-0.999686 -16.0007,0 -25.3342,0.332599 -27.8325,0.999686 -10.1669,2.66646 -48.8334,58.6659 -116.001,168 -18.4989,-30.6671 -37.3323,-61.3343 -56.1657,-92.334 -30.6671,-48.1664 -50.3339,-73.3324 -58.8341,-75.6662 -2.50016,-0.667087 -13.3323,-0.999686 -32.1657,-0.999686 -19.1679,0 -30.1682,0.332599 -32.8347,0.999686 -9.99875,2.33386 -35.6656,37.8331 -76.6659,106.5 -38.6665,64.6659 -62.1676,107.834 -70.3333,129.334 -7.33418,19.5005 -11.0003,57.9988 -11.0003,115.332 0,47.8338 1.66677,80.5003 5.00032,98.1677 1.66677,7.16599 5.66741,10.6658 12.1663,10.6658 9.66615,0 24.3345,-0.332599 43.8331,-0.999686 19.5005,-0.667087 34.0007,-0.999686 43.8331,-0.999686 6.1682,0 9.16726,-5.00032 9.16726,-15.1673 0,-6.99969 -0.332599,-17.8337 -0.999686,-32.3339 -0.667087,-14.4983 -0.999686,-25.3323 -0.999686,-32.4983 0,-56.6665 1.66677,-96.6672 4.83213,-120.168 3.00095,-20.4983 28.6678,-63.4999 76.8341,-129.166 6.00001,-7.83308 9.33356,-11.6674 10.3332,-11.6674 0.999686,0 3.83245,3.66804 8.83277,10.834 42.3345,61.5005 66.5009,103.667 72.3346,126.166 3.83245,15.4999 5.83182,50.5002 5.83182,104.833 0,11.1666 -0.665198,27.6662 -1.99937,49.3342 -1.33229,21.8325 -1.99937,38.1657 -1.99937,48.8334 0,7.16599 2.99906,10.8321 8.83277,10.8321l93.3337 0c5.16662,0 7.83308,-4.33323 7.83308,-12.6652 0,-10.5014 -0.500788,-26.1676 -1.50047,-47.1667 -0.999686,-21.001 -1.49858,-36.6671 -1.49858,-47.1667 0,-57.4999 0.999686,-90.8335 2.99906,-99.8345 1.83307,-8.99907 17.1666,-34.4996 45.8325,-76.6659 28.5015,-42.1664 45.001,-63.3336 49.1679,-63.3336 0.999686,0 3.83245,3.83245 8.83277,11.6674 41.333,62.9991 63.4999,104.999 66.8335,126.166 2.83276,17.4992 4.33323,47.333 4.33323,89.333 0,12.3326 -0.999686,30.1663 -2.99906,53.4993 -2.00126,23.3329 -3.00095,40.0007 -3.00095,49.9994 0,5.00032 3.33355,7.33418 9.83434,7.33418 9.66615,0 24.1663,0.332599 43.4986,0.999686 19.1679,0.667087 33.6681,0.999686 43.5005,0.999686 7.16599,0 11.4992,-3.33355 13.166,-9.83245 2.66646,-12.6671 4.00063,-46.0007 4.00063,-100.001z"
         id="glyph482" /><glyph
         unicode="f"
         horiz-adv-x="294"
         d="M302 625.834c0,-3.83434 -2.99906,-6.16631 -8.83277,-6.83339 -16.0007,-1.66677 -31.8331,-3.16725 -47.5012,-4.33323 -18.6652,-2.66646 -32.8328,-9.16726 -42.6653,-19.5005 -16.0007,-17.3329 -24,-60.9998 -24,-131.167 10.8321,0 27.6662,-0.332599 50.8328,-0.999686 23.1666,-0.667087 40.6659,-0.999686 52.4996,-0.999686 7.83308,0 11.6674,-2.83465 11.6674,-8.83466 0,-9.16537 0.332599,-22.6659 0.999686,-40.8322 0.667087,-18.1663 0.999686,-31.6668 0.999686,-40.4996 0,-6.1682 -3.33355,-9.33356 -9.83245,-9.33356 -11.3348,0 -28.6678,0.665198 -51.8344,1.83307 -23.1666,1.16599 -40.167,1.66677 -51.3336,1.66677l0 -145.833c0,-22.834 0.833387,-57.3336 2.50016,-103.501 1.50047,-46.167 2.33386,-80.6666 2.33386,-103.501 0,-8.83277 -3.16725,-13.166 -9.66615,-13.166l-89.5012 0c-8.50017,0 -12.6652,5.00032 -12.6652,15.1673l0 335.666c0,8.83277 -9.83434,12.9997 -29.6674,12.6671 -21.3336,-0.334489 -32.6665,0.498898 -33.8325,2.50016 -1.00158,0.999686 -1.50047,6.99969 -1.50047,18.1663 0,7.16599 -0.334489,17.8337 -0.999686,31.9994 -0.667087,14.3339 -1.00158,24.9997 -1.00158,32.1676 0,6.83339 20.6684,11.4992 62.0013,13.6668 -0.999686,20.8328 -1.50047,37.6668 -1.50047,50.6665 0,57.4999 10.3332,99.6663 30.8334,126.333 18.1663,24 44.8328,42.8334 79.9995,56.5002 31.6668,12.3326 64.3333,18.5008 98.1677,18.5008 3.33355,0 5.66552,-1.83496 6.83339,-5.33481 0.332599,-0.665198 3.16536,-14.332 8.66647,-41.1667 5.33292,-26.8328 7.99938,-40.6659 7.99938,-41.6656z"
         id="glyph484" /><glyph
         unicode="U"
         horiz-adv-x="660"
         d="M610 674.333c0,-37.8331 -1.49858,-94.3333 -4.49953,-169.667 -2.99906,-75.3317 -4.49953,-131.832 -4.49953,-169.665 0,-12.3345 0.166299,-30.8334 0.498898,-55.3342 0.334489,-24.6671 0.500788,-42.8334 0.500788,-54.9998 0,-67.9995 -6.33261,-115.166 -18.9997,-141.5 -19.6668,-40.3333 -57.4999,-67.6669 -113.834,-82.0007 -34.4996,-8.83277 -83.1667,-13.166 -146,-13.166 -114,0 -188.667,18.8334 -224.168,56.6665 -27.3317,29.1667 -40.9985,87.8326 -40.9985,175.667 0,10.6658 0.166299,28.8341 0.498898,54.499 0.334489,25.5005 0.500788,45.5018 0.500788,60.1683 0,38.4983 -1.66677,109.166 -5.00032,212.332 0,26.6665 -1.50047,66.5009 -4.49953,119.668 -0.334489,3.83245 -0.500788,6.49891 -0.500788,7.66678 0,6.83339 4.16693,10.3332 12.6671,10.3332 13.3323,0 31.5005,-0.166299 54.3327,-0.500788 26.3339,-0.332599 44.3339,-0.498898 53.8338,-0.498898 7.50048,0 11.1666,-2.83465 11.1666,-8.83466 0,-49.3323 -0.999686,-123.833 -2.99906,-223 -2.00126,-99.3337 -3.00095,-173.666 -3.00095,-223 0,-55.9994 12.5008,-93.9989 37.6668,-113.834 21.3336,-17.4992 60.9998,-26.332 118.5,-26.332 52.4996,0 89.6675,7.16599 111.834,21.4999 27.9988,17.8337 42.0001,51.3336 42.0001,100.5 0,51.4999 -0.833387,128.667 -2.50016,231.666 -1.66677,103 -2.50016,180.167 -2.50016,231.666 0,5.16662 4.66583,8.33387 14.1657,9.66804 6.83339,0.999686 16.4995,0.999686 29.1667,0 15.001,-1.33417 22.0007,-2.00126 21.4999,-2.00126 5.83371,0 14.6665,0.500788 26.5002,1.50047 11.8337,0.999686 20.6665,1.50047 26.5002,1.50047 8.16757,0 12.1663,-3.49985 12.1663,-10.6677z"
         id="glyph486" /><glyph
         unicode="D"
         horiz-adv-x="680"
         d="M652 346.167c0,-91.5006 -25.9994,-170.5 -78.1664,-237.334 -56.5002,-72.5009 -129.167,-108.834 -217.667,-108.834 -17.0003,0 -42.3327,0.667087 -76.3333,1.99937 -33.9988,1.33417 -59.4993,1.83307 -76.4996,1.83307 -15.3336,0 -38.3339,-0.498898 -68.9991,-1.83307 -30.8334,-1.33229 -53.8338,-1.99937 -69.1673,-1.99937 -8.16757,0 -12.1663,4.00063 -12.1663,12.1663 0,35.5011 1.33229,89.0004 3.99875,160.668 2.66835,71.6656 4.00063,125.333 4.00063,161.165 0,37.6668 -1.33229,94.5015 -4.00063,170.334 -2.66646,75.8325 -3.99875,132.667 -3.99875,170.5 0,6.83339 4.16693,10.1669 12.6671,10.1669 12.1663,0 30.1663,-0.166299 54.0001,-0.500788 24,-0.332599 42.0001,-0.498898 53.9982,-0.498898 11.1685,0 28.0007,0.166299 50.8347,0.498898 22.8322,0.334489 39.9988,0.500788 51.8325,0.500788 113,0 197.167,-21.3336 252.501,-64.0007 39.8325,-30.4989 70.4996,-71.6656 92.3321,-123.5 20.5002,-48.1664 30.8334,-98.6666 30.8334,-151.332zm-120 0c0,70.3333 -19.9994,127.665 -60.0001,171.999 -41.6656,45.8344 -97.1661,68.8328 -166.832,68.8328 -57.4999,0 -80.6666,0.334489 -69.6662,1.00158 -38.0013,-2.00126 -57.1673,-9.00096 -57.1673,-21.001 0,-24.9997 -0.500788,-62.6665 -1.66677,-112.666 -1.16599,-50.0013 -1.66677,-87.5 -1.66677,-112.5 0,-24.8334 0.500788,-62.0013 1.66677,-111.5 1.16599,-49.5005 1.66677,-86.5003 1.66677,-111.334 0,-12.3345 19.6668,-19.5005 58.6659,-21.4999 -5.33292,0.332599 18.5008,0.498898 71.1667,0.498898 37.3342,0 67.168,3.83434 89.1667,11.6674 27.3336,9.83245 52.0007,27.8325 73.6669,54.3327 40.6678,49.5005 60.9998,110.168 60.9998,182.168z"
         id="glyph488" /><glyph
         unicode="3"
         horiz-adv-x="471"
         d="M446 167.333c0,-60.0001 -22.4996,-105.666 -67.3324,-137.333 -39.3336,-28.0007 -90.1683,-42.0001 -152.334,-42.0001 -73.8332,0 -140.5,13.5005 -200,40.6659 -6.16631,2.83465 -9.33356,5.83371 -9.33356,8.66836 0,-1.00158 7.83308,24.3326 23.3329,75.9988 1.99937,7.16788 5.00032,10.6677 8.83277,10.6677 57.8344,-29.3348 105.5,-44.0013 142.834,-44.0013 88.6659,0 133,32.3339 133,96.9998 0,40.167 -15.3336,68.1676 -45.8325,83.8338 -21.8344,11.5011 -54.5009,17.1666 -98.1677,17.1666 -8.99907,0 -21.8325,-0.332599 -37.9994,-0.999686 -16.3332,-0.667087 -27.8344,-0.999686 -34.6678,-0.999686 -18.8334,0 -28.3333,3.83245 -28.3333,11.6655 0,43.5005 4.83402,65.3349 14.6665,65.3349 14.3339,0 36,-1.50047 64.8341,-4.50142 28.8341,-2.99906 50.3339,-4.49953 64.6659,-4.49953 21.4999,0 39.001,7.16599 52.5015,21.4999 13.4986,14.3339 20.332,32.1676 20.332,53.6675 0,59.8338 -38.9991,89.8319 -116.833,89.8319 -45.4999,0 -86.5003,-9.66615 -122.999,-28.9985 -1.33417,-0.667087 -3.00095,-0.999686 -5.00032,-0.999686 -8.16757,0 -12.1663,24.3326 -12.1663,72.9998 0,15.8325 26.1657,28.4996 78.6653,37.8331 36.1682,6.16631 68.8347,9.16537 98.1677,9.16537 54.499,0 100.832,-11.8318 139.332,-35.4993 45.8344,-28.0007 68.8347,-67.5006 68.8347,-118.5 0,-26.3339 -7.16788,-52.6678 -21.5018,-78.9998 -15.6662,-27.8344 -34.9985,-46.6678 -58.1651,-56.5002 67.1661,-22.4996 100.666,-69.8344 100.666,-142.167z"
         id="glyph490" /><glyph
         unicode="&quot;"
         horiz-adv-x="303"
         d="M270 675.667l0 -48.9997c0,-57.1673 -7.66678,-106.834 -23.0003,-149.333 -2.33386,-6.1682 -9.83245,-9.33356 -22.834,-9.33356 -16.8321,0 -26.1657,2.50016 -28.1651,7.33229 -1.00158,3.00095 -4.16693,16.834 -9.66804,41.8338 -5.49922,24.9997 -8.33198,39.1673 -8.33198,42.5008l0 116c0,2.33386 0.999686,5.49922 2.99906,9.33356 8.16757,1.99937 22.834,2.99906 43.9994,2.99906 7.83308,0 21.8344,-0.999686 42.0001,-2.99906 2.00126,-3.83434 3.00095,-6.99969 3.00095,-9.33356zm-144 -116.334c0,-2.83276 -2.83276,-16.8321 -8.33387,-42.0001 -5.49922,-24.9997 -8.66647,-38.9991 -9.66615,-42.0001 -1.66677,-4.83213 -11.0003,-7.33229 -28.0007,-7.33229 -13.3323,0 -20.9991,3.16536 -23.0003,9.33356 -15.3317,42.0001 -22.9985,88.3333 -22.9985,139.166l0 61.1661c0,6.5008 14.9991,9.83434 44.9991,9.83434 21.8344,0 35.0004,-0.833387 39.1673,-2.50016 5.83371,-2.33386 8.83277,-8.33387 8.83277,-18 0,-2.66646 -0.332599,-10.0006 -0.999686,-21.8344 -0.667087,-11.8337 -0.999686,-22.8322 -0.999686,-32.9991 0,-5.83371 0.166299,-14.6665 0.498898,-26.3339 0.334489,-11.8337 0.500788,-20.5002 0.500788,-26.5002z"
         id="glyph492" /><glyph
         unicode="ü"
         horiz-adv-x="551"
         d="M501.999 443.001c0,-23.8337 -0.999686,-59.6675 -2.99906,-107.834 -2.00126,-48.0001 -3.00095,-84.0001 -3.00095,-108.166 0,-23.6674 0.667087,-59.3349 2.16756,-106.668 1.50047,-47.333 2.16567,-82.9985 2.16567,-106.666 0,-6.5008 -2.99906,-10.834 -9.16537,-12.6671 -2.66646,-0.667087 -35.8337,-0.999686 -99.5,-0.999686 -3.83434,0 -6.1682,12.1663 -6.99969,36.6671 -0.833387,24.3326 -2.66835,36.6671 -5.66741,36.6671 -1.66677,0 -4.00063,-1.50047 -7.33418,-4.50142 -54.3327,-47.1667 -107.832,-70.8322 -160.832,-70.8322 -71.8338,0 -119.333,25.9994 -142.333,78.1664 -14.3339,32.1657 -21.4999,90.1664 -21.4999,173.832 0,75.5018 6.00001,139.501 18,192 2.83276,12.6671 8.16568,19.0016 15.9988,19.0016 9.50174,0 23.6674,-0.168189 42.6671,-0.500788 18.8334,-0.332599 33.001,-0.500788 42.5008,-0.500788 6.49891,0 9.83245,-3.49985 9.83245,-10.6658 0,-12.6671 -2.16567,-33.8344 -6.33261,-63.4999 -4.49953,-31.6668 -6.83339,-53.8338 -7.16788,-66.8335 -0.999686,-19.6668 -1.49858,-41.1667 -1.49858,-64.4996 0,-57.001 3.99875,-95.1667 12.1663,-114.834 13.9994,-35.1667 44.9991,-52.6678 92.9992,-52.6678 20.5002,0 44.6665,10.1669 72.6672,30.3345 29.333,21.1654 44.5002,41.4993 45.6662,60.9998 1.66677,24.3326 2.50016,110.334 2.50016,257.834 0,15.8325 6.6671,23.8318 20.0013,23.8318l80.8329 0c9.49985,0 14.1657,-5.66552 14.1657,-16.9984zm-62.1657 95.333c0,-5.50111 -5.83371,-8.33387 -17.5011,-8.33387 -9.83245,0 -24.3326,-0.166299 -43.4986,-0.500788 -19.3342,-0.332599 -33.6681,-0.498898 -43.1679,-0.498898 -8.16568,0 -12.1663,4.49953 -12.1663,13.6668l-0.498898 99.1655c0,8.16757 3.33355,12.1682 9.83245,12.1682 5.49922,0 13.9994,-0.500788 25.6668,-1.50047 11.4992,-0.999686 20.3339,-1.50047 26.1676,-1.50047 4.83213,0 12,0.166299 21.4999,0.500788 9.49985,0.332599 16.4995,0.498898 21.1654,0.498898 7.83308,0 11.6674,-2.50016 11.6674,-7.66678 0,-6.16631 -0.667087,-15.3336 -1.99937,-27.4999 -1.33417,-12.1663 -2.00126,-21.3336 -2.00126,-27.4999 0,-5.83371 0.833387,-14.5002 2.50016,-25.8331 1.50047,-11.3329 2.33386,-19.6668 2.33386,-25.166zm-199.501 -3.00095c0,-3.49985 -4.66583,-5.83371 -14.1657,-6.83339 -6.83339,-0.667087 -16.1669,-0.667087 -28.3333,0 -14.3339,0.999686 -21.001,1.50047 -20.0013,1.50047 -4.83213,0 -12.3326,-0.332599 -22.3333,-0.999686 -9.83245,-0.667087 -17.3329,-0.999686 -22.167,-0.999686 -6.16631,0 -9.33167,3.16536 -9.33167,9.33356 0,5.16662 0.332599,12.8315 0.999686,22.9985 0.667087,10.0006 0.999686,17.6674 0.999686,22.834 0,6.5008 -0.500788,16.3332 -1.50047,29.4992 -0.999686,13.1679 -1.50047,23.1666 -1.50047,29.6674 0,7.16599 4.00063,10.6658 11.8337,10.6658 9.66615,0 24.6671,-0.166299 44.6665,-0.498898 20.0013,-0.334489 35.0004,-0.500788 45.001,-0.500788 9.99875,0 14.8328,-3.33355 14.8328,-10.1669 0,-5.83182 -0.500788,-14.8328 -1.66677,-26.8328 -1.16599,-12.1663 -1.66677,-20.9991 -1.66677,-26.9991 0,-5.83371 0.667087,-14.5002 2.16756,-26.3339 1.49858,-11.6674 2.16567,-20.5002 2.16567,-26.3339z"
         id="glyph494" /><glyph
         unicode="ë"
         horiz-adv-x="481"
         d="M463 262.334c0,-24 -10.3332,-40.167 -31.166,-48.3327 -14.1676,-5.16851 -115.002,-14.8347 -302.835,-29.0004 4.16693,-28.6678 20.0013,-53.0004 47.5012,-73.168 26.1657,-19.166 54.1664,-28.8322 84.1664,-28.8322 51.6662,0 98.9992,16.4995 142.001,49.3323 5.33292,4.33323 10.4995,8.50017 15.6662,12.6671 2.66646,0 4.33323,-0.332599 5.16662,-0.999686 0.833387,-0.667087 6.99969,-11.8337 18.3326,-33.6662 11.5011,-22.0007 17.1666,-33.6681 17.1666,-35.3348 0,-1.99937 -2.66646,-5.66552 -7.83308,-11.1666 -47.8338,-50.4983 -109.166,-75.8325 -184.167,-75.8325 -75.4999,0 -135.666,22.4996 -180.665,67.6669 -44.8347,44.9991 -67.3343,105.167 -67.3343,180.333 0,67.1661 21.4999,125.501 64.3333,175.334 45.3336,51.8325 100.668,77.6656 166.5,77.6656 61.168,0 112.167,-22.4996 153.167,-67.3324 40.0007,-43.6668 60.0001,-96.8335 60.0001,-159.334zm-116 29.6655c0,27.001 -10.6677,51.001 -32.0013,71.8338 -21.3336,20.8347 -45.3336,31.1679 -72.1664,31.1679 -30,0 -56.5002,-12 -79.8332,-36 -23.3329,-24 -35.0004,-51.001 -35.0004,-80.8347 0,-6.83339 5.83371,-10.1669 17.5011,-10.1669 48.3327,0 105.999,4.83402 173.167,14.3339 18.8334,2.66646 28.3333,5.83371 28.3333,9.66615zm55.8331 246.335c0,-5.50111 -5.83371,-8.33387 -17.5011,-8.33387 -9.83245,0 -24.3326,-0.166299 -43.4986,-0.500788 -19.3342,-0.332599 -33.6681,-0.498898 -43.1679,-0.498898 -8.16568,0 -12.1663,4.49953 -12.1663,13.6668l-0.500788 99.1655c0,8.16757 3.33355,12.1682 9.83434,12.1682 5.49922,0 13.9994,-0.500788 25.6668,-1.50047 11.4992,-0.999686 20.3339,-1.50047 26.1657,-1.50047 4.83402,0 12,0.166299 21.4999,0.500788 9.50174,0.332599 16.5014,0.498898 21.1673,0.498898 7.83308,0 11.6674,-2.50016 11.6674,-7.66678 0,-6.16631 -0.667087,-15.3336 -2.00126,-27.4999 -1.33229,-12.1663 -1.99937,-21.3336 -1.99937,-27.4999 0,-5.83371 0.833387,-14.5002 2.50016,-25.8331 1.50047,-11.3329 2.33386,-19.6668 2.33386,-25.166zm-199.501 -3.00095c0,-3.49985 -4.66583,-5.83371 -14.1657,-6.83339 -6.83339,-0.667087 -16.1669,-0.667087 -28.3333,0 -14.3339,0.999686 -21.001,1.50047 -20.0013,1.50047 -4.83213,0 -12.3326,-0.332599 -22.3333,-0.999686 -9.83245,-0.667087 -17.3329,-0.999686 -22.167,-0.999686 -6.16631,0 -9.33356,3.16536 -9.33356,9.33356 0,5.16662 0.334489,12.8315 1.00158,22.9985 0.665198,10.0006 0.999686,17.6674 0.999686,22.834 0,6.5008 -0.500788,16.3332 -1.50047,29.4992 -0.999686,13.1679 -1.50047,23.1666 -1.50047,29.6674 0,7.16599 4.00063,10.6658 11.8337,10.6658 9.66615,0 24.6671,-0.166299 44.6665,-0.498898 19.9994,-0.334489 35.0004,-0.500788 45.001,-0.500788 9.99875,0 14.8328,-3.33355 14.8328,-10.1669 0,-5.83182 -0.500788,-14.8328 -1.66677,-26.8328 -1.16599,-12.1663 -1.66677,-20.9991 -1.66677,-26.9991 0,-5.83371 0.667087,-14.5002 2.16756,-26.3339 1.49858,-11.6674 2.16567,-20.5002 2.16567,-26.3339z"
         id="glyph496" /><glyph
         unicode="Ú"
         horiz-adv-x="660"
         d="M610 674.333c0,-37.8331 -1.49858,-94.3333 -4.49953,-169.667 -2.99906,-75.3317 -4.49953,-131.832 -4.49953,-169.665 0,-12.3345 0.166299,-30.8334 0.498898,-55.3342 0.334489,-24.6671 0.500788,-42.8334 0.500788,-54.9998 0,-67.9995 -6.33261,-115.166 -18.9997,-141.5 -19.6668,-40.3333 -57.4999,-67.6669 -113.834,-82.0007 -34.4996,-8.83277 -83.1667,-13.166 -146,-13.166 -114,0 -188.667,18.8334 -224.168,56.6665 -27.3317,29.1667 -40.9985,87.8326 -40.9985,175.667 0,10.6658 0.166299,28.8341 0.498898,54.499 0.334489,25.5005 0.500788,45.5018 0.500788,60.1683 0,38.4983 -1.66677,109.166 -5.00032,212.332 0,26.6665 -1.50047,66.5009 -4.49953,119.668 -0.334489,3.83245 -0.500788,6.49891 -0.500788,7.66678 0,6.83339 4.16693,10.3332 12.6671,10.3332 13.3323,0 31.5005,-0.166299 54.3327,-0.500788 26.3339,-0.332599 44.3339,-0.498898 53.8338,-0.498898 7.50048,0 11.1666,-2.83465 11.1666,-8.83466 0,-49.3323 -0.999686,-123.833 -2.99906,-223 -2.00126,-99.3337 -3.00095,-173.666 -3.00095,-223 0,-55.9994 12.5008,-93.9989 37.6668,-113.834 21.3336,-17.4992 60.9998,-26.332 118.5,-26.332 52.4996,0 89.6675,7.16599 111.834,21.4999 27.9988,17.8337 42.0001,51.3336 42.0001,100.5 0,51.4999 -0.833387,128.667 -2.50016,231.666 -1.66677,103 -2.50016,180.167 -2.50016,231.666 0,5.16662 4.66583,8.33387 14.1657,9.66804 6.83339,0.999686 16.4995,0.999686 29.1667,0 15.001,-1.33417 22.0007,-2.00126 21.4999,-2.00126 5.83371,0 14.6665,0.500788 26.5002,1.50047 11.8337,0.999686 20.6665,1.50047 26.5002,1.50047 8.16757,0 12.1663,-3.49985 12.1663,-10.6677zm-102 143.167c-4.83213,-13.3323 -40.8322,-38.1657 -107.832,-74.1658 -65.5012,-35.5011 -106.001,-53.333 -121.667,-53.333 -6.00001,0 -11.1666,8.16568 -15.4999,24.3326 -3.33355,12.6671 -5.00032,23.4992 -5.00032,32.1657 0,3.33355 3.16725,6.3345 9.33356,9.33356 54.0001,26.6665 109.833,61.8331 167.832,105.834 1.33417,1.16599 3.66804,2.66646 7.33418,4.33323 1.66677,-0.667087 3.66615,-2.16756 6.33261,-4.33323 13.8331,-11.6674 31.8331,-24.3345 53.8338,-37.8331 1.66677,-1.00158 3.33355,-3.16725 5.33292,-6.3345z"
         id="glyph498" /><glyph
         unicode="É"
         horiz-adv-x="538"
         d="M513 98.6666c0,-5.16662 -1.33229,-12.6671 -3.83245,-22.4996 -3.00095,-12.5008 -4.83402,-20.0013 -5.50111,-22.6677 -0.833387,-11.6655 -3.16536,-28.9985 -6.83339,-51.4999 -1.49858,-5.83182 -5.83182,-8.83277 -12.6652,-8.83277 -3.16725,0 -9.33356,0.667087 -18.5008,1.99937 -40.0007,5.83371 -102,8.83466 -185.834,8.83466 -23.8337,0 -59.4993,-0.667087 -107.333,-2.00126 -47.8338,-1.33229 -83.6656,-1.99937 -107.333,-1.99937 -10.834,0 -16.1669,4.66583 -16.1669,14.1676 0,36.4989 1.99937,91.1661 6.00001,164.332 4.00063,72.9998 6.00001,127.833 6.00001,164.334 0,36.9997 -1.99937,106.167 -6.00001,207.5 -0.667087,25.9994 -2.50016,64.8322 -5.49922,116.667l-0.500788 6.83339c-0.332599,7.49859 3.83434,11.1666 12.6671,11.1666 22.834,0 56.9991,-0.667087 102.667,-2.00126 45.4999,-1.16599 79.8332,-1.83307 102.499,-1.83307 21.8344,0 54.5009,0.667087 97.9995,1.83307 43.5005,1.33417 76.167,2.00126 98.0014,2.00126 15.3336,0 23.6655,-4.66772 24.8334,-14.1676 6.83339,-42.6671 10.3332,-69.3336 10.3332,-79.6669 0,-7.49859 -3.49985,-11.1666 -10.6677,-11.1666 -27.6662,0 -69.6662,1.50047 -125.666,4.50142 -56.1676,2.99906 -98.334,4.49953 -126.667,4.49953 -26.6665,0 -43.5005,-3.66804 -50.5002,-10.834 -6.99969,-7.16599 -10.4995,-24.8334 -10.4995,-53.333l0 -72.8335c0,-19.9994 0.498898,-31.5005 1.50047,-34.8341 2.83276,-10.1651 11.3329,-15.1654 25.3323,-15.1654 3.83434,0 9.33356,0.166299 16.4995,0.498898 7.50048,0 13.0016,0 16.6677,0 63.6662,0 120.834,1.16788 171.5,3.49985 19.8331,0.667087 43.3323,2.33386 70.3333,5.00032 6.83339,0.667087 10.1669,-2.33197 10.1669,-8.83277 0,-10.4995 -1.16788,-26.5002 -3.66804,-48.1664 -2.50016,-21.4999 -3.66615,-37.6668 -3.66615,-48.5008 0,-6.00001 -4.83402,-8.83277 -14.6665,-8.83277 -3.83245,0 -18.3326,1.16599 -43.3342,3.33355 -18.1663,1.99937 -59.1648,2.99906 -122.833,2.99906 -53.6656,0 -87.6663,-0.665198 -101.832,-1.99937 -13.0016,-0.833387 -20.5002,-7.66678 -22.5014,-20.3339 0.334489,2.33386 0.500788,-10.1669 0.500788,-37.3323l0 -72.0001c0,-33.6662 5.16662,-54.6672 15.6662,-63.1673 7.99938,-6.83339 28.3333,-10.1669 60.8335,-10.1669l53.6675 0.500788c22.8322,0 86.6666,4.00063 191.832,12l7.33418 0.498898c6.49891,0.667087 9.66615,-3.49985 9.66615,-12.3326zm-90.9998 729.833c-4.83402,-13.3342 -40.8341,-38.1657 -107.834,-74.1658 -65.4993,-35.5011 -105.999,-53.3349 -121.667,-53.3349 -6.00001,0 -11.1666,8.16757 -15.4999,24.3345 -3.33355,12.6671 -4.99843,23.4992 -4.99843,32.1657 0,3.33355 3.16536,6.3345 9.33167,9.33356 54.0001,26.6665 109.833,61.8331 167.834,105.834 1.33417,1.16599 3.66615,2.66646 7.33418,4.33323 1.66677,-0.667087 3.66615,-2.16756 6.33261,-4.33323 13.8331,-11.6674 31.8331,-24.3345 53.8338,-37.835 1.66677,-0.999686 3.33355,-3.16536 5.33292,-6.33261z"
         id="glyph500" /><glyph
         unicode="¸"
         horiz-adv-x="349"
         d="M245.001 -54.9998c0,-42.6671 -11.6674,-76.8341 -35.1667,-102.501 -24.5008,-26.9991 -57.8344,-40.4996 -100.167,-40.4996 -12.1663,0 -28.3333,5.00032 -48.8334,15.001 -21.8344,10.3332 -32.8328,20.1657 -32.8328,29.4992 0,0.999686 8.33198,11.3329 24.9997,30.9997 16.6658,19.6668 25.8331,29.5011 27.4999,29.5011 0.332599,0 0.833387,-0.168189 1.50047,-0.500788 14.1657,-13.6668 28.8322,-20.5002 43.6668,-20.5002 11.6655,0 21.9988,4.83402 30.9997,14.6665 8.83277,9.83434 13.3323,20.6665 13.3323,32.3339 0,19.6668 -7.33229,37.6668 -21.9988,54.0001l66.0001 -0.999686c7.16599,-8.83466 17.4992,-22.5014 30.9997,-41.0004z"
         id="glyph502" /><glyph
         unicode="§"
         horiz-adv-x="405"
         d="M373 88.8341c0,-47.8338 -18.9997,-86.0014 -57.1673,-114.335 -34.3333,-25.6668 -76.3333,-38.5002 -125.832,-38.5002 -66.3346,0 -117.167,19.835 -152.667,59.3349 -5.50111,5.83182 -8.33387,9.99875 -8.33387,12.6652 0,-1.33229 12.3326,21.4999 36.9997,68.5002 1.33417,2.66646 3.16725,4.00063 5.33292,4.00063 -1.33229,0 11.5011,-10.3332 38.3339,-31.166 26.8328,-20.8347 51.3336,-31.3342 73.3324,-31.3342 22.834,0 41.5012,5.00032 56.1676,15.1673 17.1666,11.6655 25.8331,28.3333 25.8331,49.8331 0,22.167 -19.6668,43.6668 -59.0004,64.4996 -72.9998,38.3339 -109.667,57.6662 -110,58.0007 -39.3336,27.3317 -59.0004,60.0001 -59.0004,97.665 0,29.5011 8.33387,56.6684 25.166,81.3336 16.6677,24.6671 25.1679,37.3342 25.1679,38.0013 0,3.33355 -4.83402,10.4995 -14.1676,21.4999 -11.8318,13.9994 -20.5002,26.9991 -25.9994,38.6665 -9.49985,19.5005 -14.1676,41.0004 -14.1676,64.167 0,47.8319 16.6677,84.6653 49.835,110.498 30.1663,23.8337 69.8325,35.6674 118.999,35.6674 59.1667,0 102.501,-15.6662 129.834,-47.1667 4.16693,-5.00032 6.33261,-9.16726 6.33261,-12.8334l-32.5002 -63.1673c-1.33229,-2.16567 -2.83276,-3.33166 -4.49953,-3.33166 0.332599,0 -10.834,8.33198 -33.3336,24.8315 -22.4996,16.5014 -43.9994,24.6671 -64.6659,24.6671 -46.0007,0 -69.001,-17.6655 -69.001,-53.1667 0,-21.1654 7.33418,-38.9991 22.0007,-53.6656 8.33387,-8.16757 25.166,-19.5005 50.1657,-34.167 55.5005,-32.5002 88.8341,-52.8341 100.001,-60.9998 41.1667,-30.9997 61.8331,-60.8335 61.8331,-89.8338 0,-25.6668 -9.49985,-51.3336 -28.4996,-77.1667 -19.166,-25.6668 -28.6678,-37.8331 -28.6678,-36.5008 0,-3.49985 5.50111,-9.99875 16.1669,-18.9997 13.3342,-11.1666 23.3329,-22.3333 29.8337,-33.6662 10.834,-18.6671 16.1669,-41.6675 16.1669,-68.9991zm-106.001 205.499c0,18.9997 -12.4989,39.3336 -37.3323,61.5005 -24.8334,22.167 -46.3333,33.1673 -64.4996,33.1673 -6.83339,0 -14.1676,-6.83339 -22.0007,-20.5002 -6.83339,-12.3345 -10.1669,-22.167 -10.1669,-29.6674 0,-18 12.9997,-37.5005 39.001,-58.4996 24.6652,-19.5005 45.4999,-29.333 62.332,-29.333 6.5008,0 13.6668,5.83182 21.4999,17.4992 7.50048,10.834 11.1666,19.3342 11.1666,25.8331z"
         id="glyph504" /><glyph
         unicode=""
         horiz-adv-x="500"
         d="M62.9991 0l0 796.999 374.002 0 0 -796.999 -374.002 0zm63.001 62.9991l248 0 0 671.001 -248 0 0 -671.001z"
         id="glyph506" /><glyph
         unicode=""
         horiz-adv-x="500"
         d="M62.9991 0l0 796.999 374.002 0 0 -796.999 -374.002 0zm63.001 62.9991l248 0 0 671.001 -248 0 0 -671.001z"
         id="glyph508" /><glyph
         unicode="t"
         horiz-adv-x="341"
         d="M321.999 89.333c0,-7.16599 -0.665198,-16.8321 -1.99937,-29.1667 -1.50047,-15.1673 -2.50016,-24.9997 -2.83276,-29.4992 -0.334489,-5.83371 -0.833387,-9.33356 -1.50047,-10.6677 -1.33229,-2.33197 -4.33323,-4.49953 -9.16726,-6.83339 -26.6665,-12.8334 -68.4984,-19.166 -125.666,-19.166 -75.4999,0 -113.499,34.4996 -113.834,103.501 0,27.6662 0.500788,69.1654 1.50047,124.666 0.999686,55.5005 1.50047,97.1661 1.50047,124.834 0,13.3323 -6.6671,20.5002 -20.0013,21.4999 -12.1663,0 -24,0.166299 -35.6656,0.498898 -6.83339,1.66677 -10.3332,15.001 -10.3332,40.167 0,9.33356 0.665198,19.3342 1.99937,29.8337 0.999686,7.83308 6.16631,12.4989 15.6662,14.1657 8.00127,0 16.0007,0.168189 23.8337,0.500788 15.001,0.667087 22.4996,7.33418 22.4996,19.9994 0,12.9997 -0.332599,32.8347 -0.999686,59.6675 -0.667087,26.6665 -0.999686,46.6659 -0.999686,60.0001 0,23.8337 4.49953,35.6656 13.6668,35.6656 2.83276,0 33.3336,-4.99843 91.1661,-14.9991 7.50048,-0.999686 11.1666,-4.49953 11.1666,-10.6677 0,-14.4983 -1.16599,-35.9982 -3.49985,-64.6659 -2.33386,-28.6659 -3.49985,-50.1657 -3.49985,-64.4996 0,-9.49985 4.49953,-14.1676 13.3342,-14.1676l117.833 0c5.49922,0 8.33387,-1.99937 8.33387,-5.83182 0,-3.83434 -0.667087,-10.1669 -1.83307,-18.8334 -1.16788,-8.50017 -1.66677,-15.001 -1.66677,-19.1679 0,-4.83213 0.166299,-12.3326 0.498898,-22.4996 0.334489,-10.0006 0.500788,-17.4992 0.500788,-22.3333 0,-6.16631 -4.49953,-9.33356 -13.6668,-9.33356 -13.166,0 -32.8328,0.833387 -59.333,2.50016 -26.3339,1.66677 -46.0007,2.50016 -59.1667,2.50016 -2.50016,0 -4.50142,-9.33356 -5.83371,-27.8344 -0.667087,-23.1666 -0.999686,-55.4987 -0.999686,-97.3324l0 -72.8335c0,-28.0007 2.66646,-47.4993 7.83308,-58.4996 7.66678,-17.0003 23.6655,-25.5005 48.0001,-25.5005 9.99875,0 24.6671,2.16756 44.1657,6.5008 19.3342,4.33323 33.8344,6.49891 43.1679,6.49891 3.83245,0 5.83182,-2.83276 5.83182,-8.66647z"
         id="glyph510" /><glyph
         unicode="c"
         horiz-adv-x="401"
         d="M391 443.001c0,-7.16788 -3.66615,-23.1666 -11.1666,-47.8338 -7.50048,-24.8334 -12.8334,-37.1679 -15.6662,-37.1679 -14.6665,6.5008 -29.5011,12.8334 -44.3339,19.3342 -14.8328,6.5008 -30.9997,9.66615 -48.5008,9.66615 -40.1651,0 -73.4987,-14.8328 -100.333,-44.332 -26.6665,-29.6674 -39.9988,-64.6678 -39.9988,-104.835 0,-39.6662 13.3323,-73.9995 39.9988,-103 27.3336,-29.8337 60.8335,-44.8328 100.167,-44.8328 21.8344,0 43.3342,5.33292 64.4996,16.0007 21.1673,10.6658 30.5008,15.9988 27.8344,15.9988 4.16693,0 8.99907,-13.6668 14.1657,-41.0004 4.83402,-24.6652 7.33418,-41.6656 7.33418,-51.1654 0,-10.0006 -18.9997,-19.8331 -57.1673,-29.6674 -31.9994,-8.16568 -55.4987,-12.1663 -70.8322,-12.1663 -67.168,0 -123.834,24.9997 -170.001,75.1673 -45.3317,48.8334 -67.9995,107.167 -67.9995,174.834 0,68.9991 22.167,127.665 66.5009,175.833 45.6662,49.4986 102.499,74.1658 170.498,74.1658 45.6681,0 87.5018,-11.4992 125.167,-34.6659 6.5008,-4.00063 9.83434,-7.33418 9.83434,-10.3332z"
         id="glyph512" /></font>
</defs>
</svg>
