<svg class="pedeae-logo" xmlns:dc="http://purl.org/dc/elements/1.1/" xmlns:cc="http://creativecommons.org/ns#" xmlns:rdf="http://www.w3.org/1999/02/22-rdf-syntax-ns#" xmlns:svg="http://www.w3.org/2000/svg" xmlns="http://www.w3.org/2000/svg" xmlns:sodipodi="http://sodipodi.sourceforge.net/DTD/sodipodi-0.dtd" xmlns:inkscape="http://www.inkscape.org/namespaces/inkscape" width="186.41107mm" height="186.41188mm" viewBox="0 0 660.51167 660.51453" id="svg8130" version="1.1" inkscape:version="0.91 r" sodipodi:docname="pedeae_logo_rocket.svg">
  <defs id="defs8132">
    <filter inkscape:collect="always" style="color-interpolation-filters:sRGB" id="filter4403" x="-0.025969567" width="1.0519391" y="-0.039068673" height="1.0781373">
      <feGaussianBlur inkscape:collect="always" stdDeviation="1.3104534" id="feGaussianBlur4405"></feGaussianBlur>
    </filter>
  </defs>
  <sodipodi:namedview id="base" pagecolor="#ffffff" bordercolor="#666666" borderopacity="1.0" inkscape:pageopacity="0.0" inkscape:pageshadow="2" inkscape:zoom="0.35" inkscape:cx="369.37122" inkscape:cy="259.48411" inkscape:document-units="px" inkscape:current-layer="layer1" showgrid="false" inkscape:window-width="1366" inkscape:window-height="704" inkscape:window-x="0" inkscape:window-y="27" inkscape:window-maximized="1" fit-margin-top="0" fit-margin-left="0" fit-margin-right="0" fit-margin-bottom="0"></sodipodi:namedview>
  <metadata id="metadata8135">
    <rdf:rdf>
      <cc:work rdf:about="">
        <dc:format>image/svg+xml</dc:format>
        <dc:type rdf:resource="http://purl.org/dc/dcmitype/StillImage"></dc:type>
        <dc:title></dc:title>
      </cc:work>
    </rdf:rdf>
  </metadata>
  <g inkscape:label="Layer 1" inkscape:groupmode="layer" id="layer1" transform="translate(-41.791487,-195.92392)">
    <circle style="opacity:1;fill:#cccccc;fill-opacity:1;stroke:none;stroke-width:12.02700043;stroke-miterlimit:4;stroke-dasharray:none;stroke-dashoffset:0;stroke-opacity:1" id="path7849-4" cx="377.87961" cy="526.18079" r="305.4696"></circle>
    <path style="fill:#ffffff;fill-rule:evenodd;stroke:none;stroke-width:1px;stroke-linecap:butt;stroke-linejoin:miter;stroke-opacity:1" d="m 147.48723,314.57247 a 45.880596,45.880596 0 0 0 -45.87979,45.88196 45.880596,45.880596 0 0 0 12.82019,31.79602 45.880596,45.880596 0 0 0 -31.379607,43.46785 45.880596,45.880596 0 0 0 0.130766,2.57756 l -8.378632,0 0,75.99551 -26.906048,6.11997 53.451111,194.18497 62.16286,25.85149 32.95223,-43.98416 0,36.70596 289.71834,0 0,-56.60091 a 30.255343,30.255343 0 0 0 15.27204,4.17035 30.255343,30.255343 0 0 0 18.90423,-6.64027 30.255343,30.255343 0 0 0 -0.31315,4.08862 30.255343,30.255343 0 0 0 30.25502,30.25506 30.255343,30.255343 0 0 0 27.68135,-18.13471 38.639353,38.639353 0 0 0 31.73646,16.67547 38.639353,38.639353 0 0 0 38.6395,-38.63964 38.639353,38.639353 0 0 0 -38.6395,-38.63765 38.639353,38.639353 0 0 0 -37.13088,28.0722 30.255343,30.255343 0 0 0 -22.28693,-9.84778 30.255343,30.255343 0 0 0 -18.90216,6.64028 30.255343,30.255343 0 0 0 0.31315,-4.08863 30.255343,30.255343 0 0 0 -30.25709,-30.25506 30.255343,30.255343 0 0 0 -13.01943,2.97626 47.427129,47.427129 0 0 0 -45.55494,-34.37758 47.427129,47.427129 0 0 0 -44.78136,31.96148 l -0.32691,0 a 39.178936,39.178936 0 0 0 -33.25128,-18.55728 39.178936,39.178936 0 0 0 -24.45006,8.57395 45.880596,45.880596 0 0 0 -44.1117,-33.31903 45.880596,45.880596 0 0 0 -11.47468,1.4931 l 67.54111,-90.15119 -23.89397,-32.14885 -121.74584,27.68943 a 45.880596,45.880596 0 0 0 -34.19416,-33.52237 45.880596,45.880596 0 0 0 2.6215,-15.12655 45.880596,45.880596 0 0 0 -12.82018,-31.79599 45.880596,45.880596 0 0 0 31.3796,-43.46788 45.880596,45.880596 0 0 0 -45.88219,-45.88196 z" id="path7859-7" inkscape:connector-curvature="0"></path>
    <path style="opacity:1;fill:#ffdd55;fill-rule:evenodd;stroke:none;stroke-width:1px;stroke-linecap:butt;stroke-linejoin:miter;stroke-opacity:1" d="m 342.82242,453.69847 c -50.88948,2.177 -62.45776,44.46992 -83.36477,77.23527 36.49013,-11.31766 81.87301,-6.24874 98.22318,-56.28322 z" id="path4164" inkscape:connector-curvature="0" sodipodi:nodetypes="cccc"></path>
    <path sodipodi:nodetypes="cccc" inkscape:connector-curvature="0" id="path4166" d="m 346.22542,458.59422 c -27.91397,1.19414 -34.2592,24.39267 -45.72734,42.36512 20.01574,-6.20795 44.90903,-3.42757 53.87748,-30.87251 z" style="opacity:1;fill:#ff2a2a;fill-rule:evenodd;stroke:none;stroke-width:1px;stroke-linecap:butt;stroke-linejoin:miter;stroke-opacity:1"></path>
    <path style="opacity:1;fill:#f9f9f9;fill-rule:evenodd;stroke:none;stroke-width:1px;stroke-linecap:butt;stroke-linejoin:miter;stroke-opacity:1" d="m 349.98184,428.73143 -4.64356,0.54701 -7.60126,10.62832 c 4.87136,20.36959 15.90075,34.64024 32.13667,43.75429 l 12.48639,-4.53491 0.27874,-5.93187 z" id="path4162" inkscape:connector-curvature="0" sodipodi:nodetypes="ccccccc"></path>
    <path style="opacity:1;fill:#800000;fill-rule:evenodd;stroke:none;stroke-width:1px;stroke-linecap:butt;stroke-linejoin:miter;stroke-opacity:1" d="M 539.94188,325.11462 C 538.58605,424.44576 415.80544,467.91041 382.51184,479.11864 362.55047,470.22592 350.02623,453.76313 345.46079,429.19909 373.04923,391.46727 448.20742,297.9597 539.94188,325.11462 Z" id="path4147" inkscape:connector-curvature="0" sodipodi:nodetypes="cccc"></path>
    <path inkscape:connector-curvature="0" style="opacity:1;fill:#ffd42a;fill-opacity:1;stroke:none;stroke-width:10.04699993;stroke-miterlimit:4;stroke-dasharray:none;stroke-dashoffset:0;stroke-opacity:0.97254902" d="m 539.94222,325.11431 c -18.63547,-5.51635 -36.58683,-6.05242 -53.59427,-3.08906 a 47.246325,34.81308 53.703195 0 0 11.53972,33.78449 47.246325,34.81308 53.703195 0 0 29.01034,21.14235 c 7.9127,-15.278 12.78027,-32.49879 13.04421,-51.83778 z" id="path4149"></path>
    <path style="fill:#ffd42a;fill-rule:evenodd;stroke:none;stroke-width:1px;stroke-linecap:butt;stroke-linejoin:miter;stroke-opacity:1" d="m 441.3326,453.87834 c -8.10368,19.52254 -14.57933,38.50106 -19.15785,41.95534 -5.28361,7.10404 -41.92,20.15414 -62.88,30.23121 l 23.21881,-46.91521 z" id="path4158" inkscape:connector-curvature="0" sodipodi:nodetypes="ccccc"></path>
    <path sodipodi:nodetypes="ccccc" inkscape:connector-curvature="0" id="path4160" d="m 387.0494,380.71486 c -21.05257,1.89242 -41.09927,2.39408 -45.76485,5.72964 -8.35936,2.91662 -31.77156,33.97127 -47.65717,50.95689 L 345.34,429.28047 Z" style="fill:#ffd42a;fill-rule:evenodd;stroke:none;stroke-width:1px;stroke-linecap:butt;stroke-linejoin:miter;stroke-opacity:1"></path>
    <path style="opacity:1;fill:#ffd42a;fill-opacity:1;stroke:none;stroke-width:12.02700043;stroke-miterlimit:4;stroke-dasharray:none;stroke-dashoffset:0;stroke-opacity:1" d="M 96.534082,654.31716 A 309.11486,329.24888 0 0 0 372.77668,836.02494 309.11486,329.24888 0 0 0 648.72438,654.31716 l -552.190298,0 z" id="path7897-5" inkscape:connector-curvature="0"></path>
    <path inkscape:connector-curvature="0" style="opacity:1;fill:#880000;fill-opacity:1;stroke:none;stroke-width:12.02700043;stroke-miterlimit:4;stroke-dasharray:none;stroke-dashoffset:0;stroke-opacity:1" d="M 372.04749,195.92392 A 330.25707,330.25707 0 0 0 41.791487,526.17975 330.25707,330.25707 0 0 0 372.04749,856.43848 330.25707,330.25707 0 0 0 702.30316,526.17975 330.25707,330.25707 0 0 0 372.04749,195.92392 Z m 0,47.92413 A 282.33333,282.33333 0 0 1 654.38205,526.17975 282.33333,282.33333 0 0 1 372.04749,808.51431 282.33333,282.33333 0 0 1 89.712937,526.17975 282.33333,282.33333 0 0 1 372.04749,243.84805 Z" id="path7796"></path>
    <path style="opacity:0.18500001;fill:#000000;fill-rule:evenodd;stroke:none;stroke-width:1px;stroke-linecap:butt;stroke-linejoin:miter;stroke-opacity:1" d="M 539.93396,325.35296 259.54093,530.91075 c 36.4244,-11.26845 81.67101,-6.28122 98.06729,-56.05273 3.68037,3.339 7.76541,6.27682 12.26581,8.80324 l 12.48536,-4.53519 0,-0.0757 c 0.0482,0.0206 0.0963,0.0458 0.14797,0.0678 33.26676,-11.19915 155.87221,-54.60492 157.42316,-153.76517 z" id="path7941" inkscape:connector-curvature="0"></path>
    <g id="g7936" transform="matrix(1.0206622,0,0,1.0206622,-7.7848361,107.48541)">
      <circle transform="matrix(0.59196823,0.8059613,-0.8059613,0.59196823,0,0)" r="28.747341" cy="-211.57681" cx="489.38046" id="path4154" style="opacity:1;fill:#ffffff;fill-opacity:1;stroke:#ffd42a;stroke-width:7.14834785;stroke-miterlimit:4;stroke-dasharray:none;stroke-dashoffset:0;stroke-opacity:1"></circle>
      <circle r="8.738142" cy="277.48367" cx="464.86496" id="path7812" style="opacity:1;fill:#241c1c;fill-opacity:1;stroke:none;stroke-width:12.02700043;stroke-miterlimit:4;stroke-dasharray:none;stroke-dashoffset:0;stroke-opacity:1"></circle>
      <path sodipodi:nodetypes="ccccccc" inkscape:connector-curvature="0" id="path7839" d="m 449.50353,258.49312 c 1.56388,-5.10895 5.04485,-5.74468 9.26142,-4.66402 10.09378,-6.31822 14.29568,6.6592 7.19593,9.79445 l 1.66573,6.12987 c -3.55355,0.43219 -7.10709,1.92623 -10.66064,5.19706 l -4.131,-4.79729 c -10.5141,3.03565 -11.75079,-10.2075 -3.33144,-11.66007 z" style="opacity:1;fill:#ffffff;fill-opacity:1;fill-rule:evenodd;stroke:#241c1c;stroke-width:0.55640024px;stroke-linecap:butt;stroke-linejoin:miter;stroke-opacity:1"></path>
    </g>
    <path style="opacity:0.397;fill:#000000;fill-opacity:1;stroke:none;stroke-width:12.02700043;stroke-miterlimit:4;stroke-dasharray:none;stroke-dashoffset:0;stroke-opacity:1" d="m 685.88279,424.00632 -42.03253,25.91725 A 282.33333,282.33333 0 0 1 654.38171,526.1802 282.33333,282.33333 0 0 1 372.04715,808.5149 282.33333,282.33333 0 0 1 182.11602,734.62454 l -42.35153,26.11461 A 330.25707,330.25707 0 0 0 372.04715,856.4382 330.25707,330.25707 0 0 0 702.30316,526.1802 330.25707,330.25707 0 0 0 685.88279,424.00632 Z" id="path7954" inkscape:connector-curvature="0"></path>
    <path style="opacity:1;fill:#ffd42a;fill-opacity:1;stroke:none;stroke-width:12.02700043;stroke-miterlimit:4;stroke-dasharray:none;stroke-dashoffset:0;stroke-opacity:1" d="M 370.74219,229.51172 C 283.80687,229.63117 197.7818,270.1272 143.01375,337.7818 89.391797,402.38121 65.251179,490.45212 79.243661,573.30793 91.318716,649.82445 134.66774,720.85076 197.62773,766.07484 263.06749,813.90525 348.5551,833.37937 428.1383,817.4087 507.19889,802.4761 579.22098,753.83779 622.08091,685.67616 664.73743,619.29201 679.38924,535.5513 660.84691,458.76237 642.78988,379.82094 590.75964,309.39589 520.32062,269.35363 475.10363,243.22614 422.99288,229.16739 370.74219,229.51172 Z m 2.14648,16.36133 c 70.41226,0.26508 141.11193,28.32539 192.01367,77.09961 56.83127,53.54065 89.60419,132.16992 87.23645,210.02887 C 650.41321,613.49645 611.958,692.9293 548.75496,743.53876 486.91472,794.0158 403.52608,816.31479 325.01252,802.31919 256.73126,790.84125 193.2022,753.01267 150.84173,698.09344 99.787096,632.79837 79.857609,544.48249 98.977252,463.87989 115.91806,388.11713 165.91939,320.48741 233.75445,282.62703 c 42.27264,-24.03482 90.64498,-36.72696 139.13422,-36.75398 z" id="circle7798" inkscape:connector-curvature="0"></path>
    <path id="rect4158" style="opacity:1;fill:#800000;fill-opacity:1;fill-rule:nonzero;stroke:none;stroke-width:3;stroke-miterlimit:4;stroke-dasharray:none;stroke-dashoffset:0;stroke-opacity:1" d="m 263.61685,694.75043 c 0,-3.0181 5.12714,-3.04472 5.12714,0 l 0,68.85854 c 0,3.38263 -5.12714,3.32494 -5.12714,0 z m 19.57541,-9.44349 c -0.1992,0.007 -25.47381,0.0174 -25.67275,0.0301 -2.75848,0 -2.54144,5.20493 0,5.20493 0.19894,-0.0105 25.47357,-0.0175 25.67275,-0.0213 9.77907,-4e-5 17.70658,7.92747 17.70654,17.70654 -1.7e-4,9.77892 -7.92762,17.7062 -17.70654,17.70617 -0.19923,-0.007 -9.02348,-0.0167 -9.22236,-0.0301 -3.49735,0 -3.41766,5.22242 0,5.22242 0.19896,0.01 9.0232,0.0169 9.22236,0.0213 12.65837,9e-5 22.9201,-10.26146 22.92021,-22.91984 9e-5,-12.65852 -10.2617,-22.9203 -22.92021,-22.92021 z" inkscape:connector-curvature="0"></path>
    <g style="fill:#800000;fill-opacity:1" id="g4310" transform="matrix(0.24111696,0,0,0.24111696,81.907461,766.21013)">
      <path sodipodi:nodetypes="ccccccccccc" inkscape:connector-curvature="0" id="path4161" d="m 943.53042,-168.03934 c -46.30435,4.6e-4 -83.84133,37.53744 -83.84179,83.84179 4.6e-4,46.30436 37.53743,83.84134 83.84179,83.8418 28.3823,-0.009 54.83326,-14.37606 70.29098,-38.17969 3.6897,-10.20946 -14.11725,-16.89686 -19.92769,-5.01953 -12.28028,15.23871 -30.79232,24.10777 -50.36329,24.12891 -35.77239,2e-4 -64.77168,-28.9991 -64.77148,-64.77149 8.8e-4,-35.77162 28.99986,-64.76973 64.77148,-64.76953 18.03717,0.0218 35.2483,7.56385 47.49024,20.81055 4.44537,-4.81216 8.98084,-9.66889 13.05274,-13.89844 -15.78988,-16.55989 -37.6618,-25.94707 -60.54298,-25.98437 z" style="opacity:1;fill:#800000;fill-opacity:1;fill-rule:nonzero;stroke:none;stroke-width:3;stroke-miterlimit:4;stroke-dasharray:none;stroke-dashoffset:0;stroke-opacity:1"></path>
      <path sodipodi:nodetypes="ccccc" inkscape:connector-curvature="0" id="rect4166" d="m 920.69461,-81.97889 66.9785,-70.12819 13.60559,12.99453 -66.9785,70.12819 c -7.54143,7.54144 -22.57021,-4.02992 -13.60559,-12.99453 z" style="opacity:1;fill:#800000;fill-opacity:1;fill-rule:nonzero;stroke:none;stroke-width:3;stroke-miterlimit:4;stroke-dasharray:none;stroke-dashoffset:0;stroke-opacity:1"></path>
    </g>
    <g style="fill:#800000;fill-opacity:1" id="g4302" transform="matrix(0.24111696,0,0,0.24111696,81.907461,767.91509)">
      <path style="opacity:1;fill:#800000;fill-opacity:1;fill-rule:nonzero;stroke:none;stroke-width:3;stroke-miterlimit:4;stroke-dasharray:none;stroke-dashoffset:0;stroke-opacity:1" d="m 1236.4747,-175.11041 c -46.3044,4.6e-4 -83.8414,37.53744 -83.8418,83.84179 4e-4,46.30436 37.5374,83.84134 83.8418,83.8418 28.3823,-0.009 54.8332,-14.37606 70.291,-38.17969 3.6896,-10.20946 -14.1173,-16.89686 -19.9277,-5.01953 -12.2803,15.23871 -30.7924,24.10777 -50.3633,24.12891 -35.7724,2e-4 -64.7717,-28.9991 -64.7715,-64.77149 9e-4,-35.77162 28.9998,-64.76973 64.7715,-64.76953 18.0371,0.0218 35.2483,7.56385 47.4902,20.81055 4.4454,-4.81216 8.9808,-9.66889 13.0527,-13.89844 -15.7898,-16.55989 -37.6618,-25.94707 -60.5429,-25.98437 z" id="path4175" inkscape:connector-curvature="0" sodipodi:nodetypes="ccccccccccc"></path>
      <path style="opacity:1;fill:#800000;fill-opacity:1;fill-rule:nonzero;stroke:none;stroke-width:3;stroke-miterlimit:4;stroke-dasharray:none;stroke-dashoffset:0;stroke-opacity:1" d="m 1213.6389,-89.04996 66.9785,-70.12818 13.6056,12.99452 -66.9786,70.12819 c -7.5414,7.54144 -22.5702,-4.02992 -13.6055,-12.99453 z" id="path4177" inkscape:connector-curvature="0" sodipodi:nodetypes="ccccc"></path>
    </g>
    <path sodipodi:nodetypes="ccccc" inkscape:connector-curvature="0" id="path4179" d="m 352.93888,699.64589 c 0,-2.8111 4.64252,-2.83588 4.64252,0 l 0,64.13562 c 0,3.15061 -4.64252,3.09688 -4.64252,0 z" style="opacity:1;fill:#800000;fill-opacity:1;fill-rule:nonzero;stroke:none;stroke-width:3;stroke-miterlimit:4;stroke-dasharray:none;stroke-dashoffset:0;stroke-opacity:1"></path>
    <path style="opacity:1;fill:#800000;fill-opacity:1;fill-rule:nonzero;stroke:none;stroke-width:3;stroke-miterlimit:4;stroke-dasharray:none;stroke-dashoffset:0;stroke-opacity:1" d="m 348.93827,723.89019 c -11.16475,1.1e-4 -20.21555,9.05092 -20.21565,20.21568 10e-5,11.16477 9.0509,20.21557 20.21565,20.21568 0.28426,-9e-5 0.56757,-0.008 0.85004,-0.0203 2.6541,0 2.62118,-4.60194 0,-4.60194 -0.2822,0.0157 -0.56566,0.0237 -0.85004,0.024 -8.6253,4e-5 -15.61753,-6.99218 -15.61748,-15.6175 1.9e-4,-8.62515 6.99235,-15.61709 15.61748,-15.61704 0.28421,2.5e-4 0.56784,0.009 0.85004,0.025 2.27713,0 2.27093,-4.60242 0,-4.60242 -0.28262,-0.0124 -0.56593,-0.0207 -0.85004,-0.0212 z" id="path4183" inkscape:connector-curvature="0" sodipodi:nodetypes="ccccccccccc"></path>
    <path style="opacity:1;fill:#800000;fill-opacity:1;fill-rule:nonzero;stroke:none;stroke-width:3;stroke-miterlimit:4;stroke-dasharray:none;stroke-dashoffset:0;stroke-opacity:1" d="m 431.63702,703.79596 c 0.72756,-2.71531 5.2183,-1.53768 4.48433,1.20157 l -16.59953,61.95024 c -0.81543,3.04327 -5.28585,1.78979 -4.48432,-1.20156 z" id="path4839" inkscape:connector-curvature="0" sodipodi:nodetypes="ccccc"></path>
    <path style="opacity:1;fill:#800000;fill-opacity:1;fill-rule:nonzero;stroke:none;stroke-width:3;stroke-miterlimit:4;stroke-dasharray:none;stroke-dashoffset:0;stroke-opacity:1" d="m 478.18739,725.693 c -11.16477,10e-5 -20.21558,9.05091 -20.21568,20.21567 1e-4,11.16476 9.05091,20.21557 20.21568,20.21568 6.84346,-0.002 13.22122,-3.46631 16.94836,-9.20577 0.88962,-2.46168 -3.40392,-4.07412 -4.80491,-1.2103 -2.96099,3.67432 -7.42457,5.8128 -12.14345,5.81789 -8.62533,5e-5 -15.61755,-6.99217 -15.6175,-15.6175 2.1e-4,-8.62514 6.99234,-15.61708 15.6175,-15.61703 4.34906,0.005 8.49896,1.82377 11.45069,5.01777 1.07186,-1.16029 2.16543,-2.33133 3.14723,-3.35114 -3.80719,-3.99287 -9.0809,-6.25628 -14.59792,-6.26527 z" id="path4811" inkscape:connector-curvature="0" sodipodi:nodetypes="ccccccccccc"></path>
    <path style="opacity:1;fill:#800000;fill-opacity:1;fill-rule:nonzero;stroke:none;stroke-width:3;stroke-miterlimit:4;stroke-dasharray:none;stroke-dashoffset:0;stroke-opacity:1" d="m 472.68129,746.44363 16.14966,-16.9091 3.28053,3.1332 -16.14967,16.9091 c -1.81836,1.81837 -5.44206,-0.97168 -3.28052,-3.1332 z" id="path4813" inkscape:connector-curvature="0" sodipodi:nodetypes="ccccc"></path>
    <g transform="matrix(0.12591714,-0.07828628,0.07828628,0.12591714,518.31917,460.53977)" id="g8408">
      <path style="opacity:1;fill:#ffdd55;fill-rule:evenodd;stroke:none;stroke-width:1px;stroke-linecap:butt;stroke-linejoin:miter;stroke-opacity:1" d="m -1019.7262,1183.9035 c -49.8593,2.1329 -61.1932,43.5697 -81.6769,75.6717 35.7514,-11.0885 80.2156,-6.1222 96.2348,-55.1438 z" id="path8410" inkscape:connector-curvature="0" sodipodi:nodetypes="cccc"></path>
      <path sodipodi:nodetypes="cccc" inkscape:connector-curvature="0" id="path8412" d="m -1016.3921,1188.7001 c -27.3488,1.17 -33.5657,23.8989 -44.8014,41.5075 19.6104,-6.0823 43.9999,-3.3582 52.7867,-30.2475 z" style="opacity:1;fill:#ff2a2a;fill-rule:evenodd;stroke:none;stroke-width:1px;stroke-linecap:butt;stroke-linejoin:miter;stroke-opacity:1"></path>
      <path style="opacity:1;fill:#f9f9f9;fill-rule:evenodd;stroke:none;stroke-width:1px;stroke-linecap:butt;stroke-linejoin:miter;stroke-opacity:1" d="m -1012.7117,1159.4419 -4.5493,0.5359 -7.4477,10.4132 c 4.7728,19.9572 15.579,33.939 31.48642,42.8685 l 12.23337,-4.4431 0.27349,-5.8118 z" id="path8414" inkscape:connector-curvature="0" sodipodi:nodetypes="ccccccc"></path>
      <path style="opacity:1;fill:#800000;fill-rule:evenodd;stroke:none;stroke-width:1px;stroke-linecap:butt;stroke-linejoin:miter;stroke-opacity:1" d="m -826.59713,1057.9227 c -1.32828,97.3203 -121.62328,139.905 -154.24303,150.8864 -19.55724,-8.7127 -31.82794,-24.8423 -36.30094,-48.909 27.03004,-36.968 100.66665,-128.5826 190.54397,-101.9774 z" id="path8416" inkscape:connector-curvature="0" sodipodi:nodetypes="cccc"></path>
      <path inkscape:connector-curvature="0" style="opacity:1;fill:#ffd42a;fill-opacity:1;stroke:none;stroke-width:10.04699993;stroke-miterlimit:4;stroke-dasharray:none;stroke-dashoffset:0;stroke-opacity:0.97254902" d="m -826.5969,1057.9224 c -18.25794,-5.4047 -35.84603,-5.9299 -52.509,-3.0266 a 46.289872,34.108326 53.703195 0 0 11.30596,33.1006 46.289872,34.108326 53.703195 0 0 28.4229,20.7144 c 7.7525,-14.9687 12.52153,-31.8409 12.78014,-50.7884 z" id="path8418"></path>
      <path style="fill:#ffd42a;fill-rule:evenodd;stroke:none;stroke-width:1px;stroke-linecap:butt;stroke-linejoin:miter;stroke-opacity:1" d="m -923.21016,1184.0797 c -7.93959,19.1273 -14.28405,37.7217 -18.76994,41.106 -5.17676,6.9603 -41.07134,19.7462 -61.607,29.6192 l 22.74871,-45.9654 z" id="path8420" inkscape:connector-curvature="0" sodipodi:nodetypes="ccccc"></path>
      <path sodipodi:nodetypes="ccccc" inkscape:connector-curvature="0" id="path8422" d="m -976.3943,1112.3974 c -20.62654,1.8541 -40.2673,2.3456 -44.8386,5.6136 -8.1902,2.8576 -31.1283,33.2836 -46.6924,49.9253 l 50.6657,-7.9565 z" style="fill:#ffd42a;fill-rule:evenodd;stroke:none;stroke-width:1px;stroke-linecap:butt;stroke-linejoin:miter;stroke-opacity:1"></path>
      <path inkscape:connector-curvature="0" style="opacity:0.18500001;fill:#000000;fill-rule:evenodd;stroke:none;stroke-width:1px;stroke-linecap:butt;stroke-linejoin:miter;stroke-opacity:1" d="m -826.60479,1058.1562 -274.71681,201.3965 c 35.6872,-11.0403 80.0177,-6.1541 96.082,-54.918 3.6057,3.2714 7.60812,6.1498 12.01762,8.625 l 12.23242,-4.4434 0.004,-0.074 c 0.0486,0.022 0.0958,0.045 0.14453,0.066 32.59333,-10.9724 152.7167,-53.4994 154.23633,-150.6523 z" id="path8424"></path>
      <g transform="translate(-1363.2357,844.69915)" id="g8426">
        <circle transform="matrix(0.59196823,0.8059613,-0.8059613,0.59196823,0,0)" r="28.747341" cy="-211.57681" cx="489.38046" id="circle8428" style="opacity:1;fill:#ffffff;fill-opacity:1;stroke:#ffd42a;stroke-width:7.14834785;stroke-miterlimit:4;stroke-dasharray:none;stroke-dashoffset:0;stroke-opacity:1"></circle>
        <circle r="8.738142" cy="277.48367" cx="464.86496" id="circle8430" style="opacity:1;fill:#241c1c;fill-opacity:1;stroke:none;stroke-width:12.02700043;stroke-miterlimit:4;stroke-dasharray:none;stroke-dashoffset:0;stroke-opacity:1"></circle>
        <path sodipodi:nodetypes="ccccccc" inkscape:connector-curvature="0" id="path8432" d="m 449.50353,258.49312 c 1.56388,-5.10895 5.04485,-5.74468 9.26142,-4.66402 10.09378,-6.31822 14.29568,6.6592 7.19593,9.79445 l 1.66573,6.12987 c -3.55355,0.43219 -7.10709,1.92623 -10.66064,5.19706 l -4.131,-4.79729 c -10.5141,3.03565 -11.75079,-10.2075 -3.33144,-11.66007 z" style="opacity:1;fill:#ffffff;fill-opacity:1;fill-rule:evenodd;stroke:#241c1c;stroke-width:0.55640024px;stroke-linecap:butt;stroke-linejoin:miter;stroke-opacity:1"></path>
      </g>
    </g>
    <path sodipodi:nodetypes="ccccc" inkscape:connector-curvature="0" id="path4844" d="m 436.90638,705.00308 c -0.72756,-2.71532 3.75034,-3.94083 4.48433,-1.20157 l 16.59951,61.95025 c 0.81545,3.04325 -3.68279,4.19292 -4.48433,1.20157 z" style="opacity:1;fill:#800000;fill-opacity:1;fill-rule:nonzero;stroke:none;stroke-width:3;stroke-miterlimit:4;stroke-dasharray:none;stroke-dashoffset:0;stroke-opacity:1"></path>
    <path transform="matrix(0.36344057,0,0,0.44851481,783.07102,428.74637)" sodipodi:nodetypes="ccccccccc" inkscape:connector-curvature="0" id="path8434" d="m -933.905,659.02737 c -33.95536,18.30153 -42.23581,30.00707 -37.05451,44.80424 5.18109,14.79731 36.90741,11.95673 70.86281,-6.34463 15.3418,-7.43006 49.87858,-47.11745 48.80085,-64.67897 -4.12561,10.98526 -20.51643,27.13197 -41.14932,40.53646 -27.37764,17.77111 -53.15994,24.96461 -57.58643,16.06713 -4.42618,-8.89769 -0.86573,-15.39076 26.51198,-33.16187 4.02338,-2.60283 8.10841,-5.03546 12.16507,-7.24429 -7.40692,2.59492 -15.04947,5.99145 -22.55045,10.02193 z" style="opacity:1;fill:#e0e7e6;fill-opacity:0.60479036;stroke:none;stroke-width:8.5;stroke-linecap:round;stroke-linejoin:bevel;stroke-miterlimit:4;stroke-dasharray:none;stroke-opacity:1;filter:url(#filter4403)"></path>
    <path style="opacity:1;fill:#800000;fill-opacity:1;fill-rule:nonzero;stroke:none;stroke-width:3;stroke-miterlimit:4;stroke-dasharray:none;stroke-dashoffset:0;stroke-opacity:1" d="m 445.05617,717.59599 4.23921,15.90611 -4.37823,1.18742 -4.2392,-15.90613 c -0.61595,-2.49669 3.64606,-4.15529 4.37822,-1.1874 z" id="path8496" inkscape:connector-curvature="0" sodipodi:nodetypes="ccccc"></path>
  </g>
</svg>